<svg width="134" height="48" viewBox="0 0 134 48" fill="none" xmlns="http://www.w3.org/2000/svg">
<g clip-path="url(#clip0_1552_7659)">
<path d="M15.2346 6H0.599609V41L15.2346 6Z" fill="#FA0C00"/>
<path d="M25.5312 6H40.1472V41L25.5312 6Z" fill="#FA0C00"/>
<path d="M20.3838 18.8998L29.6987 41H23.5873L20.8033 33.9638H13.9863L20.3838 18.8998Z" fill="#FA0C00"/>
<path d="M64.0222 28.2578L65.7479 33.206C65.8051 33.33 65.8909 33.3872 66.0435 33.3872H69.3614C69.5425 33.3872 69.5711 33.3014 69.5425 33.1202L62.6874 14.0804C62.6588 13.9279 62.6302 13.8993 62.4777 13.8993H58.3589C58.2445 13.8993 58.1777 13.9851 58.1777 14.109C58.1205 15.1101 58.0347 15.4152 57.9108 15.7108L51.7994 33.0916C51.7708 33.3014 51.8375 33.3872 52.0091 33.3872H54.9743C55.1554 33.3872 55.2412 33.33 55.308 33.1488L56.9383 28.2578H64.0222ZM57.8822 25.0257C58.7784 22.318 59.9606 18.8475 60.4374 16.8644H60.466C61.0571 18.9429 62.4491 23.0616 63.0783 25.0257H57.8822Z" fill="#FA0C00"/>
<path d="M78.3568 33.6827C80.1397 33.6827 82.037 33.3585 83.9629 32.5291C84.1154 32.4719 84.1441 32.4051 84.1441 32.2621C84.0868 31.7282 84.0201 30.9559 84.0201 30.3648V12.4405C84.0201 12.3261 84.0201 12.2689 83.8771 12.2689H80.645C80.5211 12.2689 80.4639 12.3261 80.4639 12.4787V18.552C79.9585 18.4947 79.6058 18.4661 79.1863 18.4661C73.9711 18.4661 70.7676 21.908 70.7676 26.2079C70.7676 31.1943 74.0569 33.6827 78.3568 33.6827ZM80.4639 30.3648C79.9299 30.5364 79.3388 30.6032 78.7382 30.6032C76.3737 30.6032 74.4382 29.2684 74.4382 26.0268C74.4382 23.157 76.4309 21.4599 79.0719 21.4599C79.6058 21.4599 80.073 21.5171 80.4639 21.6696V30.3648Z" fill="#FA0C00"/>
<path d="M94.4539 18.4662C90.0015 18.4662 87.2461 21.8794 87.2461 26.0935C87.2461 29.8595 89.439 33.6828 94.3872 33.6828C98.5727 33.6828 101.509 30.6032 101.509 25.9982C101.509 21.9366 99.0208 18.4662 94.4539 18.4662ZM94.2728 21.4599C96.7898 21.4599 97.8576 23.6242 97.8576 26.0935C97.8576 29.1445 96.2845 30.6604 94.4539 30.6604C92.1943 30.6604 90.8595 28.7631 90.8595 26.0268C90.8595 23.2142 92.2801 21.4599 94.2728 21.4599Z" fill="#FA0C00"/>
<path d="M104.85 12.2689C104.726 12.2689 104.641 12.3261 104.641 12.4787V32.7674C104.641 32.8532 104.726 33.0058 104.85 33.0344C106.271 33.4729 107.758 33.6827 109.293 33.6827C113.689 33.6827 117.96 30.9559 117.96 25.4642C117.96 21.4885 115.233 18.4661 110.962 18.4661C109.98 18.4661 109.064 18.6187 108.264 18.8856L108.225 12.5073C108.225 12.2975 108.168 12.2689 107.959 12.2689H104.85ZM114.308 25.8265C114.308 29.1158 112.058 30.6604 109.627 30.6604C109.122 30.6604 108.674 30.6318 108.264 30.5078V21.8508C108.731 21.6696 109.293 21.5171 110.333 21.5171C112.678 21.5171 114.308 23.0044 114.308 25.8265Z" fill="#FA0C00"/>
<path d="M130.024 26.8944C131.473 26.8944 132.665 26.8658 133.075 26.7705C133.227 26.7419 133.285 26.6847 133.313 26.5607C133.399 26.2365 133.437 25.5596 133.437 24.7301C133.437 21.908 131.74 18.4662 127.354 18.4662C122.873 18.4662 120.385 22.1178 120.385 26.2365C120.385 29.8881 122.311 33.6828 127.707 33.6828C129.728 33.6828 131.034 33.3586 132.159 32.8247C132.274 32.7675 132.331 32.6721 132.331 32.5005V30.0312C132.331 29.8881 132.245 29.8595 132.159 29.9167C131.034 30.3935 129.814 30.6318 128.479 30.6318C125.457 30.6318 124.084 28.9633 123.998 26.8944H130.024ZM123.998 24.3392C124.237 22.8901 125.152 21.3169 127.202 21.3169C129.461 21.3169 130.052 23.2142 130.052 24.0723C130.052 24.1009 130.052 24.2248 130.052 24.3106C129.928 24.3392 129.547 24.3392 128.422 24.3392H123.998Z" fill="#FA0C00"/>
</g>
<defs>
<clipPath id="clip0_1552_7659">
<rect width="133" height="48" fill="white" transform="translate(0.599609)"/>
</clipPath>
</defs>
</svg>
