<svg width="160" height="48" viewBox="0 0 160 48" fill="none" xmlns="http://www.w3.org/2000/svg">
<mask id="mask0_5532_35810" style="mask-type:luminance" maskUnits="userSpaceOnUse" x="0" y="0" width="160" height="48">
<path d="M159.621 0H0.339844V48H159.621V0Z" fill="white"/>
</mask>
<g mask="url(#mask0_5532_35810)">
<path fill-rule="evenodd" clip-rule="evenodd" d="M99.1555 37.5373C89.8992 44.36 76.4832 48 64.9322 48C48.7355 48 34.1545 42.0097 23.1236 32.0462C22.2569 31.2628 23.0335 30.195 24.0735 30.8051C35.9782 37.7317 50.6978 41.8987 65.9028 41.8987C76.1572 41.8987 87.4378 39.777 97.8102 35.3743C99.3772 34.7087 100.688 36.4003 99.1555 37.5373Z" fill="#FF9900"/>
<path fill-rule="evenodd" clip-rule="evenodd" d="M103.001 33.1345C101.822 31.6231 95.1802 32.4204 92.1988 32.774C91.2905 32.8849 91.1518 32.0945 91.9702 31.526C97.2602 27.8028 105.941 28.8774 106.953 30.1254C107.965 31.3804 106.69 40.0818 101.718 44.2348C100.956 44.8728 100.228 44.5331 100.567 43.6871C101.684 40.9001 104.187 34.6531 103.001 33.1345Z" fill="#FF9900"/>
<path fill-rule="evenodd" clip-rule="evenodd" d="M92.4067 5.24149V1.62224C92.4067 1.0745 92.8227 0.707031 93.322 0.707031H109.525C110.045 0.707031 110.461 1.08143 110.461 1.62224V4.72149C110.454 5.24149 110.017 5.92095 109.241 6.99562L100.845 18.9835C103.965 18.9072 107.258 19.3718 110.087 20.9665C110.725 21.327 110.898 21.8539 110.947 22.3739V26.2358C110.947 26.7628 110.364 27.3799 109.754 27.0609C104.769 24.447 98.1474 24.1628 92.6354 27.0886C92.0737 27.3937 91.4844 26.7836 91.4844 26.2566V22.5889C91.4844 21.9995 91.4914 20.9942 92.0807 20.0998L101.808 6.14975H93.3427C92.8227 6.14975 92.4067 5.78229 92.4067 5.24149Z" fill="black"/>
<path fill-rule="evenodd" clip-rule="evenodd" d="M33.3024 27.8238H28.3727C27.9013 27.7891 27.5269 27.4355 27.4922 26.9848V1.68483C27.4922 1.17869 27.9151 0.776548 28.4421 0.776548H33.0389C33.5173 0.797334 33.8987 1.16482 33.9333 1.62242V4.92967H34.0233C35.223 1.73336 37.4763 0.242676 40.513 0.242676C43.5987 0.242676 45.526 1.73336 46.9127 4.92967C48.1053 1.73336 50.8163 0.242676 53.7213 0.242676C55.7873 0.242676 58.0477 1.09548 59.4273 3.0091C60.9873 5.13767 60.6687 8.22997 60.6687 10.9409L60.6617 26.9085C60.6617 27.4147 60.2387 27.8238 59.7117 27.8238H54.789C54.2967 27.7891 53.9017 27.3939 53.9017 26.9085V13.4993C53.9017 12.4316 53.9987 9.76917 53.763 8.7569C53.3953 7.0582 52.293 6.5798 50.8647 6.5798C49.6723 6.5798 48.424 7.37714 47.918 8.6529C47.412 9.92864 47.4603 12.0641 47.4603 13.4993V26.9085C47.4603 27.4147 47.0373 27.8238 46.5107 27.8238H41.5877C41.0887 27.7891 40.7003 27.3939 40.7003 26.9085L40.6933 13.4993C40.6933 10.6774 41.158 6.52434 37.6567 6.52434C34.1137 6.52434 34.2523 10.5734 34.2523 13.4993V26.9085C34.2523 27.4147 33.8293 27.8238 33.3024 27.8238Z" fill="black"/>
<path fill-rule="evenodd" clip-rule="evenodd" d="M124.414 0.242676C131.729 0.242676 135.688 6.52434 135.688 14.5116C135.688 22.2285 131.313 28.3507 124.414 28.3507C117.231 28.3507 113.32 22.069 113.32 14.2412C113.32 6.36487 117.279 0.242676 124.414 0.242676ZM124.456 5.40807C120.822 5.40807 120.594 10.3585 120.594 13.4439C120.594 16.5362 120.545 23.1368 124.414 23.1368C128.234 23.1368 128.415 17.8119 128.415 14.5671C128.415 12.4316 128.324 9.88011 127.68 7.85554C127.125 6.09447 126.022 5.40807 124.456 5.40807Z" fill="black"/>
<path fill-rule="evenodd" clip-rule="evenodd" d="M145.171 27.8238H140.262C139.769 27.7891 139.374 27.3939 139.374 26.9085L139.367 1.60162C139.409 1.13708 139.818 0.776548 140.317 0.776548H144.886C145.316 0.797334 145.67 1.08855 145.767 1.48376V5.3526H145.857C147.237 1.89283 149.171 0.242676 152.575 0.242676C154.787 0.242676 156.944 1.04002 158.33 3.22404C159.62 5.2486 159.62 8.6529 159.62 11.1004V27.0264C159.564 27.4702 159.155 27.8238 158.67 27.8238H153.726C153.276 27.7891 152.901 27.4563 152.853 27.0264V13.2844C152.853 10.518 153.172 6.46887 149.767 6.46887C148.568 6.46887 147.466 7.27314 146.918 8.49344C146.224 10.0396 146.134 11.5788 146.134 13.2844V26.9085C146.127 27.4147 145.698 27.8238 145.171 27.8238Z" fill="black"/>
<path fill-rule="evenodd" clip-rule="evenodd" d="M79.4902 15.7388C79.4902 17.6594 79.5388 19.261 78.5682 20.9666C77.7848 22.3533 76.5365 23.2061 75.1568 23.2061C73.2642 23.2061 72.1548 21.764 72.1548 19.6354C72.1548 15.4338 75.9195 14.6711 79.4902 14.6711V15.7388ZM84.4615 27.7544C84.1358 28.0456 83.6642 28.0664 83.2968 27.8723C81.6605 26.5133 81.3622 25.8824 80.4678 24.5859C77.7638 27.3454 75.8432 28.1704 72.3418 28.1704C68.1888 28.1704 64.9648 25.612 64.9648 20.4882C64.9648 16.4876 67.1282 13.7628 70.2202 12.4316C72.8965 11.2529 76.6338 11.0449 79.4902 10.719V10.0812C79.4902 8.90943 79.5805 7.52273 78.8872 6.51047C78.2908 5.6022 77.1398 5.2278 76.1205 5.2278C74.2418 5.2278 72.5708 6.19153 72.1618 8.18837C72.0785 8.6321 71.7525 9.0689 71.3018 9.0897L66.5248 8.57663C66.1228 8.4865 65.6722 8.16063 65.7898 7.54353C66.8855 1.74722 72.1272 0 76.8138 0C79.2128 0 82.3468 0.637876 84.2398 2.45443C86.6385 4.6939 86.4098 7.6822 86.4098 10.934V18.6162C86.4098 20.925 87.3665 21.9373 88.2678 23.1853C88.5798 23.629 88.6492 24.1629 88.2472 24.4957C87.2418 25.3347 85.4528 26.8947 84.4685 27.7683L84.4615 27.7544Z" fill="black"/>
<path fill-rule="evenodd" clip-rule="evenodd" d="M14.8653 15.7388C14.8653 17.6594 14.9138 19.261 13.9432 20.9666C13.1597 22.3533 11.9186 23.2061 10.5319 23.2061C8.63911 23.2061 7.53671 21.764 7.53671 19.6354C7.53671 15.4338 11.3015 14.6711 14.8653 14.6711V15.7388ZM19.8366 27.7544C19.5107 28.0456 19.0392 28.0664 18.6718 27.8723C17.0355 26.5133 16.7443 25.8824 15.8429 24.5859C13.1389 27.3454 11.2253 28.1704 7.71698 28.1704C3.5708 28.1704 0.339844 25.612 0.339844 20.4882C0.339844 16.4876 2.51 13.7628 5.59538 12.4316C8.27164 11.2529 12.0088 11.0449 14.8653 10.7191V10.0812C14.8653 8.90943 14.9555 7.52273 14.269 6.51046C13.6658 5.60219 12.5149 5.22779 11.5026 5.22779C9.62368 5.22779 7.94578 6.19153 7.53671 8.18836C7.45351 8.63209 7.12764 9.06889 6.68391 9.08969L1.89986 8.57663C1.49772 8.48649 1.05398 8.16063 1.16492 7.54356C2.26733 1.74722 7.50204 0 12.189 0C14.588 0 17.7219 0.637874 19.6147 2.45442C22.0137 4.69393 21.7848 7.68223 21.7848 10.934V18.6162C21.7848 20.925 22.7417 21.9373 23.643 23.1853C23.9619 23.629 24.0313 24.1629 23.6291 24.4957C22.6238 25.3347 20.835 26.8947 19.8504 27.7683L19.8366 27.7544Z" fill="black"/>
</g>
</svg>
