<svg width="166" height="48" viewBox="0 0 166 48" fill="none" xmlns="http://www.w3.org/2000/svg">
<path fill-rule="evenodd" clip-rule="evenodd" d="M24.0117 0.121713C23.7835 0.252893 23.1991 0.827374 22.778 1.33482C22.1673 2.0705 21.9687 2.30531 21.7915 2.50147C21.6891 2.61455 21.3918 2.96944 21.1302 3.28978C20.8687 3.61013 20.5418 3.99586 20.404 4.14636C20.2658 4.29728 20.031 4.57486 19.8818 4.7632C19.7321 4.95195 19.5285 5.19252 19.429 5.2982C19.3299 5.40348 19.2485 5.50382 19.2485 5.52068C19.2485 5.53754 19.1942 5.60621 19.1284 5.67324C19.0626 5.74027 18.8697 5.96151 18.6999 6.16465C18.5305 6.3678 18.3376 6.59068 18.2718 6.65977C18.2056 6.72885 18.1517 6.79753 18.1517 6.81274C18.1517 6.82796 18.06 6.94392 17.9482 7.07058L17.7442 7.30087L16.7314 7.21245C16.1746 7.16393 15.1712 7.0788 14.5021 7.02329C13.8331 6.96777 12.738 6.87648 12.0689 6.82056C8.46206 6.51954 8.49578 6.51995 7.95215 6.79958C7.7198 6.91925 7.59397 7.04508 7.4743 7.27743C7.19467 7.82106 7.19426 7.78734 7.49528 11.3942C7.5512 12.0633 7.64249 13.1583 7.69842 13.8274C7.75393 14.4965 7.83988 15.4994 7.88923 16.0567C7.97764 17.0493 7.97682 17.0707 7.83947 17.1653C7.76257 17.2179 7.58862 17.3639 7.45292 17.4889C7.19837 17.7246 7.13299 17.7801 6.49929 18.2991C6.29244 18.4685 6.00006 18.7197 5.84914 18.8575C5.69864 18.9953 5.42106 19.2305 5.23231 19.3798C5.04397 19.529 4.8034 19.7326 4.69772 19.8321C4.59203 19.9316 4.47648 20.013 4.4407 20.013C4.40492 20.013 4.37532 20.0361 4.37532 20.0644C4.3749 20.0924 4.12858 20.3161 3.82756 20.5612C3.52655 20.8063 3.27981 21.03 3.27981 21.058C3.2794 21.0863 3.2354 21.1094 3.18194 21.1094C3.12848 21.1094 3.07461 21.1373 3.06228 21.1719C3.04953 21.206 2.80855 21.4268 2.52686 21.662C2.24476 21.8977 1.9787 22.1243 1.9347 22.1654C1.89111 22.2065 1.64972 22.4224 1.39846 22.6449C0.391374 23.5356 0.382738 24.4539 1.37338 25.3433C1.53005 25.484 1.70647 25.6476 1.7661 25.7073C1.82531 25.7669 2.1362 26.0284 2.45654 26.2887C2.77689 26.5486 3.05446 26.7793 3.07338 26.8011C3.0923 26.8229 3.43156 27.1124 3.82756 27.4443C4.22316 27.7761 4.55749 28.0747 4.56982 28.108C4.58257 28.1417 4.63398 28.1689 4.68414 28.1689C4.73431 28.1689 4.78572 28.196 4.79847 28.2297C4.8108 28.263 5.0526 28.4814 5.33511 28.715C5.61804 28.9485 6.03132 29.2989 6.25379 29.4938C6.47626 29.6887 6.74109 29.9096 6.84225 29.9852C6.94341 30.0605 7.24155 30.3146 7.50432 30.5498L7.98216 30.9775L7.89581 31.7148C7.8481 32.1207 7.80863 32.622 7.80781 32.8293C7.80698 33.0365 7.75969 33.6842 7.70253 34.2685C7.64537 34.8529 7.55326 35.8863 7.49733 36.5648C7.44182 37.2433 7.36409 38.1838 7.32462 38.6551C7.12188 41.0829 7.54339 41.5735 9.67764 41.3946C10.1353 41.3564 11.0651 41.2791 11.7436 41.2228C12.8864 41.1278 15.0573 40.9402 16.9004 40.7774C17.6513 40.7112 17.9461 40.7552 17.9461 40.9333C17.9461 40.962 18 41.0414 18.0662 41.1097C18.132 41.1779 18.3249 41.3992 18.4943 41.6007C18.6641 41.8026 18.8644 42.037 18.9401 42.1213C19.1259 42.3289 19.501 42.7792 19.9356 43.3155C20.1343 43.5606 20.3329 43.7921 20.3777 43.8295C20.4225 43.8673 20.6705 44.1605 20.9296 44.4809C21.3679 45.0233 21.5945 45.2893 21.8561 45.5673C21.914 45.6294 22.0991 45.8498 22.2669 46.0571C22.6168 46.4897 22.5712 46.4367 23.1551 47.0901C24.1129 48.1626 25.3342 48.3378 25.9013 47.4841C25.9469 47.4154 26.4104 46.8701 26.6127 46.6464C26.69 46.5609 26.8919 46.326 27.0617 46.1241C27.2312 45.9226 27.424 45.7014 27.4898 45.6331C27.556 45.5649 27.6099 45.4933 27.6099 45.4744C27.6099 45.4555 27.6638 45.3843 27.73 45.3161C27.7958 45.2478 27.9886 45.0262 28.1581 44.8243C28.3279 44.6219 28.5208 44.4089 28.5866 44.3505C28.6524 44.2925 28.7066 44.2054 28.7066 44.1572C28.7066 44.1087 28.7297 44.0692 28.758 44.0692C28.786 44.0692 28.9637 43.8776 29.152 43.6436C29.3403 43.4101 29.5719 43.1374 29.666 43.0379C29.8416 42.8524 29.8893 42.7961 30.4198 42.1492C30.5892 41.9428 30.8137 41.6809 30.919 41.5678C31.0243 41.4547 31.225 41.2129 31.3648 41.0303L31.6193 40.698L31.9619 40.7387C32.1506 40.7609 32.5668 40.7963 32.8871 40.8169C33.2075 40.837 34.1019 40.9127 34.875 40.9847C35.6477 41.0566 36.8814 41.1644 37.6162 41.224C38.3515 41.284 39.3084 41.3638 39.7427 41.4016C42.0048 41.5982 42.3095 41.064 41.9744 37.4901C41.916 36.8679 41.821 35.7884 41.7634 35.091C41.7058 34.3936 41.5948 33.1796 41.5167 32.3929C41.4386 31.6063 41.4003 30.9413 41.4316 30.915C41.4632 30.8887 41.6581 30.7304 41.865 30.5634C42.0718 30.396 42.3034 30.1958 42.379 30.1181C42.4547 30.0403 42.7327 29.8055 42.9967 29.5958C43.2603 29.3861 43.5547 29.141 43.6509 29.0513C43.7468 28.9617 43.9935 28.7499 44.1991 28.5805C44.4047 28.4111 44.6074 28.2412 44.6498 28.2034C44.6922 28.1656 44.8743 28.0114 45.0549 27.8604C45.235 27.7095 45.4163 27.5553 45.4574 27.5175C45.4986 27.4796 45.7021 27.3115 45.9094 27.1437C46.1166 26.9759 46.3358 26.7908 46.3963 26.7329C46.5871 26.5495 46.8902 26.2941 47.28 25.989C49.2308 24.4625 49.2452 23.6516 47.3487 22.0774C47.0662 21.8426 46.7577 21.5814 46.6632 21.4963C46.569 21.4116 46.231 21.1279 45.9123 20.8659C45.5936 20.604 45.2543 20.3165 45.1585 20.2269C45.0627 20.1372 44.7839 19.902 44.5388 19.7046C44.2937 19.5068 44.0145 19.2716 43.9186 19.182C43.7665 19.0401 43.4363 18.7617 42.8318 18.2653C42.7397 18.1897 42.6081 18.0741 42.5394 18.0083C42.4703 17.9421 42.4004 17.8882 42.384 17.8882C42.3675 17.8882 42.2211 17.7686 42.0587 17.6226C41.8958 17.4762 41.675 17.2825 41.5673 17.1916L41.3715 17.0263L41.513 15.6582C41.5903 14.9056 41.7026 13.6732 41.7622 12.9194C41.8218 12.1652 41.918 11.0549 41.976 10.4521C42.3256 6.82261 42.0414 6.40316 39.3985 6.64537C39.0025 6.68156 38.0772 6.75928 37.3423 6.81809C36.0157 6.92377 34.6102 7.04303 32.6606 7.21533L31.6461 7.30498L31.3261 6.92501C31.1501 6.7161 30.9383 6.46814 30.8557 6.37397C30.7726 6.2798 30.5769 6.04828 30.4198 5.85994C30.0443 5.40882 29.5805 4.86231 29.4945 4.76896C29.4567 4.72825 29.2869 4.52551 29.1174 4.31908C28.948 4.11223 28.7478 3.86797 28.6721 3.77585C28.5968 3.68415 28.4887 3.55831 28.4323 3.49663C28.3756 3.43454 28.1609 3.18533 27.9545 2.94271C27.7485 2.70009 27.5112 2.42457 27.4277 2.3304C27.3442 2.23623 27.0856 1.92781 26.8528 1.64489C26.6197 1.36238 26.4017 1.12058 26.3684 1.10783C26.3351 1.09549 26.3076 1.05889 26.3076 1.02682C26.3076 0.932647 25.6595 0.294838 25.4082 0.141452C25.1051 -0.043188 24.3181 -0.0542911 24.0117 0.121713ZM25.1504 6.56231C25.3819 6.85469 25.5982 7.10389 25.6311 7.11664C25.664 7.12897 25.6907 7.16763 25.6907 7.20217C25.6907 7.23671 25.745 7.32143 25.8108 7.39051C26.0999 7.69317 26.3762 8.03696 26.3762 8.09412C26.3762 8.12825 26.4013 8.1558 26.4317 8.1558C26.4622 8.1558 26.6378 8.36141 26.822 8.61226C27.4997 9.53546 27.665 9.6432 27.9956 9.3796C28.0384 9.34547 28.3624 9.16865 28.7153 8.98647C29.0685 8.8043 29.527 8.55469 29.7339 8.43173C29.9411 8.30919 30.1722 8.18089 30.2479 8.14717C30.3236 8.11345 30.6324 7.94896 30.9338 7.782C31.2357 7.61504 31.5005 7.47646 31.5227 7.4744C31.5618 7.4707 31.6325 7.67755 31.8365 8.39596C32.04 9.11231 32.1556 9.50462 32.2707 9.86937C32.3361 10.0766 32.4356 10.4007 32.4915 10.589C32.5479 10.7774 32.649 11.1076 32.7165 11.323L32.839 11.7141L33.3942 11.6779C33.6997 11.6578 34.2721 11.5965 34.6669 11.5418C35.0613 11.4867 35.755 11.4123 36.209 11.3757C36.6626 11.3395 37.1211 11.291 37.2276 11.2684L37.4213 11.2268L37.3798 11.7988C37.3419 12.3186 37.3004 12.7373 37.0709 14.9069C36.9628 15.9251 36.9377 15.8482 37.4279 15.9941C37.6635 16.0641 38.0258 16.1759 38.2331 16.2417C38.6842 16.3856 39.1118 16.5119 40.1181 16.7989C40.5326 16.9169 40.9562 17.044 41.059 17.0818L41.2461 17.1501L40.9624 17.6732C40.8065 17.961 40.5774 18.3817 40.4541 18.6079C40.3303 18.8341 40.1494 19.1733 40.0511 19.3617C39.9532 19.5504 39.8031 19.828 39.718 19.9785C39.6329 20.1294 39.4618 20.437 39.3376 20.6624L39.1118 21.0719L39.3064 21.2348C39.4137 21.3244 39.5667 21.4527 39.6469 21.5202C39.727 21.5872 40.0034 21.8076 40.2612 22.0099C40.5186 22.2119 40.8077 22.4504 40.9035 22.5392C40.9994 22.628 41.2087 22.795 41.3686 22.9105C41.529 23.0261 41.6602 23.1457 41.6602 23.1774C41.6602 23.2087 41.7063 23.2342 41.763 23.2342C41.8193 23.2342 41.8658 23.2588 41.8658 23.2893C41.8658 23.3197 42.0496 23.4813 42.2742 23.6491C42.7672 24.0167 42.7611 23.9727 42.3618 24.277C42.1825 24.414 41.9588 24.592 41.865 24.6726C41.4817 25.0012 41.3995 25.069 40.906 25.4626C40.6235 25.6883 40.3611 25.9067 40.3237 25.9478C40.2859 25.9894 40.0605 26.1695 39.8228 26.3488C39.072 26.9154 39.0863 26.8813 39.375 27.4089C39.5111 27.6573 39.7032 28.0146 39.8019 28.203C39.9002 28.3917 39.998 28.5612 40.019 28.5801C40.04 28.599 40.1189 28.7376 40.1942 28.8885C40.4553 29.4107 41.0615 30.5338 41.1548 30.6687C41.2934 30.8677 41.2749 30.8994 40.992 30.9508C40.8505 30.9763 40.6268 31.0359 40.4948 31.0836C40.3632 31.1309 40.0083 31.2366 39.7069 31.3184C39.405 31.4002 39.0506 31.5084 38.9186 31.5586C38.7866 31.6087 38.4781 31.7029 38.2331 31.7679C37.988 31.8329 37.6713 31.9287 37.5295 31.9805C37.3872 32.0327 37.2099 32.0755 37.1351 32.0755C36.9751 32.0755 36.9702 32.1474 37.066 33.0563C37.2412 34.7151 37.3415 35.7206 37.381 36.2153L37.4242 36.7569L37.0578 36.71C36.8563 36.6841 36.3517 36.6347 35.9372 36.6006C35.5227 36.566 34.9519 36.5072 34.6694 36.4698C34.3865 36.4324 33.8585 36.3818 33.4958 36.3576L32.8362 36.3131L32.7514 36.5418C32.7046 36.6676 32.6421 36.8782 32.6124 37.0102C32.5824 37.1422 32.5261 37.3424 32.487 37.4555C32.4475 37.5686 32.3048 38.0312 32.1691 38.4836C32.0339 38.9359 31.8813 39.445 31.8303 39.6145C31.7793 39.7843 31.7016 40.0557 31.6576 40.2177C31.5646 40.5595 31.526 40.559 30.8997 40.2083C30.6924 40.0919 30.4149 39.9397 30.2829 39.8694C30.1509 39.7995 29.8272 39.6231 29.5632 39.4783C29.2992 39.3332 28.8522 39.0963 28.5693 38.952C28.2868 38.8076 28.0392 38.6682 28.0199 38.6423C27.7744 38.3179 27.6009 38.4174 26.9199 39.2719C26.6045 39.6675 26.3285 40.0068 26.3063 40.0257C26.2845 40.0446 26.083 40.2905 25.8585 40.5718C25.6344 40.8531 25.4045 41.1315 25.3482 41.1907C25.2914 41.2499 25.1372 41.4428 25.0056 41.6196C24.6791 42.0563 24.6993 42.0641 24.0804 41.2594C23.8916 41.0147 23.6913 40.7671 23.6346 40.71C23.5783 40.6528 23.3624 40.3904 23.1555 40.1273C22.9483 39.8641 22.7324 39.5968 22.6756 39.533C22.6189 39.4693 22.4182 39.2172 22.2299 38.9725C22.0411 38.7279 21.847 38.5107 21.7981 38.4898C21.722 38.4569 21.0616 38.7472 20.9616 38.8574C20.9431 38.878 20.7577 38.9841 20.5504 39.093C20.3432 39.202 19.9422 39.4158 19.6597 39.5684C19.3768 39.7214 19.0223 39.9081 18.8714 39.9833C18.7205 40.059 18.5819 40.1379 18.563 40.1589C18.5441 40.1799 18.3672 40.2798 18.1702 40.3814L17.8121 40.5652L17.7335 40.2786C17.6899 40.1207 17.6163 39.8682 17.5694 39.7173C17.4749 39.4142 17.3659 39.0424 17.0562 37.9696C16.9419 37.574 16.805 37.1113 16.7519 36.9415C16.6989 36.7721 16.636 36.5455 16.6125 36.4386C16.5837 36.3074 16.5377 36.256 16.4723 36.2811C16.4184 36.3016 16.1347 36.3366 15.8411 36.3584C15.5475 36.3806 14.9064 36.4419 14.4166 36.4953C12.7717 36.6742 11.9731 36.7486 11.9501 36.7252C11.9373 36.7124 11.9719 36.3008 12.0266 35.8106C12.4291 32.2202 12.4386 32.0755 12.2725 32.0755C12.2021 32.0755 12.0085 32.0327 11.8415 31.9809C11.6745 31.9287 11.353 31.8312 11.1268 31.7638C10.9006 31.6967 10.5457 31.5882 10.3385 31.5228C10.1312 31.4578 9.77634 31.3505 9.55016 31.2843C9.32399 31.2185 9.02297 31.1227 8.88069 31.0717C8.73841 31.0207 8.56693 30.9787 8.49948 30.9787C8.25028 30.9787 8.13679 30.827 8.24329 30.6362C8.29593 30.542 8.42094 30.3105 8.52128 30.1222C8.62121 29.9338 8.77336 29.6562 8.85931 29.5053C8.94484 29.3544 9.15456 28.9691 9.32522 28.6488C9.90834 27.5532 9.99552 27.3949 10.0588 27.3188C10.2805 27.052 10.2233 26.8895 9.7788 26.524C9.53988 26.3278 9.26765 26.1012 9.17348 26.0206C9.07931 25.9396 8.78611 25.706 8.5221 25.5012C8.25851 25.296 8.00231 25.0884 7.95297 25.039C7.90362 24.9901 7.67251 24.8046 7.43894 24.6274C6.76741 24.1171 6.6535 23.9908 6.77933 23.8958C7.18316 23.5907 7.78066 23.124 7.84276 23.0651C7.88347 23.0261 8.05043 22.8863 8.21368 22.7543C8.37694 22.6223 8.5439 22.4833 8.58502 22.445C8.62573 22.4068 8.79803 22.2682 8.96787 22.137C9.13729 22.0062 9.33797 21.8418 9.41323 21.7723C9.48848 21.7024 9.68093 21.551 9.84049 21.4351C10.2246 21.1571 10.2447 21.0538 10.0017 20.6192C9.88901 20.4177 9.71876 20.0986 9.62295 19.9102C9.52755 19.7215 9.29397 19.2897 9.10398 18.9504C8.91441 18.6112 8.71168 18.2411 8.6541 18.128C8.59612 18.0149 8.46001 17.7546 8.35144 17.549C8.12691 17.1242 8.13185 17.0929 8.43739 17.0325C8.55952 17.0082 8.79803 16.9445 8.96787 16.8906C9.13729 16.8367 9.59992 16.6994 9.99593 16.5855C10.3915 16.472 10.9006 16.3202 11.1268 16.2487C11.353 16.1771 11.7313 16.0616 11.9678 15.9925L12.3979 15.8663L12.3596 15.3868C12.3132 14.8094 12.1499 13.227 12.02 12.0974C11.9678 11.6454 11.9303 11.2708 11.9373 11.2651C11.955 11.249 13.1003 11.3642 14.4166 11.5134C15.0573 11.5866 15.8045 11.6627 16.0771 11.6833L16.5726 11.7207L16.6146 11.532C16.638 11.4279 16.6964 11.2194 16.7445 11.0689C16.7926 10.918 16.8811 10.6248 16.9411 10.4175C17.1442 9.71475 17.4724 8.6028 17.5682 8.29315C17.6204 8.12331 17.6829 7.8848 17.7072 7.76267C17.7689 7.45096 17.8215 7.4415 18.2332 7.66932C18.4334 7.78035 18.8286 7.98761 19.1111 8.13031C19.3941 8.273 19.6679 8.42186 19.7202 8.46134C19.8382 8.55058 20.8736 9.11478 21.3572 9.3537C21.7804 9.5626 21.8083 9.55273 22.2048 9.04692C22.3672 8.83967 22.5395 8.64516 22.5876 8.61514C22.6357 8.58512 22.6752 8.51562 22.6752 8.46093C22.6752 8.40624 22.6999 8.36141 22.7295 8.36141C22.7595 8.36141 22.896 8.21502 23.0326 8.03613C23.1691 7.85684 23.3607 7.61792 23.4586 7.50483C23.5565 7.39175 23.8599 7.01589 24.1326 6.66964C24.7317 5.90887 24.6405 5.91874 25.1504 6.56231ZM114.479 10.7091C114.348 10.8588 114.343 10.9961 114.325 15.3362L114.307 19.8095L113.949 19.5414C113.569 19.258 112.702 18.8221 112.356 18.7424C112.243 18.716 112.012 18.6548 111.842 18.6058C111.109 18.3949 109.954 18.2818 108.885 18.3163C107.719 18.3542 107.117 18.4586 106.12 18.7966C105.11 19.1388 103.695 20.1113 103.195 20.8071C103.075 20.9737 102.952 21.1094 102.921 21.1094C102.889 21.1094 102.864 21.1558 102.864 21.2122C102.864 21.2689 102.841 21.3154 102.813 21.3154C102.765 21.3158 102.634 21.5111 102.4 21.9318C102.258 22.1876 101.791 23.3119 101.745 23.5084C101.723 23.6026 101.642 23.911 101.565 24.1935C101.032 26.1596 101.087 30.2139 101.672 31.9065C101.724 32.0586 101.768 32.228 101.77 32.2836C101.771 32.3387 101.832 32.5073 101.905 32.6582C101.977 32.8087 102.038 32.9547 102.039 32.9822C102.047 33.1467 102.73 34.4047 102.813 34.4055C102.841 34.4055 102.864 34.4413 102.864 34.4844C102.864 35.003 105.455 37.0102 106.124 37.0102C106.183 37.0102 106.286 37.0394 106.353 37.0751C107.01 37.4267 109.626 37.5423 111.054 37.2832C112.442 37.0311 113.078 36.7856 113.84 36.2075L114.295 35.8616L114.322 36.2819C114.37 37.0221 114.34 37.0102 116.175 37.0102C117.645 37.0102 117.745 37.0019 117.874 36.8732C118.01 36.7371 118.011 36.6446 118.011 23.6454V10.5549H116.313C114.637 10.5549 114.613 10.5569 114.479 10.7091ZM139.804 10.7621C139.58 10.9858 139.629 33.4173 139.854 34.1735C140.521 36.4094 141.869 37.2158 144.94 37.2158C146.541 37.2158 146.414 37.3572 146.438 35.5466C146.462 33.729 146.52 33.8343 145.458 33.7862C144.51 33.743 144.134 33.6427 143.821 33.3482C143.336 32.8918 143.37 33.7681 143.37 21.588V10.6231H141.656C140.026 10.6231 139.936 10.6301 139.804 10.7621ZM68.9597 11.5698C68.6526 11.6948 68.1842 12.0715 68.1842 12.1936C68.1842 12.2347 68.157 12.268 68.1237 12.268C68.0476 12.268 67.7084 12.9712 67.3963 13.776C67.3305 13.9454 67.2511 14.1461 67.2199 14.2214C67.189 14.297 67.0969 14.5281 67.0155 14.7354C66.9341 14.9426 66.8415 15.1742 66.8099 15.2494C66.7782 15.3251 66.6853 15.5562 66.6038 15.7634C66.5224 15.9707 66.3476 16.4025 66.2148 16.7232C66.0824 17.0436 65.9488 17.3672 65.9175 17.4429C65.8867 17.5181 65.7945 17.7497 65.7131 17.9569C65.6321 18.1642 65.5396 18.3953 65.5075 18.4709C65.4759 18.5462 65.3841 18.7777 65.304 18.985C65.2238 19.1922 65.1185 19.4542 65.07 19.5673C64.991 19.7515 64.7657 20.2943 64.6147 20.664C64.5839 20.7393 64.4918 20.9708 64.41 21.178C64.3281 21.3853 64.2183 21.6522 64.1665 21.771C64.1143 21.8899 64.0719 22.0182 64.0719 22.0568C64.0719 22.0951 64.0263 22.2139 63.9708 22.3204C63.8704 22.5129 63.8149 22.6445 63.5279 23.3711C63.446 23.5784 63.3515 23.8099 63.3182 23.8851C63.2359 24.0702 62.7873 25.1735 62.6215 25.5987C62.5483 25.787 62.4624 26.0029 62.4316 26.0786C62.4003 26.1539 62.3222 26.3541 62.2576 26.524C62.193 26.6934 62.1001 26.9249 62.0516 27.038C61.8842 27.4254 61.48 28.4086 61.3332 28.7857C61.2522 28.9929 61.1605 29.2245 61.1292 29.2997C61.098 29.375 61.0186 29.5756 60.9528 29.7451C60.887 29.9149 60.7932 30.146 60.7447 30.2591C60.6037 30.586 60.1916 31.5952 60.0308 32.0068C59.9498 32.2141 59.8581 32.4456 59.8269 32.5208C59.796 32.5965 59.7167 32.7968 59.6509 32.9666C59.5851 33.136 59.4917 33.3675 59.4432 33.4806C59.3951 33.5937 59.3026 33.8248 59.238 33.9947C59.1734 34.1641 59.0661 34.4264 58.9995 34.577C58.9329 34.7279 58.7791 35.098 58.6578 35.3994C58.5368 35.7012 58.3905 36.0623 58.3329 36.2017C58.2753 36.3415 58.2243 36.573 58.2198 36.7157L58.212 36.976L59.891 36.9954C60.8146 37.0056 61.6342 36.9987 61.7127 36.9797C61.8793 36.939 62.0022 36.7022 62.5323 35.3994C62.6705 35.0601 62.8095 34.7209 62.8415 34.6456C62.8732 34.5704 62.9657 34.3389 63.0472 34.1316C63.1286 33.9243 63.2211 33.6928 63.2532 33.6176C63.2857 33.5423 63.3918 33.28 63.4892 33.0349C63.5867 32.7898 63.6944 32.5278 63.7277 32.4526C63.9975 31.8485 64.2775 31.1445 64.2775 31.0692C64.2775 30.994 65.2011 30.9812 69.5593 30.9956L74.8407 31.0133L74.9332 31.1844C74.9838 31.2789 75.1388 31.6334 75.2778 31.9727C75.4168 32.3119 75.5702 32.682 75.6183 32.7951C75.6664 32.9082 75.7597 33.1393 75.8255 33.3092C76.0192 33.8084 76.0468 33.8766 76.1874 34.2003C76.2614 34.3697 76.3906 34.6781 76.4749 34.8854C76.5596 35.0926 76.6677 35.355 76.7154 35.4681C76.7631 35.5812 76.9042 35.9204 77.0288 36.2219C77.3853 37.0863 77.1814 37.0151 79.2473 36.9941C81.3993 36.9723 81.3195 37.0694 80.5559 35.3994C80.504 35.2863 80.3519 34.9129 80.2174 34.5696C80.0829 34.2258 79.9094 33.794 79.8313 33.6098C79.6499 33.1813 79.6039 33.0682 79.4579 32.6923C79.3921 32.5225 79.2987 32.2914 79.2506 32.1783C79.2021 32.0652 79.11 31.8337 79.0454 31.6643C78.9809 31.4944 78.9023 31.2942 78.8707 31.2189C78.8394 31.1432 78.7321 30.8813 78.6326 30.6362C78.533 30.3911 78.4126 30.0983 78.3644 29.9852C78.3167 29.8721 78.2234 29.6406 78.1568 29.4712C78.0906 29.3014 77.9968 29.0703 77.9483 28.9572C77.9002 28.8441 77.8076 28.6126 77.7431 28.4431C77.6785 28.2733 77.6004 28.073 77.5691 27.9974C77.5383 27.9221 77.4005 27.5829 77.2632 27.2436C76.9494 26.4693 76.757 25.9996 76.6455 25.7356C76.5974 25.6226 76.5053 25.3914 76.4403 25.2216C76.3758 25.0522 76.2804 24.8133 76.2285 24.6907C76.1767 24.5682 76.092 24.3675 76.0402 24.2449C75.9884 24.1224 75.8926 23.8835 75.8272 23.7141C75.689 23.3542 75.4818 22.848 75.2946 22.4117C75.1466 22.0659 75.1047 21.9614 74.9369 21.5206C74.8723 21.3512 74.7798 21.1196 74.7317 21.0066C74.6832 20.8935 74.5972 20.6776 74.5405 20.5271C74.4335 20.2441 73.9985 19.177 73.8414 18.8135C73.7929 18.7004 73.6999 18.4693 73.6349 18.2995C73.5704 18.1296 73.4779 17.8985 73.4293 17.7854C73.3812 17.6724 73.287 17.4408 73.2208 17.2714C73.1546 17.1016 73.0617 16.8705 73.0148 16.7574C72.9679 16.6443 72.8458 16.3379 72.743 16.0768C72.6402 15.8157 72.5316 15.5533 72.502 15.4941C72.472 15.4349 72.3943 15.2478 72.3289 15.0784C72.2639 14.9085 72.171 14.6774 72.1225 14.5643C72.0744 14.4512 71.9818 14.2197 71.9173 14.0503C71.8527 13.8805 71.7742 13.6802 71.7429 13.6045C71.7112 13.5293 71.6039 13.2677 71.5036 13.0235C70.9723 11.7265 69.9759 11.1569 68.9597 11.5698ZM69.7842 18.4195C69.8537 18.5984 69.952 18.8374 70.0026 18.9504C70.0536 19.0635 70.2378 19.5109 70.4126 19.9444C70.5878 20.3778 70.8538 21.0255 71.0043 21.3837C71.351 22.2094 71.344 22.1917 71.6422 22.9257C71.9962 23.7975 72.4132 24.8059 72.6126 25.273C72.8376 25.8006 72.9026 25.9585 73.0144 26.2497C73.0794 26.4195 73.1641 26.6177 73.2028 26.6905C73.241 26.7633 73.2965 26.9023 73.3257 26.9989C73.3549 27.096 73.4006 27.2292 73.4273 27.295C73.4733 27.4085 73.2657 27.4151 69.6304 27.4151C65.5009 27.4151 65.6625 27.4291 65.8513 27.0886C65.8875 27.0232 66.0298 26.6917 66.1675 26.3525C66.3053 26.0132 66.5656 25.3812 66.7461 24.9477C66.9266 24.5139 67.187 23.8818 67.3247 23.5426C67.4625 23.2033 67.6002 22.8641 67.6315 22.7888C67.6623 22.7131 67.7421 22.5129 67.8079 22.343C67.8741 22.1736 67.9909 21.896 68.0678 21.7262C68.1447 21.5568 68.2315 21.3561 68.2607 21.2808C68.345 21.0621 68.8064 19.9316 68.9108 19.6874C69.1172 19.2058 69.1995 19.0072 69.3146 18.7107C69.5975 17.9808 69.6103 17.973 69.7842 18.4195ZM154.644 18.2719C153.761 18.3398 152.231 18.716 151.423 19.0648C150.83 19.3201 150.144 19.6627 150.086 19.7322C150.067 19.7548 149.971 19.8152 149.871 19.8662C149.589 20.0118 149.213 20.3737 149.16 20.5509C149.114 20.7088 149.295 21.3142 149.389 21.3158C149.415 21.3162 149.496 21.4474 149.571 21.6074C149.646 21.7669 149.726 21.9133 149.75 21.9318C149.773 21.9507 149.922 22.2032 150.08 22.4927C150.492 23.2473 150.661 23.2708 151.546 22.6971C152.011 22.3961 152.173 22.3106 152.759 22.0572C153.66 21.667 154.476 21.5251 155.809 21.5259C156.412 21.5263 157.029 21.5531 157.18 21.5852C157.331 21.6176 157.615 21.6769 157.812 21.7172C159.325 22.0272 160.293 23.3008 160.217 24.8791L160.196 25.3244L156.974 25.3647C153.037 25.4141 152.504 25.4959 150.851 26.3105C147.453 27.9842 146.941 33.4264 149.94 35.9932C150.152 36.175 150.348 36.3238 150.374 36.3242C150.4 36.3247 150.559 36.4172 150.727 36.5303C150.894 36.6434 151.055 36.7359 151.082 36.7359C151.11 36.7359 151.26 36.7939 151.415 36.8642C153.046 37.6073 156.198 37.6307 157.934 36.9127C158.596 36.6388 159.544 36.0853 159.544 35.9727C159.544 35.9402 159.578 35.9134 159.618 35.9134C159.659 35.9134 159.802 35.7901 159.938 35.6396C160.205 35.341 160.298 35.3007 160.298 35.4833C160.298 36.8247 161.066 37.2191 163.674 37.217L165.164 37.2158V35.8193C165.164 34.2167 165.189 34.2809 164.548 34.2052C163.808 34.118 163.868 34.579 163.839 28.7516C163.812 23.286 163.783 22.9093 163.295 21.6579C162.285 19.0668 159.334 17.9117 154.644 18.2719ZM127.949 18.332C127.892 18.3459 127.599 18.392 127.298 18.4348C126.161 18.596 124.669 19.1182 124.242 19.5039C124.183 19.5578 124.111 19.6018 124.083 19.6018C124.009 19.6018 123.214 20.2199 123.026 20.4234C122.939 20.518 122.736 20.7343 122.576 20.9038C122.163 21.3421 121.833 21.8685 121.331 22.8916C120.207 25.1797 120.098 29.9523 121.115 32.4526C121.463 33.3096 122.071 34.4059 122.197 34.4059C122.232 34.4059 122.26 34.4404 122.26 34.4832C122.26 34.584 123.384 35.7078 123.485 35.7078C123.528 35.7078 123.562 35.735 123.562 35.7679C123.562 35.9653 125.312 36.8173 126.304 37.1035C127.849 37.5489 130.288 37.5464 131.924 37.0982C132.836 36.8477 133.979 36.3954 134.173 36.2071C134.223 36.1585 134.292 36.119 134.325 36.119C134.505 36.119 135.542 35.3188 136.156 34.7065C137.108 33.7574 137.112 33.6867 136.259 32.9214C135.93 32.6257 135.58 32.307 135.482 32.2124C134.717 31.4796 134.595 31.4809 133.842 32.2285C132.115 33.9449 129.333 34.4853 126.957 33.5666C126.657 33.4502 126.379 33.3301 126.34 33.2989C126.301 33.268 126.173 33.1652 126.054 33.0702C125.935 32.9757 125.82 32.8979 125.797 32.8979C125.622 32.8979 124.852 31.8826 124.625 31.3521C124.436 30.9105 124.174 29.9943 124.21 29.9005C124.237 29.8314 125.508 29.8137 130.46 29.8137C135.086 29.8137 136.735 29.7928 136.902 29.7323C137.209 29.6217 137.222 29.5222 137.17 27.77C137.113 25.8643 136.988 24.965 136.602 23.6795C136.432 23.1112 136.054 22.2846 135.783 21.8849C135.696 21.7566 135.625 21.6222 135.625 21.5864C135.625 21.5502 135.596 21.5206 135.561 21.5206C135.526 21.5206 135.478 21.4606 135.455 21.3869C135.232 20.6866 133.16 19.2066 131.764 18.751C130.814 18.4409 128.533 18.1905 127.949 18.332ZM90.767 18.4537C89.3215 18.6494 87.8563 19.3958 87.003 20.3712L86.6893 20.7302V19.8592V18.9883L86.4795 18.8801C86.1432 18.7062 83.4044 18.7596 83.2009 18.9439L83.0565 19.0746V27.9291C83.0565 36.4201 83.0619 36.7881 83.1819 36.8967C83.3658 37.0628 86.4158 37.0682 86.5815 36.9024C86.6773 36.8066 86.6893 36.2219 86.6893 31.5002C86.6893 25.2611 86.6901 25.2504 87.2942 23.9879C88.6175 21.2225 93.3161 21.0707 94.6358 23.7511C95.2308 24.9597 95.2514 25.2183 95.2542 31.4607C95.2559 36.0944 95.2686 36.7231 95.3628 36.858C95.4681 37.0081 95.4919 37.0102 97.0937 37.0081L98.7176 37.0061L98.8397 36.8375C99.0001 36.6175 98.9861 24.944 98.8245 24.0907C98.602 22.9142 98.2155 21.9059 97.678 21.0999C97.3729 20.6422 96.6101 19.8074 96.497 19.8074C96.4637 19.8074 96.4184 19.761 96.3966 19.7046C96.3748 19.6479 96.3099 19.6018 96.2523 19.6018C96.1947 19.6018 96.1474 19.573 96.1474 19.5377C96.1474 19.5027 96.0857 19.4542 96.0105 19.4303C95.9356 19.4065 95.8345 19.3506 95.7868 19.3057C95.6285 19.1589 95.0844 18.9184 94.2969 18.6478C93.5876 18.4039 91.8423 18.3081 90.767 18.4537ZM111.088 21.6769C111.334 21.7661 111.626 21.8882 111.739 21.9483C111.853 22.0087 112.043 22.1091 112.163 22.1716C112.874 22.5437 113.803 23.7613 114.189 24.8281C114.424 25.4766 114.429 30.1378 114.196 30.8459C112.896 34.797 107.813 35.5051 105.622 32.0397C105.575 31.9653 105.505 31.8271 105.467 31.7329C105.428 31.6388 105.37 31.4998 105.336 31.4245C104.978 30.6169 104.852 29.6916 104.854 27.8946C104.858 25.3026 105.239 24.0389 106.393 22.7987C107.486 21.625 109.575 21.1258 111.088 21.6769ZM129.833 21.6904C132.034 22.042 133.334 23.483 133.566 25.8282C133.674 26.9196 134.261 26.8019 128.814 26.7814L124.145 26.7637L124.167 26.2155C124.2 25.4013 124.622 24.034 124.98 23.5775C126.21 22.0124 127.852 21.3738 129.833 21.6904ZM160.121 28.3473C160.286 28.4107 160.282 31.0659 160.116 31.5615C159.856 32.3391 159.307 33.0929 158.756 33.4264C158.312 33.6957 157.712 33.9309 157.066 34.0884C156.078 34.3298 153.606 34.1756 153.277 33.8528C153.241 33.8174 153.17 33.7891 153.12 33.7891C152.926 33.7891 152.114 33.1179 151.999 32.8638C151.965 32.7881 151.91 32.6804 151.877 32.6236C151.656 32.2478 151.594 31.9657 151.594 31.3336C151.594 29.4243 152.741 28.5167 155.329 28.3773C156.483 28.3152 159.981 28.2935 160.121 28.3473Z" fill="#345CDC"/>
</svg>
