<svg width="50" height="48" viewBox="0 0 50 48" fill="none" xmlns="http://www.w3.org/2000/svg">
<mask id="mask0_5531_35401" style="mask-type:luminance" maskUnits="userSpaceOnUse" x="0" y="0" width="50" height="48">
<path d="M0.566406 0H49.3637V48H0.566406V0Z" fill="white"/>
</mask>
<g mask="url(#mask0_5531_35401)">
<path d="M44.2939 0H3.10132C1.70708 0 0.566406 1.14283 0.566406 2.53969V7.1111C0.566406 8.50796 1.70708 9.65079 3.10132 9.65079H44.1671C45.5614 9.65079 46.7021 8.50796 46.7021 7.1111V2.53969C46.8288 1.14283 45.6881 0 44.2939 0ZM44.2939 25.5238H3.10132C1.70708 25.5238 0.566406 26.6666 0.566406 28.0635V32.6349C0.566406 34.0318 1.70708 35.1746 3.10132 35.1746H44.1671C45.5614 35.1746 46.7021 34.0318 46.7021 32.6349V28.0635C46.8288 26.6666 45.6881 25.5238 44.2939 25.5238ZM26.2959 38.3492H3.10132C1.70708 38.3492 0.566406 39.492 0.566406 40.8889V45.4603C0.566406 46.8572 1.70708 48 3.10132 48H26.2959C27.6902 48 28.8308 46.8572 28.8308 45.4603V40.8889C28.8308 39.492 27.6902 38.3492 26.2959 38.3492ZM46.8288 12.8254H3.10132C1.70708 12.8254 0.566406 13.9682 0.566406 15.365V19.9365C0.566406 21.3333 1.70708 22.4762 3.10132 22.4762H46.8288C48.2231 22.4762 49.3637 21.3333 49.3637 19.9365V15.365C49.3637 13.9682 48.2231 12.8254 46.8288 12.8254Z" fill="#0BA4DB"/>
</g>
</svg>
