<svg width="128" height="48" viewBox="0 0 128 48" fill="none" xmlns="http://www.w3.org/2000/svg">
<g clip-path="url(#clip0_1552_7668)">
<path fill-rule="evenodd" clip-rule="evenodd" d="M123.758 31.9803C123.834 32.8499 124.53 33.9567 125.735 33.9567H126.44C126.714 33.9567 126.937 33.7327 126.937 33.4592V17.9535H126.934C126.92 17.6922 126.705 17.483 126.44 17.483H124.256C123.991 17.483 123.775 17.6922 123.761 17.9535H123.758V19.2134C122.419 17.5635 120.309 16.8787 118.193 16.8787C113.383 16.8787 109.483 20.7811 109.483 25.5953C109.483 30.4099 113.383 34.3124 118.193 34.3124C120.309 34.3124 122.616 33.4911 123.758 31.9784V31.9803ZM118.201 31.2617C115.142 31.2617 112.662 28.725 112.662 25.5953C112.662 22.4663 115.142 19.9295 118.201 19.9295C121.261 19.9295 123.741 22.4663 123.741 25.5953C123.741 28.725 121.261 31.2617 118.201 31.2617Z" fill="#0D0E10"/>
<path fill-rule="evenodd" clip-rule="evenodd" d="M106.721 24.49C106.721 19.9672 103.87 16.916 99.3232 16.916C97.1529 16.916 95.3738 18.172 94.7454 19.2509C94.6096 18.4073 94.1621 17.5205 92.7743 17.5205H92.0669C91.7932 17.5205 91.5698 17.7447 91.5698 18.0182V32.0191C91.5698 32.0196 91.5698 32.0206 91.5698 32.0213V33.5252H91.5725C91.5869 33.786 91.8029 33.9955 92.0671 33.9955H94.2518C94.2852 33.9955 94.318 33.9915 94.3497 33.9854C94.3641 33.9825 94.3776 33.9768 94.3916 33.9729C94.4079 33.9679 94.4248 33.964 94.4403 33.9576C94.4597 33.9496 94.4773 33.9388 94.4954 33.9287C94.5043 33.9232 94.5136 33.9194 94.5221 33.9138C94.5439 33.8997 94.5639 33.8827 94.5832 33.8655C94.5864 33.8623 94.5902 33.8601 94.5933 33.8572C94.6151 33.8362 94.6349 33.813 94.6524 33.7889C94.7071 33.7138 94.7405 33.6229 94.746 33.5252H94.7488V24.3656C94.7488 21.9365 96.7166 19.9672 99.144 19.9672C101.571 19.9672 103.539 21.9365 103.539 24.3656L103.541 32.0218L103.542 32.0191C103.542 32.0259 103.543 32.0329 103.543 32.0401V33.5252H103.546C103.56 33.786 103.776 33.9955 104.04 33.9955H106.225C106.258 33.9955 106.291 33.9915 106.323 33.9854C106.336 33.983 106.348 33.9777 106.36 33.9742C106.378 33.969 106.397 33.9646 106.414 33.9576C106.432 33.9502 106.448 33.9399 106.465 33.9304C106.475 33.9246 106.486 33.9204 106.496 33.9138C106.516 33.9005 106.534 33.8844 106.553 33.8687C106.557 33.8643 106.562 33.8612 106.567 33.8568C106.587 33.8368 106.606 33.8152 106.623 33.7926C106.624 33.7909 106.625 33.7896 106.627 33.7879C106.68 33.7134 106.713 33.6235 106.719 33.5265C106.719 33.5258 106.719 33.5252 106.719 33.5252H106.722L106.721 24.49Z" fill="#0D0E10"/>
<path fill-rule="evenodd" clip-rule="evenodd" d="M83.9691 31.9803C84.0455 32.8498 84.741 33.9566 85.946 33.9566H86.651C86.9243 33.9566 87.1481 33.7327 87.1481 33.4591V17.9535H87.1452C87.131 17.6922 86.9149 17.483 86.651 17.483H84.4664C84.2022 17.483 83.9864 17.6922 83.9716 17.9535H83.9691V19.2134C82.6305 17.5635 80.5201 16.8787 78.4039 16.8787C73.5937 16.8787 69.6943 20.7811 69.6943 25.5954C69.6943 30.4098 73.5937 34.3124 78.4039 34.3124C80.5201 34.3124 82.8265 33.4912 83.9689 31.9783L83.9691 31.9803ZM78.4124 31.2616C75.3533 31.2616 72.8731 28.725 72.8731 25.5954C72.8731 22.4663 75.3533 19.9295 78.4124 19.9295C81.4718 19.9295 83.9516 22.4663 83.9516 25.5954C83.9516 28.725 81.4718 31.2616 78.4124 31.2616Z" fill="#0D0E10"/>
<path fill-rule="evenodd" clip-rule="evenodd" d="M56.7752 29.7596C58.2336 30.7707 59.8255 31.2618 61.3553 31.2618C62.8126 31.2618 64.3194 30.5057 64.3194 29.1896C64.3194 27.4325 61.0363 27.1591 58.9736 26.4575C56.9104 25.7559 55.1334 24.3055 55.1334 21.9568C55.1334 18.3628 58.3333 16.8784 61.3199 16.8784C63.2122 16.8784 65.1646 17.5029 66.4304 18.3975C66.8663 18.728 66.6008 19.1075 66.6008 19.1075L65.3925 20.8346C65.2567 21.0291 65.0192 21.1972 64.6784 20.9866C64.3375 20.7762 63.142 19.9293 61.3199 19.9293C59.4976 19.9293 58.4 20.7715 58.4 21.8153C58.4 23.067 59.8266 23.4607 61.4975 23.8874C64.4095 24.6729 67.5859 25.6171 67.5859 29.1896C67.5859 32.3561 64.6263 34.3131 61.3553 34.3131C58.8765 34.3131 56.7661 33.6059 54.9961 32.306C54.6273 31.9367 54.8848 31.5938 54.8848 31.5938L56.0872 29.8755C56.3319 29.5542 56.6403 29.6663 56.7752 29.7596Z" fill="#0D0E10"/>
<path fill-rule="evenodd" clip-rule="evenodd" d="M48.3764 31.9803C48.4528 32.8498 49.1484 33.9566 50.3533 33.9566H51.0584C51.3317 33.9566 51.5557 33.7327 51.5557 33.4591V17.9535H51.5526C51.5383 17.6922 51.3225 17.483 51.0584 17.483H48.8737C48.6095 17.483 48.3937 17.6922 48.3791 17.9535H48.3764V19.2134C47.0379 17.5635 44.9276 16.8787 42.8113 16.8787C38.0011 16.8787 34.1016 20.7811 34.1016 25.5954C34.1016 30.4098 38.0011 34.3124 42.8113 34.3124C44.9276 34.3124 47.2338 33.4912 48.3761 31.9783L48.3764 31.9803ZM42.8199 31.2616C39.7605 31.2616 37.2804 28.725 37.2804 25.5954C37.2804 22.4663 39.7605 19.9295 42.8199 19.9295C45.8791 19.9295 48.3589 22.4663 48.3589 25.5954C48.3589 28.725 45.8791 31.2616 42.8199 31.2616Z" fill="#0D0E10"/>
<path fill-rule="evenodd" clip-rule="evenodd" d="M21.8903 26.1881C18.6533 26.1881 16.029 28.8123 16.029 32.0497C16.029 35.2868 18.6533 37.911 21.8903 37.911C25.1275 37.911 27.7517 35.2868 27.7517 32.0497C27.7517 28.8123 25.1275 26.1881 21.8903 26.1881ZM6.66212 26.1886C3.42502 26.1886 0.800781 28.8123 0.800781 32.0497C0.800781 35.2868 3.42502 37.911 6.66212 37.911C9.89936 37.911 12.5237 35.2868 12.5237 32.0497C12.5237 28.8123 9.89936 26.1886 6.66212 26.1886ZM20.1375 18.8612C20.1375 22.0986 17.5134 24.7231 14.2762 24.7231C11.039 24.7231 8.41492 22.0986 8.41492 18.8612C8.41492 15.6245 11.039 13 14.2762 13C17.5134 13 20.1375 15.6245 20.1375 18.8612Z" fill="#F06A6A"/>
</g>
<defs>
<clipPath id="clip0_1552_7668">
<rect width="127" height="48" fill="white" transform="translate(0.800781)"/>
</clipPath>
</defs>
</svg>
