<svg width="151" height="48" viewBox="0 0 151 48" fill="none" xmlns="http://www.w3.org/2000/svg">
<g clip-path="url(#clip0_1552_7650)">
<path d="M88.7471 20.9242C91.0607 20.9242 93.2517 22.3396 93.7141 25.3978H83.4101C83.8414 22.7142 85.8474 20.9242 88.7471 20.9242ZM93.3848 29.9223C92.5978 31.1489 91.0768 32.0925 88.9943 32.0925C86.1248 32.0925 83.9338 30.5196 83.4101 27.7426H96.3373C96.3996 27.3446 96.4312 26.9424 96.4316 26.5395C96.4316 22.2207 93.4121 18.3945 88.7489 18.3945C83.9366 18.3945 80.6662 21.9424 80.6662 26.5093C80.6662 31.1329 83.9687 34.6242 88.9339 34.6242C92.0194 34.6242 94.3642 33.2352 95.7211 31.1329L93.3848 29.9223Z" fill="#006BFF"/>
<path d="M79.3959 11.6997H76.7123V34.2222H79.3959V11.6997Z" fill="#006BFF"/>
<path d="M111.364 24.7505V34.2213H108.68V24.9043C108.68 22.3745 107.23 20.9554 104.854 20.9554C102.386 20.9554 100.381 22.4057 100.381 26.046V34.2213H97.6962V18.7974H100.381V21.0186C101.522 19.1984 103.219 18.3964 105.382 18.3964C108.991 18.3964 111.367 20.8025 111.367 24.7524" fill="#006BFF"/>
<path d="M126.164 26.5084C126.164 23.3615 123.788 20.9855 120.672 20.9855C117.587 20.9855 115.212 23.3615 115.212 26.5084C115.212 29.6552 117.587 32.0312 120.672 32.0312C123.786 32.0312 126.164 29.6552 126.164 26.5084ZM128.848 11.6997V34.2222H126.164V31.5679C124.93 33.455 122.956 34.6232 120.333 34.6232C116.044 34.6232 112.527 31.0744 112.527 26.5084C112.527 21.9423 116.044 18.3935 120.333 18.3935C122.955 18.3935 124.93 19.5654 126.164 21.4479V11.6997H128.848Z" fill="#006BFF"/>
<path d="M133.696 11.6997H131.012V34.2222H133.696V11.6997Z" fill="#006BFF"/>
<path d="M71.9286 26.5084C71.9286 23.3615 69.5536 20.9856 66.4369 20.9856C63.3523 20.9856 60.9764 23.3615 60.9764 26.5084C60.9764 29.6553 63.3523 32.0312 66.4369 32.0312C69.5507 32.0312 71.9286 29.6553 71.9286 26.5084ZM74.6131 18.7974V34.2213H71.9286V31.5679C70.6943 33.4551 68.7204 34.6232 66.0981 34.6232C61.8095 34.6232 58.2918 31.0744 58.2918 26.5084C58.2918 21.9424 61.8095 18.3935 66.0981 18.3935C68.7204 18.3935 70.6943 19.5655 71.9286 21.4479V18.7974H74.6131Z" fill="#006BFF"/>
<path d="M54.3109 31.2527C52.9369 31.7597 51.4538 31.8966 50.0103 31.6496C48.5667 31.4027 47.2135 30.7806 46.0862 29.8457C44.9589 28.9107 44.0973 27.6959 43.5876 26.323C43.0779 24.95 42.9381 23.4672 43.1822 22.0231C43.4264 20.5791 44.0459 19.2247 44.9786 18.0956C45.9113 16.9665 47.1244 16.1024 48.4964 15.59C49.8683 15.0777 51.3509 14.935 52.7954 15.1763C54.2399 15.4176 55.5955 16.0344 56.7264 16.9649C57.198 17.354 57.6247 17.7946 57.9984 18.2784L60.3206 16.5799C58.9677 14.8114 57.1202 13.4843 55.0123 12.7668C52.9044 12.0494 50.6309 11.9739 48.48 12.55C46.3292 13.1261 44.3978 14.3278 42.9306 16.0028C41.4635 17.6778 40.5266 19.7506 40.2388 21.9586C39.9511 24.1666 40.3253 26.4104 41.3141 28.4054C42.3029 30.4005 43.8618 32.0571 45.7932 33.1652C47.7245 34.2734 49.9414 34.7831 52.1628 34.63C54.3842 34.4768 56.5101 33.6676 58.2711 32.3048L56.7255 29.8609C56.0034 30.4556 55.1874 30.926 54.3109 31.2527Z" fill="#006BFF"/>
<path d="M146.651 18.7973V27.5519C146.651 30.3827 145.005 32.1755 142.491 32.1755C139.977 32.1755 138.157 30.3827 138.157 27.5519V18.7973H135.441V27.2896C135.441 31.7396 138.215 34.6288 142.491 34.6288C146.19 34.6288 146.767 32.2887 146.767 32.2302V35.3799C146.767 38.5004 145.409 40.263 142.578 40.263C141.566 40.268 140.587 39.9051 139.824 39.242C139.06 38.5788 138.563 37.6607 138.426 36.6585L135.998 37.5077C136.346 38.9924 137.186 40.3157 138.381 41.262C139.577 42.2084 141.058 42.722 142.582 42.7191C146.974 42.7191 149.376 39.8289 149.376 35.3799V18.7973H146.651Z" fill="#006BFF"/>
<path d="M22.0469 27.7833C21.0155 28.6986 19.7276 29.8375 17.3922 29.8375H15.9957C14.3057 29.8375 12.7686 29.2233 11.6684 28.1098C10.5936 27.0219 10.002 25.5329 10.002 23.9165V22.0058C10.002 20.3894 10.5936 18.9004 11.6684 17.8125C12.7686 16.699 14.3057 16.0857 15.9957 16.0857H17.3922C19.7304 16.0857 21.0155 17.2237 22.0469 18.1389C23.1179 19.0825 24.0416 19.9072 26.5053 19.9072C26.8811 19.9071 27.2562 19.8772 27.6273 19.8176L27.6188 19.7959C27.4712 19.4294 27.2981 19.0738 27.1007 18.7315L25.4542 15.8791C24.7117 14.5932 23.6437 13.5254 22.3578 12.783C21.0718 12.0406 19.613 11.6498 18.1282 11.6499H14.8341C13.3492 11.6498 11.8905 12.0406 10.6045 12.783C9.31854 13.5254 8.25063 14.5932 7.50811 15.8791L5.86155 18.7315C5.11928 20.0175 4.72852 21.4763 4.72852 22.9611C4.72852 24.446 5.11928 25.9047 5.86155 27.1908L7.50811 30.0432C8.25063 31.3291 9.31854 32.3969 10.6045 33.1393C11.8905 33.8817 13.3492 34.2724 14.8341 34.2724H18.1282C19.613 34.2724 21.0718 33.8817 22.3578 33.1393C23.6437 32.3969 24.7117 31.3291 25.4542 30.0432L27.1007 27.1955C27.2981 26.8532 27.4712 26.4976 27.6188 26.1311L27.6273 26.1104C27.2564 26.0488 26.8812 26.0172 26.5053 26.016C24.0416 26.016 23.1179 26.836 22.0469 27.7843" fill="#006BFF"/>
<path d="M17.3931 17.8171H15.9966C13.4243 17.8171 11.7344 19.6543 11.7344 22.0057V23.9165C11.7344 26.2679 13.4243 28.1051 15.9966 28.1051H17.3931C21.141 28.1051 20.8466 24.2835 26.5062 24.2835C27.0424 24.2829 27.5776 24.3322 28.1047 24.4307C28.2764 23.4585 28.2764 22.4637 28.1047 21.4915C27.5775 21.5895 27.0424 21.6388 26.5062 21.6387C20.8447 21.6387 21.141 17.8171 17.3931 17.8171Z" fill="#006BFF"/>
<path d="M31.3554 25.8274C30.3916 25.1215 29.2802 24.6436 28.1048 24.4299C28.1048 24.4403 28.1048 24.4488 28.1048 24.4582C28.0036 25.0216 27.8455 25.5733 27.633 26.1048C28.6039 26.2552 29.5251 26.6346 30.3203 27.2116C30.3203 27.2192 30.3156 27.2286 30.3128 27.2371C29.2893 30.5511 27.1111 33.3882 24.1737 35.2328C21.2364 37.0774 17.7349 37.8072 14.3052 37.2897C10.8755 36.7721 7.74526 35.0416 5.48303 32.4124C3.22079 29.7832 1.97667 26.4297 1.97667 22.9612C1.97667 19.4927 3.22079 16.1393 5.48303 13.5101C7.74526 10.8809 10.8755 9.15032 14.3052 8.63279C17.7349 8.11526 21.2364 8.84508 24.1737 10.6897C27.1111 12.5343 29.2893 15.3713 30.3128 18.6854C30.3128 18.6939 30.3175 18.7033 30.3203 18.7108C29.5253 19.288 28.604 19.6671 27.633 19.8167C27.8453 20.3489 28.0033 20.9012 28.1048 21.4652C28.1042 21.474 28.1042 21.4828 28.1048 21.4916C29.2801 21.2782 30.3916 20.8007 31.3554 20.0951C32.282 19.4091 32.1028 18.6344 31.9622 18.1758C30.8165 14.4601 28.3759 11.2786 25.0837 9.20961C21.7916 7.14057 17.8664 6.32125 14.0215 6.90053C10.1765 7.47981 6.66698 9.41924 4.13057 12.3664C1.59416 15.3136 0.199219 19.0729 0.199219 22.9612C0.199219 26.8496 1.59416 30.6089 4.13057 33.5561C6.66698 36.5032 10.1765 38.4427 14.0215 39.0219C17.8664 39.6012 21.7916 38.7819 25.0837 36.7129C28.3759 34.6438 30.8165 31.4624 31.9622 27.7466C32.1028 27.288 32.282 26.5134 31.3554 25.8274Z" fill="#006BFF"/>
<path d="M27.6292 19.8165C27.2583 19.8781 26.8831 19.9096 26.5072 19.9108C24.0435 19.9108 23.1198 19.0909 22.0497 18.1426C21.0174 17.2273 19.7323 16.0884 17.3941 16.0884H15.9976C14.3067 16.0884 12.7705 16.7027 11.6703 17.8161C10.5955 18.904 10.0039 20.393 10.0039 22.0094V23.9201C10.0039 25.5365 10.5955 27.0255 11.6703 28.1134C12.7705 29.2269 14.3067 29.8402 15.9976 29.8402H17.3941C19.7323 29.8402 21.0174 28.7022 22.0497 27.787C23.1198 26.8434 24.0435 26.0187 26.5072 26.0187C26.883 26.0188 27.2582 26.0487 27.6292 26.1083C27.8421 25.577 28.0002 25.0253 28.101 24.4618C28.1015 24.4523 28.1015 24.4429 28.101 24.4335C27.5738 24.3357 27.0387 24.2868 26.5025 24.2872C20.841 24.2872 21.1373 28.1097 17.3894 28.1097H15.9928C13.4206 28.1097 11.7307 26.2716 11.7307 23.9201V22.0056C11.7307 19.6542 13.4206 17.817 15.9928 17.817H17.3894C21.1373 17.817 20.8429 21.6376 26.5025 21.6376C27.0387 21.6385 27.5738 21.5896 28.101 21.4914C28.101 21.4829 28.101 21.4744 28.101 21.4649C27.9995 20.901 27.8415 20.3487 27.6292 19.8165Z" fill="#0AE8F0"/>
<path d="M27.6292 19.8165C27.2583 19.8781 26.8831 19.9096 26.5072 19.9108C24.0435 19.9108 23.1198 19.0909 22.0497 18.1426C21.0174 17.2273 19.7323 16.0884 17.3941 16.0884H15.9976C14.3067 16.0884 12.7705 16.7027 11.6703 17.8161C10.5955 18.904 10.0039 20.393 10.0039 22.0094V23.9201C10.0039 25.5365 10.5955 27.0255 11.6703 28.1134C12.7705 29.2269 14.3067 29.8402 15.9976 29.8402H17.3941C19.7323 29.8402 21.0174 28.7022 22.0497 27.787C23.1198 26.8434 24.0435 26.0187 26.5072 26.0187C26.883 26.0188 27.2582 26.0487 27.6292 26.1083C27.8421 25.577 28.0002 25.0253 28.101 24.4618C28.1015 24.4523 28.1015 24.4429 28.101 24.4335C27.5738 24.3357 27.0387 24.2868 26.5025 24.2872C20.841 24.2872 21.1373 28.1097 17.3894 28.1097H15.9928C13.4206 28.1097 11.7307 26.2716 11.7307 23.9201V22.0056C11.7307 19.6542 13.4206 17.817 15.9928 17.817H17.3894C21.1373 17.817 20.8429 21.6376 26.5025 21.6376C27.0387 21.6385 27.5738 21.5896 28.101 21.4914C28.101 21.4829 28.101 21.4744 28.101 21.4649C27.9995 20.901 27.8415 20.3487 27.6292 19.8165Z" fill="#0AE8F0"/>
</g>
<defs>
<clipPath id="clip0_1552_7650">
<rect width="150" height="48" fill="white" transform="translate(0.199219)"/>
</clipPath>
</defs>
</svg>
