<svg width="164" height="48" viewBox="0 0 164 48" fill="none" xmlns="http://www.w3.org/2000/svg">
<g clip-path="url(#clip0_1552_8900)">
<path d="M45.4512 14.0131H53.0733C57.9326 14.0131 61.9469 16.8247 61.9469 23.2442V24.5931C61.9469 31.0613 58.1927 33.9704 53.2196 33.9704H45.4512V14.0131ZM49.7092 17.6373V30.33H52.9758C55.7386 30.33 57.5913 28.526 57.5913 24.5118V23.4555C57.5913 19.4412 55.6411 17.6373 52.8295 17.6373H49.7092ZM64.2059 17.8323H67.6188L68.1713 21.5865C68.8214 19.0349 70.4791 17.6698 73.4857 17.6698H74.5421V21.9765H72.7869C69.3252 21.9765 68.4801 23.1792 68.4801 26.5921V34.0192H64.2709V17.8323H64.2059ZM75.3872 26.2508V25.7957C75.3872 20.3838 78.8488 17.426 83.5619 17.426C88.3725 17.426 91.7366 20.3838 91.7366 25.7957V26.2508C91.7366 31.5652 88.47 34.4255 83.5619 34.4255C78.345 34.3767 75.3872 31.5814 75.3872 26.2508ZM87.4298 26.202V25.7957C87.4298 22.7891 85.9184 20.9852 83.5131 20.9852C81.1566 20.9852 79.5964 22.6429 79.5964 25.7957V26.202C79.5964 29.1111 81.1078 30.7688 83.5131 30.7688C85.9184 30.7201 87.4298 29.1111 87.4298 26.202ZM93.9468 17.8323H97.4573L97.8636 20.8877C98.7087 18.8399 100.513 17.426 103.178 17.426C107.29 17.426 110.004 20.3838 110.004 25.8607V26.3158C110.004 31.6302 106.997 34.4417 103.178 34.4417C100.626 34.4417 98.8712 33.2879 98.0098 31.4351V39.6098H93.8981L93.9468 17.8323ZM105.729 26.202V25.8445C105.729 22.6266 104.072 21.0339 101.862 21.0339C99.505 21.0339 97.9448 22.8379 97.9448 25.8445V26.1533C97.9448 29.0136 99.4562 30.8176 101.813 30.8176C104.234 30.7688 105.729 29.2249 105.729 26.202ZM116.228 31.0288L115.871 33.9867H112.263V12.4204H116.374V20.6926C117.285 18.5799 119.089 17.426 121.64 17.426C125.508 17.4748 128.368 20.1401 128.368 25.5032V26.007C128.368 31.3701 125.654 34.4417 121.543 34.4417C118.829 34.3767 117.073 33.1253 116.228 31.0288ZM124.045 26.007V25.6007C124.045 22.6429 122.436 20.9852 120.177 20.9852C117.87 20.9852 116.261 22.8379 116.261 25.6495V26.007C116.261 29.0136 117.821 30.7688 120.129 30.7688C122.599 30.7688 124.045 29.2249 124.045 26.007ZM130.172 26.2508V25.7957C130.172 20.3838 133.634 17.426 138.347 17.426C143.158 17.426 146.522 20.3838 146.522 25.7957V26.2508C146.522 31.5652 143.206 34.4255 138.347 34.4255C133.13 34.3767 130.172 31.5814 130.172 26.2508ZM142.248 26.202V25.7957C142.248 22.7891 140.736 20.9852 138.331 20.9852C135.974 20.9852 134.414 22.6429 134.414 25.7957V26.202C134.414 29.1111 135.926 30.7688 138.331 30.7688C140.752 30.7201 142.248 29.1111 142.248 26.202ZM152.031 25.6007L146.359 17.8323H151.219L154.485 22.6916L157.801 17.8323H162.611L156.858 25.5519L162.92 33.9867H158.158L154.453 28.6236L150.845 33.9867H145.872L152.031 25.6007Z" fill="black"/>
<path d="M19.2526 14.0132L9.8265 20.0264L19.2526 26.0396L9.8265 32.0528L0.400391 26.0071L9.8265 19.9939L0.400391 14.0132L9.8265 8L19.2526 14.0132ZM9.77774 33.9868L19.2038 27.9736L28.63 33.9868L19.2038 40L9.77774 33.9868ZM19.2526 26.0071L28.6787 19.9939L19.2526 14.0132L28.63 8L38.0561 14.0132L28.63 20.0264L38.0561 26.0396L28.63 32.0528L19.2526 26.0071Z" fill="#0061FF"/>
</g>
<defs>
<clipPath id="clip0_1552_8900">
<rect width="163" height="48" fill="white" transform="translate(0.400391)"/>
</clipPath>
</defs>
</svg>
