<svg width="202" height="48" viewBox="0 0 202 48" fill="none" xmlns="http://www.w3.org/2000/svg">
<path d="M68.6192 16.3345H65.4141V32.8259H68.6192V16.3345Z" fill="#2A3362"/>
<path d="M81.0245 26.9746C81.0245 29.2507 79.5602 30.2733 77.6105 30.2733C75.6607 30.2733 74.3575 29.2507 74.3575 27.09V21.2129H71.1523V27.8341C71.1523 31.1308 73.2195 33.0587 76.6575 33.0587C78.8181 33.0587 80.0258 32.2629 80.8355 31.3636H81.0225L81.3011 32.8279H84.2496V21.2129H81.0245V26.9746Z" fill="#2A3362"/>
<path d="M112.467 30.5279C110.122 30.5279 108.799 29.4595 108.59 27.9036H118.762C118.809 27.5801 118.833 27.2536 118.832 26.9268C118.81 22.7487 115.649 20.98 112.267 20.98C108.341 20.98 105.391 23.3277 105.391 27.1138C105.391 30.7129 108.226 33.0586 112.475 33.0586C116.031 33.0586 118.398 31.4809 118.888 29.0635H115.72C115.324 30.0165 114.186 30.5279 112.467 30.5279ZM112.269 23.5127C114.314 23.5127 115.498 24.4179 115.685 25.7012H108.659C108.96 24.4716 110.146 23.5127 112.259 23.5127H112.269Z" fill="#2A3362"/>
<path d="M124.277 22.8798H124.078L123.776 21.2065H120.863V32.8275H124.068V27.8337C124.068 25.5796 125.368 24.3262 127.785 24.3262C128.224 24.3201 128.663 24.3587 129.094 24.4416V21.2125H128.646C126.51 21.2125 125.183 21.6542 124.277 22.8798Z" fill="#2A3362"/>
<path d="M144.831 29.2029H144.646L141.904 21.9331H138.606L135.912 29.1811H135.703L133.148 21.2129H129.965L133.89 32.8279H137.376L140.163 25.4168H140.348L143.09 32.8279H146.598L150.523 21.2129H147.34L144.831 29.2029Z" fill="#2A3362"/>
<path d="M163.278 29.4455V25.5579C163.278 22.3985 160.606 20.9819 157.283 20.9819C153.754 20.9819 151.547 22.6551 151.245 25.16H154.45C154.683 24.0677 155.612 23.4649 157.283 23.4649C158.955 23.4649 160.069 24.0916 160.069 25.3689V25.6653L154.842 26.0633C152.427 26.2503 150.664 27.3187 150.664 29.5947C150.664 31.9404 152.685 33.0546 155.658 33.0546C158.057 33.0546 159.52 32.3861 160.415 31.3774H160.574C161.077 32.5114 162.098 32.8238 163.208 32.8238H164.555V30.4582H164.253C163.578 30.4582 163.278 30.1339 163.278 29.4455ZM160.071 28.214C160.071 30.0503 157.882 30.6532 156.006 30.6532C154.729 30.6532 153.893 30.3289 153.893 29.4455C153.893 28.6497 154.613 28.2617 155.684 28.1682L160.073 27.8439L160.071 28.214Z" fill="#2A3362"/>
<path d="M175.127 21.2129L171.387 29.6227H171.178L167.392 21.2129H163.93L169.341 32.8279H173.175L178.563 21.2129H175.127Z" fill="#2A3362"/>
<path d="M188.812 29.0635C188.414 30.0165 187.278 30.5279 185.559 30.5279C183.214 30.5279 181.89 29.4595 181.682 27.9036H191.854C191.901 27.5801 191.924 27.2536 191.924 26.9268C191.902 22.7487 188.741 20.98 185.358 20.98C181.433 20.98 178.484 23.3277 178.484 27.1138C178.484 30.7129 181.318 33.0586 185.567 33.0586C189.123 33.0586 191.49 31.4809 191.98 29.0635H188.812ZM185.35 23.5127C187.396 23.5127 188.579 24.4179 188.766 25.7012H181.743C182.048 24.4716 183.229 23.5127 185.342 23.5127H185.35Z" fill="#2A3362"/>
<path d="M60.2074 20.3573C60.2074 19.3346 60.9276 18.895 61.8567 18.895C62.2889 18.899 62.7185 18.9612 63.134 19.08L63.6692 16.7562C62.8934 16.4818 62.0768 16.3406 61.2539 16.3384C58.8843 16.3384 56.9803 17.5938 56.9803 20.1941V21.2128H54.2148V23.7574H56.9803V32.8278H60.2074V23.7554H63.8204V21.2128H60.2074V20.3573Z" fill="#2A3362"/>
<path d="M91.3227 17.938H88.3383L88.1712 21.2128H85.6484V23.7574H88.1115V29.4834C88.1115 31.4331 89.1063 33.0646 92.0906 33.0646C92.8643 33.0646 93.6356 32.9792 94.3906 32.8099V30.3647C93.9553 30.4623 93.5115 30.517 93.0655 30.5279C91.4639 30.5279 91.3246 29.6226 91.3246 28.9243V23.7515H94.5079V21.2128H91.3227V17.938Z" fill="#2A3362"/>
<path d="M101.389 17.938H98.4146L98.2475 21.2128H95.7188V23.7574H98.1818V29.4834C98.1818 31.4331 99.1766 33.0646 102.161 33.0646C102.933 33.0622 103.702 32.9748 104.455 32.8039V30.3647C104.02 30.4623 103.576 30.517 103.13 30.5279C101.528 30.5279 101.389 29.6226 101.389 28.9243V23.7515H104.582V21.2128H101.389V17.938Z" fill="#2A3362"/>
<path d="M9.59766 15.8948C9.59766 14.0306 10.1428 12.4389 11.2868 11.2949L13.2764 13.2845C11.062 15.4909 12.9958 22.3509 19.3007 28.6617C25.6056 34.9726 32.4696 36.9045 34.682 34.6941L36.6716 36.6836C32.9392 40.416 24.4378 37.7679 17.3211 30.6493C12.385 25.7112 9.59766 20.1087 9.59766 15.8948Z" fill="#009A46"/>
<path d="M22.1448 38.3987C20.2806 38.3987 18.689 37.8535 17.543 36.7095L19.5325 34.72C21.7429 36.9304 28.6029 34.9965 34.9138 28.6877C41.2247 22.3788 43.1546 15.5188 40.9442 13.3084L42.9337 11.3188C46.6681 15.0513 44.018 23.5526 36.8994 30.6693C31.9613 35.6133 26.3587 38.3987 22.1448 38.3987Z" fill="#FF5805"/>
<path d="M37.5565 27.8218C36.3488 24.3441 33.8817 20.6276 30.6089 17.3568C23.4923 10.2381 14.9909 7.58804 11.2585 11.3224C10.9939 11.589 11.2227 12.2476 11.7718 12.7967C12.3209 13.3458 12.9794 13.5726 13.244 13.308C15.4564 11.0976 22.3164 13.0315 28.6253 19.3423C31.6097 22.3267 33.834 25.6592 34.9064 28.743C35.8454 31.4468 35.7539 33.6273 34.6597 34.7216C34.3931 34.9862 34.6238 35.6467 35.171 36.1939C35.7181 36.741 36.3786 36.9718 36.6452 36.7052C38.5572 34.7932 38.8815 31.6338 37.5565 27.8218Z" fill="#F5AFCB"/>
<path d="M42.9306 11.3224C41.0147 9.40647 37.8592 9.08217 34.0432 10.4092C30.5675 11.6149 26.849 14.0839 23.5782 17.3547C16.4615 24.4714 13.8114 32.9727 17.5438 36.7071C17.8104 36.9717 18.469 36.7429 19.0181 36.1958C19.5672 35.6487 19.796 34.9882 19.5294 34.7216C17.313 32.5112 19.2529 25.6512 25.5637 19.3403C28.5481 16.356 31.8806 14.1317 34.9644 13.0593C37.6682 12.1222 39.8488 12.2117 40.945 13.306C41.2096 13.5706 41.8702 13.3418 42.4173 12.7927C42.9644 12.2436 43.1952 11.587 42.9306 11.3224Z" fill="#FF9B00"/>
</svg>
