<svg width="136" height="48" viewBox="0 0 136 48" fill="none" xmlns="http://www.w3.org/2000/svg">
<g clip-path="url(#clip0_1552_7657)">
<path fill-rule="evenodd" clip-rule="evenodd" d="M17.8304 5C8.20031 5 0.400391 12.7999 0.400391 22.43C0.400391 30.1428 5.38973 36.6572 12.3182 38.9667C13.1897 39.1192 13.5165 38.5963 13.5165 38.1388C13.5165 37.7248 13.4947 36.3522 13.4947 34.8924C9.11539 35.6986 7.98244 33.8249 7.63384 32.8444C7.43775 32.3433 6.58804 30.7964 5.84726 30.3824C5.23721 30.0556 4.36571 29.2495 5.82548 29.2277C7.19809 29.2059 8.17853 30.4914 8.50534 31.0143C10.074 33.6506 12.5796 32.9098 13.5818 32.4522C13.7343 31.3193 14.1919 30.5567 14.693 30.121C10.8148 29.6852 6.76234 28.1819 6.76234 21.5149C6.76234 19.6194 7.43775 18.0507 8.54891 16.8306C8.37461 16.3949 7.76456 14.6083 8.72321 12.2117C8.72321 12.2117 10.183 11.7541 13.5165 13.9982C14.9109 13.6061 16.3924 13.41 17.874 13.41C19.3555 13.41 20.8371 13.6061 22.2315 13.9982C25.5649 11.7323 27.0247 12.2117 27.0247 12.2117C27.9834 14.6083 27.3733 16.3949 27.199 16.8306C28.3102 18.0507 28.9856 19.5976 28.9856 21.5149C28.9856 28.2037 24.9113 29.6852 21.0331 30.121C21.665 30.6657 22.2097 31.7115 22.2097 33.3455C22.2097 35.6768 22.1879 37.5505 22.1879 38.1388C22.1879 38.5963 22.5147 39.141 23.3862 38.9667C26.8464 37.7986 29.8531 35.5748 31.9832 32.6083C34.1133 29.6418 35.2594 26.082 35.2604 22.43C35.2604 12.7999 27.4605 5 17.8304 5Z" fill="#24292E"/>
<path d="M81.6561 30.843H81.6155C81.6338 30.843 81.646 30.8633 81.6643 30.8654H81.6765L81.6561 30.845V30.843ZM81.6643 30.8654C81.4752 30.8674 80.9993 30.9671 80.497 30.9671C78.9109 30.9671 78.3619 30.235 78.3619 29.2793V22.9124H81.5951C81.7781 22.9124 81.9205 22.7497 81.9205 22.526V19.0691C81.9205 18.886 81.7578 18.7234 81.5951 18.7234H78.3619V14.4327C78.3619 14.27 78.2602 14.1683 78.0772 14.1683H73.6848C73.5018 14.1683 73.4001 14.27 73.4001 14.4327V18.8454C73.4001 18.8454 71.1836 19.3944 71.0413 19.4147C70.8786 19.4554 70.7769 19.5978 70.7769 19.7604V22.526C70.7769 22.7497 70.9396 22.9124 71.1226 22.9124H73.3798V29.5822C73.3798 34.544 76.8367 35.0524 79.1956 35.0524C80.2733 35.0524 81.5748 34.7067 81.7781 34.605C81.9001 34.5643 81.9612 34.422 81.9612 34.2796V31.2294C81.964 31.1429 81.9355 31.0582 81.881 30.991C81.8264 30.9238 81.7495 30.8785 81.6643 30.8633V30.8654ZM129.85 26.3897C129.85 22.709 128.366 22.221 126.8 22.3837C125.58 22.465 124.604 23.075 124.604 23.075V30.233C124.604 30.233 125.6 30.9244 127.085 30.965C129.179 31.026 129.85 30.2736 129.85 26.3897ZM134.791 26.0643C134.791 33.0392 132.534 35.032 128.589 35.032C125.254 35.032 123.465 33.3442 123.465 33.3442C123.465 33.3442 123.384 34.2796 123.282 34.4016C123.221 34.5236 123.119 34.5643 122.997 34.5643H119.988C119.784 34.5643 119.601 34.4016 119.601 34.2186L119.642 11.6264C119.642 11.4434 119.805 11.2808 119.988 11.2808H124.319C124.502 11.2808 124.665 11.4434 124.665 11.6264V19.2927C124.665 19.2927 126.332 18.215 128.772 18.215L128.752 18.1743C131.192 18.1743 134.791 19.0894 134.791 26.0643ZM117.059 18.7234H112.789C112.565 18.7234 112.443 18.886 112.443 19.1097V30.172C112.443 30.172 111.325 30.965 109.8 30.965C108.275 30.965 107.827 30.2736 107.827 28.7485V19.0894C107.827 18.9064 107.665 18.7437 107.482 18.7437H103.13C102.947 18.7437 102.784 18.9064 102.784 19.0894V29.4806C102.784 33.9543 105.285 35.0727 108.722 35.0727C111.549 35.0727 113.846 33.5069 113.846 33.5069C113.846 33.5069 113.948 34.3 114.009 34.422C114.05 34.5236 114.192 34.605 114.334 34.605H117.059C117.283 34.605 117.405 34.4423 117.405 34.2593L117.446 19.0691C117.446 18.886 117.283 18.7234 117.059 18.7234ZM68.8654 18.703H64.5341C64.351 18.703 64.1884 18.886 64.1884 19.1097V34.0356C64.1884 34.4423 64.4527 34.5847 64.7984 34.5847H68.7027C69.1094 34.5847 69.2111 34.4016 69.2111 34.0356V19.0487C69.2111 18.8657 69.0484 18.703 68.8654 18.703ZM66.7302 11.8298C65.1645 11.8298 63.924 13.0702 63.924 14.636C63.924 16.2018 65.1645 17.4423 66.7302 17.4423C68.2554 17.4423 69.4958 16.2018 69.4958 14.636C69.4958 13.0702 68.2554 11.8298 66.7302 11.8298ZM100.263 11.3214H95.972C95.789 11.3214 95.6263 11.4841 95.6263 11.6671V19.9841H88.8954V11.6671C88.8954 11.4841 88.7327 11.3214 88.5497 11.3214H84.2183C84.0353 11.3214 83.8726 11.4841 83.8726 11.6671V34.2593C83.8726 34.4423 84.0557 34.605 84.2183 34.605H88.5497C88.7327 34.605 88.8954 34.4423 88.8954 34.2593V24.6002H95.6263L95.5856 34.2593C95.5856 34.4423 95.7483 34.605 95.9313 34.605H100.263C100.446 34.605 100.608 34.4423 100.608 34.2593V11.6671C100.608 11.4841 100.446 11.3214 100.263 11.3214ZM61.8905 21.3262V32.9985C61.8905 33.0799 61.8702 33.2222 61.7685 33.2629C61.7685 33.2629 59.2266 35.0727 55.0376 35.0727C49.9742 35.0727 43.9754 33.4866 43.9754 23.0344C43.9754 12.5822 49.2218 10.4267 54.3462 10.447C58.7793 10.447 60.5687 11.4434 60.8534 11.6264C60.9348 11.7281 60.9754 11.8095 60.9754 11.9111L60.1214 15.5308C60.1214 15.7138 59.9384 15.9375 59.7147 15.8765C58.9826 15.6528 57.8845 15.2054 55.302 15.2054C52.3127 15.2054 49.0998 16.0595 49.0998 22.7904C49.0998 29.5212 52.1501 30.3143 54.3462 30.3143C56.217 30.3143 56.8881 30.0906 56.8881 30.0906V25.4136H53.8989C53.6752 25.4136 53.5125 25.2509 53.5125 25.0679V21.3262C53.5125 21.1432 53.6752 20.9805 53.8989 20.9805H61.5042C61.7278 20.9805 61.8905 21.1432 61.8905 21.3262Z" fill="#24292E"/>
</g>
<defs>
<clipPath id="clip0_1552_7657">
<rect width="135" height="48" fill="white" transform="translate(0.400391)"/>
</clipPath>
</defs>
</svg>
