<svg width="143" height="48" viewBox="0 0 143 48" fill="none" xmlns="http://www.w3.org/2000/svg">
<path d="M60.9559 24.6156C60.9559 31.2782 55.7436 36.1877 49.3473 36.1877C42.9506 36.1877 37.7383 31.2782 37.7383 24.6156C37.7383 17.9061 42.9506 13.0435 49.3473 13.0435C55.7436 13.0435 60.9559 17.9061 60.9559 24.6156ZM55.8739 24.6156C55.8739 20.4522 52.8533 17.6035 49.3473 17.6035C45.8409 17.6035 42.8203 20.4522 42.8203 24.6156C42.8203 28.7374 45.8409 31.6278 49.3473 31.6278C52.8533 31.6278 55.8739 28.7322 55.8739 24.6156Z" fill="#EA4335"/>
<path d="M86.0028 24.6156C86.0028 31.2782 80.7905 36.1877 74.3938 36.1877C67.9975 36.1877 62.7852 31.2782 62.7852 24.6156C62.7852 17.9113 67.9975 13.0435 74.3938 13.0435C80.7905 13.0435 86.0028 17.9061 86.0028 24.6156ZM80.9208 24.6156C80.9208 20.4522 77.9002 17.6035 74.3938 17.6035C70.8878 17.6035 67.8672 20.4522 67.8672 24.6156C67.8672 28.7374 70.8878 31.6278 74.3938 31.6278C77.9002 31.6278 80.9208 28.7322 80.9208 24.6156Z" fill="#FBBC05"/>
<path d="M110.001 13.7426V34.5183C110.001 43.0643 104.961 46.5547 99.0024 46.5547C93.3937 46.5547 90.0181 42.8033 88.7451 39.7357L93.1694 37.894C93.9574 39.7773 95.8877 42 98.9974 42C102.811 42 105.175 39.647 105.175 35.2173V33.553H104.997C103.86 34.9563 101.669 36.1827 98.9034 36.1827C93.1174 36.1827 87.8164 31.1426 87.8164 24.6574C87.8164 18.1252 93.1174 13.0435 98.9034 13.0435C101.663 13.0435 103.855 14.2695 104.997 15.6313H105.175V13.7478H110.001V13.7426ZM105.535 24.6574C105.535 20.5826 102.816 17.6035 99.3574 17.6035C95.8511 17.6035 92.9137 20.5826 92.9137 24.6574C92.9137 28.6904 95.8511 31.6278 99.3574 31.6278C102.816 31.6278 105.535 28.6904 105.535 24.6574Z" fill="#4285F4"/>
<path d="M117.956 1.56543V35.4785H113V1.56543H117.956Z" fill="#34A853"/>
<path d="M137.271 28.4242L141.215 31.0538C139.942 32.9372 136.874 36.1825 131.574 36.1825C125 36.1825 120.09 31.1007 120.09 24.6103C120.09 17.7285 125.041 13.0381 131.005 13.0381C137.01 13.0381 139.947 17.8172 140.907 20.3999L141.434 21.7146L125.965 28.1216C127.149 30.4433 128.991 31.6277 131.574 31.6277C134.161 31.6277 135.956 30.3546 137.271 28.4242ZM125.13 24.2607L135.471 19.9668C134.902 18.5216 133.191 17.5146 131.177 17.5146C128.594 17.5146 125 19.7946 125.13 24.2607Z" fill="#EA4335"/>
<path d="M18.9782 21.6051V16.6955H35.5228C35.6844 17.5512 35.7677 18.5634 35.7677 19.659C35.7677 23.3425 34.7607 27.8973 31.5156 31.1425C28.3591 34.4295 24.3261 36.1825 18.9835 36.1825C9.08085 36.1825 0.753906 28.1164 0.753906 18.2138C0.753906 8.3112 9.08085 0.245117 18.9835 0.245117C24.4617 0.245117 28.3643 2.39468 31.2965 5.19644L27.8322 8.66077C25.7295 6.6886 22.8808 5.15467 18.9782 5.15467C11.7469 5.15467 6.09131 10.9825 6.09131 18.2138C6.09131 25.4451 11.7469 31.2729 18.9782 31.2729C23.6687 31.2729 26.34 29.3895 28.0513 27.6782C29.4391 26.2903 30.3522 24.3077 30.7122 21.5999L18.9782 21.6051Z" fill="#4285F4"/>
</svg>
