<svg width="1280" height="133" viewBox="0 0 1280 133" fill="none" xmlns="http://www.w3.org/2000/svg">
<path d="M0 110.133L0 117.069C31.3495 117.164 59.1718 117.517 84.2446 117.835C125.602 118.359 159.478 118.789 189.363 117.808C237.134 116.239 275.609 111.07 320 97.0708V89.1302C274.874 103.983 236.961 109.298 188.682 110.883C159.15 111.853 126.097 111.431 85.2784 110.909C60.1302 110.587 32.0348 110.228 0 110.133Z" fill="#EBEFFF"/>
<path d="M0 87.0146L0 93.9508C31.3495 94.0453 59.1718 94.3982 84.2446 94.7163C125.602 95.2409 159.478 95.6707 189.363 94.6891C237.134 93.1201 275.609 87.952 320 73.9523V66.0117C274.874 80.8649 236.961 86.1791 188.682 87.7648C159.15 88.7347 126.097 88.312 85.2784 87.79C60.1302 87.4684 32.0348 87.1092 0 87.0146Z" fill="#EBEFFF"/>
<path d="M0 63.8962L0 70.8323C31.3495 70.9268 59.1718 71.2797 84.2446 71.5978C125.602 72.1224 159.478 72.5522 189.363 71.5706C237.134 70.0016 275.609 64.8335 320 50.8338V42.8932C274.874 57.7464 236.961 63.0606 188.682 64.6463C159.15 65.6162 126.097 65.1935 85.2788 64.6715C60.1307 64.3499 32.0348 63.9907 0 63.8962Z" fill="#EBEFFF"/>
<path d="M0 40.7777L0 47.7138C31.3495 47.8083 59.1718 48.1612 84.2446 48.4793C125.602 49.0039 159.478 49.4337 189.363 48.4521C237.134 46.8832 275.609 41.715 320 27.7153V19.7747C274.874 34.6279 236.961 39.9421 188.682 41.5278C159.15 42.4977 126.097 42.075 85.2784 41.553C60.1306 41.2315 32.034 40.8722 0 40.7777Z" fill="#EBEFFF"/>
<path d="M640 110.133V117.069C608.651 117.164 580.828 117.517 555.755 117.835C514.398 118.359 480.522 118.789 450.637 117.808C402.866 116.239 364.391 111.07 320 97.0708V89.1302C365.126 103.983 403.039 109.298 451.318 110.883C480.85 111.853 513.903 111.431 554.722 110.909C579.87 110.587 607.965 110.228 640 110.133Z" fill="#EBEFFF"/>
<path d="M640 87.0146V93.9508C608.651 94.0453 580.828 94.3982 555.755 94.7163C514.398 95.2409 480.522 95.6707 450.637 94.6891C402.866 93.1201 364.391 87.952 320 73.9523V66.0117C365.126 80.8649 403.039 86.1791 451.318 87.7648C480.85 88.7347 513.903 88.312 554.722 87.79C579.87 87.4684 607.965 87.1092 640 87.0146Z" fill="#EBEFFF"/>
<path d="M640 63.8962V70.8323C608.651 70.9268 580.828 71.2797 555.755 71.5978C514.398 72.1224 480.522 72.5522 450.637 71.5706C402.866 70.0016 364.391 64.8335 320 50.8338V42.8932C365.126 57.7464 403.039 63.0606 451.318 64.6463C480.85 65.6162 513.903 65.1935 554.721 64.6715C579.869 64.3499 607.965 63.9907 640 63.8962Z" fill="#EBEFFF"/>
<path d="M640 40.7777V47.7138C608.651 47.8083 580.828 48.1612 555.755 48.4793C514.398 49.0039 480.522 49.4337 450.637 48.4521C402.866 46.8832 364.391 41.715 320 27.7153V19.7747C365.126 34.6279 403.039 39.9421 451.318 41.5278C480.85 42.4977 513.903 42.075 554.722 41.553C579.869 41.2315 607.966 40.8722 640 40.7777Z" fill="#EBEFFF"/>
<path d="M640 110.133V117.069C671.349 117.164 699.172 117.517 724.245 117.835C765.602 118.359 799.478 118.789 829.363 117.808C877.134 116.239 915.609 111.07 960 97.0708V89.1302C914.874 103.983 876.961 109.298 828.682 110.883C799.15 111.853 766.097 111.431 725.278 110.909C700.13 110.587 672.035 110.228 640 110.133Z" fill="#EBEFFF"/>
<path d="M640 87.0146V93.9508C671.349 94.0453 699.172 94.3982 724.245 94.7163C765.602 95.2409 799.478 95.6707 829.363 94.6891C877.134 93.1201 915.609 87.952 960 73.9523V66.0117C914.874 80.8649 876.961 86.1791 828.682 87.7648C799.15 88.7347 766.097 88.312 725.278 87.79C700.13 87.4684 672.035 87.1092 640 87.0146Z" fill="#EBEFFF"/>
<path d="M640 63.8962V70.8323C671.349 70.9268 699.172 71.2797 724.245 71.5978C765.602 72.1224 799.478 72.5522 829.363 71.5706C877.134 70.0016 915.609 64.8335 960 50.8338V42.8932C914.874 57.7464 876.961 63.0606 828.682 64.6463C799.15 65.6162 766.097 65.1935 725.279 64.6715C700.131 64.3499 672.035 63.9907 640 63.8962Z" fill="#EBEFFF"/>
<path d="M640 40.7777V47.7138C671.349 47.8083 699.172 48.1612 724.245 48.4793C765.602 49.0039 799.478 49.4337 829.363 48.4521C877.134 46.8832 915.609 41.715 960 27.7153V19.7747C914.874 34.6279 876.961 39.9421 828.682 41.5278C799.15 42.4977 766.097 42.075 725.278 41.553C700.131 41.2315 672.034 40.8722 640 40.7777Z" fill="#EBEFFF"/>
<path d="M1280 110.133V117.069C1248.65 117.164 1220.83 117.517 1195.76 117.835C1154.4 118.36 1120.52 118.789 1090.64 117.808C1042.87 116.239 1004.39 111.071 960 97.0709V89.1303C1005.13 103.983 1043.04 109.298 1091.32 110.883C1120.85 111.853 1153.9 111.431 1194.72 110.909C1219.87 110.587 1247.97 110.228 1280 110.133Z" fill="#EBEFFF"/>
<path d="M1280 87.0148V93.9509C1248.65 94.0454 1220.83 94.3983 1195.76 94.7164C1154.4 95.2411 1120.52 95.6708 1090.64 94.6893C1042.87 93.1203 1004.39 87.9521 960 73.9524V66.0118C1005.13 80.865 1043.04 86.1792 1091.32 87.7649C1120.85 88.7348 1153.9 88.3121 1194.72 87.7902C1219.87 87.4686 1247.97 87.1093 1280 87.0148Z" fill="#EBEFFF"/>
<path d="M1280 63.8963V70.8324C1248.65 70.9269 1220.83 71.2799 1195.76 71.5979C1154.4 72.1226 1120.52 72.5523 1090.64 71.5708C1042.87 70.0018 1004.39 64.8336 960 50.8339V42.8933C1005.13 57.7465 1043.04 63.0607 1091.32 64.6464C1120.85 65.6163 1153.9 65.1936 1194.72 64.6717C1219.87 64.3501 1247.97 63.9908 1280 63.8963Z" fill="#EBEFFF"/>
<path d="M1280 40.7778V47.7139C1248.65 47.8084 1220.83 48.1614 1195.76 48.4794C1154.4 49.0041 1120.52 49.4338 1090.64 48.4523C1042.87 46.8833 1004.39 41.7151 960 27.7154V19.7748C1005.13 34.628 1043.04 39.9422 1091.32 41.5279C1120.85 42.4978 1153.9 42.0751 1194.72 41.5532C1219.87 41.2316 1247.97 40.8723 1280 40.7778Z" fill="#EBEFFF"/>
</svg>
