<svg width="612" height="442" viewBox="0 0 612 442" fill="none" xmlns="http://www.w3.org/2000/svg">
<g clip-path="url(#clip0_2014_27997)">
<path d="M611.116 438.61H0.884393C0.649837 438.61 0.424888 438.517 0.259032 438.351C0.0931762 438.185 0 437.961 0 437.726C0 437.492 0.0931762 437.267 0.259032 437.101C0.424888 436.935 0.649837 436.842 0.884393 436.842H611.116C611.35 436.842 611.575 436.935 611.741 437.101C611.907 437.267 612 437.492 612 437.726C612 437.961 611.907 438.185 611.741 438.351C611.575 438.517 611.35 438.61 611.116 438.61Z" fill="#CCCCCC"/>
<path d="M550.714 284.401H191.651C190.126 284.401 188.664 285.007 187.586 286.085C186.508 287.162 185.902 288.624 185.902 290.149C185.902 291.673 186.508 293.135 187.586 294.213C188.664 295.29 190.126 295.896 191.651 295.896H201.821V433.392C201.821 434.916 202.427 436.378 203.505 437.456C204.583 438.534 206.045 439.139 207.57 439.139C209.095 439.139 210.557 438.534 211.635 437.456C212.713 436.378 213.319 434.916 213.319 433.392L213.406 295.896H528.162V433.392C528.162 434.916 528.768 436.378 529.846 437.456C530.924 438.534 532.386 439.139 533.911 439.139C535.436 439.139 536.898 438.534 537.976 437.456C539.054 436.378 539.66 434.916 539.66 433.392V298.926L541.332 295.896H550.714C552.239 295.896 553.701 295.29 554.779 294.213C555.857 293.135 556.463 291.673 556.463 290.149C556.463 288.624 555.857 287.162 554.779 286.085C553.701 285.007 552.239 284.401 550.714 284.401Z" fill="#CCCCCC"/>
<path d="M390.719 287.409H281.955C279.849 287.407 277.83 286.569 276.341 285.08C274.852 283.591 274.014 281.573 274.012 279.467V219.597C274.014 217.492 274.852 215.473 276.341 213.984C277.83 212.495 279.849 211.658 281.955 211.656H390.719C392.825 211.658 394.845 212.495 396.334 213.984C397.823 215.473 398.66 217.492 398.663 219.597V279.467C398.66 281.573 397.823 283.591 396.334 285.08C394.845 286.569 392.825 287.407 390.719 287.409Z" fill="#3F3D56"/>
<path d="M390.719 217.768H281.956C281.47 217.769 281.005 217.962 280.662 218.305C280.319 218.648 280.126 219.113 280.125 219.598V279.469C280.126 279.954 280.319 280.419 280.662 280.762C281.005 281.105 281.47 281.298 281.956 281.299H390.719C391.204 281.298 391.669 281.105 392.012 280.762C392.355 280.419 392.548 279.954 392.549 279.469V219.598C392.548 219.113 392.355 218.648 392.012 218.305C391.669 217.962 391.204 217.769 390.719 217.768Z" fill="white"/>
<path d="M345.615 260.156C345.615 260.156 332.595 257.156 325.434 262.655C318.273 268.155 334.548 280.653 334.548 280.653L345.615 260.156Z" fill="#2F2E41"/>
<path d="M336.977 254.488C343.76 254.488 349.259 248.99 349.259 242.209C349.259 235.427 343.76 229.93 336.977 229.93C330.194 229.93 324.695 235.427 324.695 242.209C324.695 248.99 330.194 254.488 336.977 254.488Z" fill="#A0616A"/>
<path d="M327.478 224.972C328.297 223.582 329.484 222.445 330.908 221.688C332.333 220.93 333.939 220.581 335.549 220.678C337.234 220.889 338.878 221.349 340.427 222.043L348.456 225.175C350.533 225.985 352.809 226.977 353.71 229.017C354.547 230.909 353.923 233.095 353.291 235.066L350.287 244.432C349.954 242.312 349.383 240.237 348.585 238.245C347.773 236.24 346.307 234.568 344.424 233.502C342.339 232.432 339.881 232.455 337.539 232.567C334.224 232.727 330.619 233.149 328.263 235.487C327.012 236.815 326.164 238.47 325.818 240.261C325.477 242.042 325.305 243.851 325.305 245.665C323.945 243.328 322.8 240.873 321.883 238.33C321.129 236.436 320.699 234.429 320.612 232.393C320.533 230.339 321.214 228.328 322.526 226.745C323.192 225.972 324.06 225.4 325.034 225.093C326.008 224.787 327.047 224.758 328.036 225.011L327.478 224.972Z" fill="#2F2E41"/>
<path d="M366.3 270.803C366.184 270.389 365.949 270.017 365.623 269.736C365.298 269.454 364.896 269.275 364.469 269.221C364.441 269.201 364.411 269.183 364.38 269.168L346.046 258.894C345.522 258.601 344.906 258.521 344.325 258.671C343.743 258.82 343.242 259.188 342.925 259.698L337.911 267.815L330.358 260.263L330.238 260.143C329.85 259.756 329.339 259.517 328.793 259.47C328.247 259.422 327.701 259.568 327.252 259.882L312.184 270.432C312.157 270.432 312.131 270.441 312.104 270.441C311.383 270.561 310.724 270.924 310.237 271.469C309.75 272.014 309.463 272.708 309.424 273.438L309.035 281.299H369.209L366.3 270.803Z" fill="#001975"/>
<path d="M399.885 280.078H388.275C388.275 279.754 388.146 279.443 387.917 279.214C387.688 278.985 387.377 278.856 387.053 278.856H383.387C383.063 278.856 382.752 278.985 382.523 279.214C382.293 279.443 382.165 279.754 382.165 280.078H378.499C378.499 279.754 378.37 279.443 378.141 279.214C377.911 278.985 377.601 278.856 377.276 278.856H373.61C373.286 278.856 372.975 278.985 372.746 279.214C372.517 279.443 372.388 279.754 372.388 280.078H368.722C368.722 279.754 368.593 279.443 368.364 279.214C368.135 278.985 367.824 278.856 367.5 278.856H363.834C363.51 278.856 363.199 278.985 362.97 279.214C362.74 279.443 362.612 279.754 362.612 280.078H358.945C358.945 279.754 358.817 279.443 358.587 279.214C358.358 278.985 358.047 278.856 357.723 278.856H354.057C353.733 278.856 353.422 278.985 353.193 279.214C352.964 279.443 352.835 279.754 352.835 280.078H349.169C349.169 279.754 349.04 279.443 348.811 279.214C348.582 278.985 348.271 278.856 347.947 278.856H344.281C343.956 278.856 343.646 278.985 343.416 279.214C343.187 279.443 343.059 279.754 343.059 280.078H339.392C339.392 279.754 339.264 279.443 339.034 279.214C338.805 278.985 338.494 278.856 338.17 278.856H334.504C334.18 278.856 333.869 278.985 333.64 279.214C333.411 279.443 333.282 279.754 333.282 280.078H329.616C329.616 279.754 329.487 279.443 329.258 279.214C329.029 278.985 328.718 278.856 328.394 278.856H324.727C324.403 278.856 324.092 278.985 323.863 279.214C323.634 279.443 323.505 279.754 323.505 280.078H319.839C319.839 279.754 319.71 279.443 319.481 279.214C319.252 278.985 318.941 278.856 318.617 278.856H314.951C314.627 278.856 314.316 278.985 314.087 279.214C313.858 279.443 313.729 279.754 313.729 280.078H310.063C310.063 279.754 309.934 279.443 309.705 279.214C309.475 278.985 309.165 278.856 308.84 278.856H305.174C304.85 278.856 304.539 278.985 304.31 279.214C304.081 279.443 303.952 279.754 303.952 280.078H300.286C300.286 279.754 300.157 279.443 299.928 279.214C299.699 278.985 299.388 278.856 299.064 278.856H295.398C295.074 278.856 294.763 278.985 294.534 279.214C294.304 279.443 294.176 279.754 294.176 280.078H290.509C290.509 279.754 290.381 279.443 290.152 279.214C289.922 278.985 289.612 278.856 289.287 278.856H285.621C285.297 278.856 284.986 278.985 284.757 279.214C284.528 279.443 284.399 279.754 284.399 280.078H272.789C271.818 280.08 270.887 280.466 270.201 281.154C269.514 281.841 269.129 282.772 269.129 283.744C269.129 284.715 269.514 285.646 270.201 286.333C270.887 287.021 271.818 287.407 272.789 287.409H399.885C400.857 287.409 401.79 287.023 402.477 286.335C403.165 285.648 403.551 284.716 403.551 283.744C403.551 282.771 403.165 281.839 402.477 281.152C401.79 280.464 400.857 280.078 399.885 280.078Z" fill="#3F3D56"/>
<path d="M253.889 258.791V283.13H192.9C191.266 283.187 189.637 282.914 188.11 282.328C186.584 281.742 185.191 280.855 184.015 279.72C182.839 278.584 181.904 277.223 181.265 275.718C180.626 274.214 180.297 272.596 180.297 270.961C180.297 269.326 180.626 267.708 181.265 266.203C181.904 264.699 182.839 263.338 184.015 262.202C185.191 261.066 186.584 260.179 188.11 259.593C189.637 259.007 191.266 258.735 192.9 258.791H253.889Z" fill="#F2F2F2"/>
<path d="M255.39 282.943C255.39 283.191 255.291 283.429 255.115 283.605C254.94 283.78 254.702 283.879 254.453 283.879H191.815C188.413 283.879 185.151 282.528 182.745 280.123C180.34 277.718 178.988 274.456 178.988 271.054C178.988 267.653 180.34 264.391 182.745 261.986C185.151 259.581 188.413 258.23 191.815 258.23H254.453C254.702 258.23 254.94 258.328 255.115 258.504C255.291 258.679 255.39 258.918 255.39 259.166C255.39 259.414 255.291 259.652 255.115 259.828C254.94 260.003 254.702 260.102 254.453 260.102H191.815C188.912 260.105 186.128 261.26 184.076 263.313C182.023 265.367 180.871 268.151 180.871 271.054C180.871 273.957 182.023 276.742 184.076 278.795C186.128 280.849 188.912 282.004 191.815 282.007H254.453C254.702 282.007 254.94 282.106 255.115 282.281C255.291 282.457 255.39 282.695 255.39 282.943Z" fill="#001975"/>
<path d="M253.889 264.408H188.349C188.324 264.408 188.3 264.403 188.277 264.394C188.254 264.385 188.233 264.371 188.215 264.354C188.198 264.336 188.184 264.316 188.175 264.293C188.165 264.27 188.16 264.246 188.16 264.221C188.16 264.196 188.165 264.172 188.175 264.149C188.184 264.126 188.198 264.105 188.215 264.088C188.233 264.071 188.254 264.057 188.277 264.047C188.3 264.038 188.324 264.033 188.349 264.034H253.889C253.938 264.034 253.986 264.054 254.021 264.089C254.055 264.124 254.075 264.171 254.075 264.221C254.075 264.27 254.055 264.318 254.021 264.353C253.986 264.388 253.938 264.408 253.889 264.408Z" fill="#CCCCCC"/>
<path d="M253.889 268.901H188.349C188.324 268.902 188.3 268.897 188.277 268.888C188.254 268.878 188.233 268.864 188.215 268.847C188.198 268.83 188.184 268.809 188.175 268.786C188.165 268.763 188.16 268.739 188.16 268.714C188.16 268.69 188.165 268.665 188.175 268.642C188.184 268.619 188.198 268.599 188.215 268.581C188.233 268.564 188.254 268.55 188.277 268.541C188.3 268.532 188.324 268.527 188.349 268.527H253.889C253.938 268.527 253.986 268.547 254.021 268.582C254.055 268.617 254.075 268.665 254.075 268.714C254.075 268.764 254.055 268.811 254.021 268.846C253.986 268.881 253.938 268.901 253.889 268.901Z" fill="#CCCCCC"/>
<path d="M253.889 273.395H188.349C188.324 273.395 188.3 273.39 188.277 273.381C188.254 273.371 188.233 273.358 188.215 273.34C188.198 273.323 188.184 273.302 188.175 273.279C188.165 273.257 188.16 273.232 188.16 273.207C188.16 273.183 188.165 273.158 188.175 273.136C188.184 273.113 188.198 273.092 188.215 273.075C188.233 273.057 188.254 273.043 188.277 273.034C188.3 273.025 188.324 273.02 188.349 273.02H253.889C253.938 273.021 253.986 273.04 254.021 273.076C254.055 273.111 254.075 273.158 254.075 273.207C254.075 273.257 254.055 273.304 254.021 273.339C253.986 273.374 253.938 273.394 253.889 273.395Z" fill="#CCCCCC"/>
<path d="M253.889 277.888H188.349C188.324 277.888 188.3 277.883 188.277 277.874C188.254 277.865 188.233 277.851 188.215 277.834C188.198 277.816 188.184 277.795 188.175 277.773C188.165 277.75 188.16 277.725 188.16 277.701C188.16 277.676 188.165 277.652 188.175 277.629C188.184 277.606 188.198 277.585 188.215 277.568C188.233 277.55 188.254 277.537 188.277 277.527C188.3 277.518 188.324 277.513 188.349 277.513H253.889C253.938 277.514 253.986 277.534 254.021 277.569C254.055 277.604 254.075 277.651 254.075 277.701C254.075 277.75 254.055 277.798 254.021 277.833C253.986 277.868 253.938 277.888 253.889 277.888Z" fill="#CCCCCC"/>
<path d="M242.393 233.149V257.488H181.403C179.769 257.545 178.141 257.272 176.614 256.686C175.088 256.1 173.695 255.213 172.519 254.077C171.343 252.942 170.408 251.581 169.769 250.076C169.13 248.571 168.801 246.953 168.801 245.318C168.801 243.684 169.13 242.066 169.769 240.561C170.408 239.056 171.343 237.695 172.519 236.56C173.695 235.424 175.088 234.537 176.614 233.951C178.141 233.365 179.769 233.092 181.403 233.149H242.393Z" fill="#F2F2F2"/>
<path d="M243.894 257.301C243.893 257.549 243.795 257.787 243.619 257.962C243.444 258.138 243.205 258.237 242.957 258.237H180.319C178.635 258.237 176.967 257.905 175.411 257.261C173.854 256.616 172.44 255.671 171.249 254.48C170.058 253.29 169.113 251.876 168.469 250.32C167.824 248.764 167.492 247.096 167.492 245.412C167.492 243.728 167.824 242.06 168.469 240.504C169.113 238.948 170.058 237.535 171.249 236.344C172.44 235.153 173.854 234.208 175.411 233.564C176.967 232.919 178.635 232.587 180.319 232.587H242.957C243.206 232.587 243.444 232.686 243.619 232.862C243.795 233.037 243.894 233.275 243.894 233.524C243.894 233.772 243.795 234.01 243.619 234.185C243.444 234.361 243.206 234.46 242.957 234.46H180.319C177.416 234.462 174.632 235.617 172.58 237.671C170.527 239.725 169.375 242.509 169.375 245.412C169.375 248.315 170.527 251.099 172.58 253.153C174.632 255.207 177.416 256.362 180.319 256.365H242.957C243.205 256.365 243.444 256.463 243.619 256.639C243.795 256.814 243.893 257.052 243.894 257.301Z" fill="#3F3D56"/>
<path d="M242.393 238.766H176.853C176.828 238.766 176.803 238.761 176.781 238.752C176.758 238.742 176.737 238.729 176.719 238.711C176.702 238.694 176.688 238.673 176.678 238.65C176.669 238.628 176.664 238.603 176.664 238.578C176.664 238.554 176.669 238.529 176.678 238.507C176.688 238.484 176.702 238.463 176.719 238.446C176.737 238.428 176.758 238.414 176.781 238.405C176.803 238.396 176.828 238.391 176.853 238.391H242.393C242.442 238.392 242.49 238.411 242.525 238.447C242.559 238.482 242.579 238.529 242.579 238.578C242.579 238.628 242.559 238.675 242.525 238.71C242.49 238.745 242.442 238.765 242.393 238.766Z" fill="#CCCCCC"/>
<path d="M242.393 243.259H176.853C176.828 243.259 176.803 243.255 176.781 243.245C176.758 243.236 176.737 243.222 176.719 243.205C176.702 243.187 176.688 243.167 176.678 243.144C176.669 243.121 176.664 243.097 176.664 243.072C176.664 243.047 176.669 243.023 176.678 243C176.688 242.977 176.702 242.956 176.719 242.939C176.737 242.922 176.758 242.908 176.781 242.899C176.803 242.889 176.828 242.884 176.853 242.885H242.393C242.442 242.885 242.49 242.905 242.525 242.94C242.559 242.975 242.579 243.022 242.579 243.072C242.579 243.121 242.559 243.169 242.525 243.204C242.49 243.239 242.442 243.259 242.393 243.259Z" fill="#CCCCCC"/>
<path d="M242.393 247.752H176.853C176.828 247.753 176.803 247.748 176.781 247.738C176.758 247.729 176.737 247.715 176.719 247.698C176.702 247.681 176.688 247.66 176.678 247.637C176.669 247.614 176.664 247.59 176.664 247.565C176.664 247.54 176.669 247.516 176.678 247.493C176.688 247.47 176.702 247.45 176.719 247.432C176.737 247.415 176.758 247.401 176.781 247.392C176.803 247.382 176.828 247.378 176.853 247.378H242.393C242.442 247.378 242.49 247.398 242.525 247.433C242.559 247.468 242.579 247.516 242.579 247.565C242.579 247.615 242.559 247.662 242.525 247.697C242.49 247.732 242.442 247.752 242.393 247.752Z" fill="#CCCCCC"/>
<path d="M242.393 252.246H176.853C176.828 252.246 176.803 252.241 176.781 252.232C176.758 252.222 176.737 252.209 176.719 252.191C176.702 252.174 176.688 252.153 176.678 252.13C176.669 252.108 176.664 252.083 176.664 252.058C176.664 252.034 176.669 252.009 176.678 251.986C176.688 251.964 176.702 251.943 176.719 251.926C176.737 251.908 176.758 251.894 176.781 251.885C176.803 251.876 176.828 251.871 176.853 251.871H242.393C242.442 251.872 242.49 251.891 242.525 251.926C242.559 251.962 242.579 252.009 242.579 252.058C242.579 252.108 242.559 252.155 242.525 252.19C242.49 252.225 242.442 252.245 242.393 252.246Z" fill="#CCCCCC"/>
<path d="M313.344 369.641V348.42C313.344 347.482 312.971 346.582 312.308 345.919C311.644 345.256 310.745 344.883 309.806 344.883H229.327C228.388 344.883 227.489 345.256 226.825 345.919C226.162 346.582 225.789 347.482 225.789 348.42V369.641H313.344Z" fill="#CCCCCC"/>
<path d="M313.344 377.599H225.789V405.01H313.344V377.599Z" fill="#CCCCCC"/>
<path d="M225.789 412.968V434.189C225.789 435.127 226.162 436.027 226.825 436.69C227.489 437.353 228.388 437.726 229.327 437.726H309.806C310.745 437.726 311.644 437.353 312.308 436.69C312.971 436.027 313.344 435.127 313.344 434.189V412.968H225.789Z" fill="#CCCCCC"/>
<path d="M269.122 360.799C270.587 360.799 271.775 359.611 271.775 358.146C271.775 356.681 270.587 355.494 269.122 355.494C267.657 355.494 266.469 356.681 266.469 358.146C266.469 359.611 267.657 360.799 269.122 360.799Z" fill="white"/>
<path d="M269.122 396.168C270.587 396.168 271.775 394.98 271.775 393.515C271.775 392.05 270.587 390.862 269.122 390.862C267.657 390.862 266.469 392.05 266.469 393.515C266.469 394.98 267.657 396.168 269.122 396.168Z" fill="white"/>
<path d="M269.266 430.787C270.732 430.787 271.92 429.6 271.92 428.135C271.92 426.67 270.732 425.482 269.266 425.482C267.801 425.482 266.613 426.67 266.613 428.135C266.613 429.6 267.801 430.787 269.266 430.787Z" fill="white"/>
<path d="M303.417 320.687V345.025H242.427C240.793 345.082 239.164 344.81 237.638 344.224C236.111 343.638 234.719 342.75 233.542 341.615C232.366 340.479 231.431 339.118 230.792 337.614C230.153 336.109 229.824 334.491 229.824 332.856C229.824 331.221 230.153 329.603 230.792 328.099C231.431 326.594 232.366 325.233 233.542 324.097C234.719 322.962 236.111 322.074 237.638 321.488C239.164 320.903 240.793 320.63 242.427 320.687H303.417Z" fill="#F2F2F2"/>
<path d="M304.916 344.838C304.916 345.086 304.817 345.324 304.642 345.5C304.466 345.676 304.228 345.774 303.98 345.774H241.342C239.656 345.776 237.987 345.445 236.43 344.801C234.872 344.157 233.457 343.213 232.265 342.022C231.072 340.831 230.127 339.417 229.481 337.86C228.836 336.303 228.504 334.635 228.504 332.95C228.504 331.265 228.836 329.596 229.481 328.039C230.127 326.483 231.072 325.068 232.265 323.877C233.457 322.686 234.872 321.742 236.43 321.098C237.987 320.454 239.656 320.124 241.342 320.125H303.98C304.228 320.125 304.466 320.224 304.642 320.399C304.817 320.575 304.916 320.813 304.916 321.061C304.916 321.309 304.817 321.547 304.642 321.723C304.466 321.899 304.228 321.997 303.98 321.997H241.342C238.438 322 235.654 323.155 233.602 325.209C231.55 327.262 230.397 330.047 230.397 332.95C230.397 335.853 231.55 338.637 233.602 340.691C235.654 342.744 238.438 343.899 241.342 343.902H303.98C304.228 343.902 304.466 344.001 304.641 344.176C304.817 344.352 304.916 344.59 304.916 344.838Z" fill="#3F3D56"/>
<path d="M303.416 326.303H237.876C237.851 326.303 237.827 326.299 237.804 326.289C237.781 326.28 237.76 326.266 237.743 326.249C237.725 326.232 237.711 326.211 237.702 326.188C237.692 326.165 237.688 326.141 237.688 326.116C237.688 326.091 237.692 326.067 237.702 326.044C237.711 326.021 237.725 326.001 237.743 325.983C237.76 325.966 237.781 325.952 237.804 325.943C237.827 325.933 237.851 325.929 237.876 325.929H303.416C303.466 325.929 303.513 325.949 303.548 325.984C303.583 326.019 303.602 326.067 303.602 326.116C303.602 326.165 303.583 326.213 303.548 326.248C303.513 326.283 303.466 326.303 303.416 326.303Z" fill="#CCCCCC"/>
<path d="M303.416 330.797H237.876C237.851 330.797 237.827 330.792 237.804 330.783C237.781 330.773 237.76 330.76 237.743 330.742C237.725 330.725 237.711 330.704 237.702 330.681C237.692 330.659 237.688 330.634 237.688 330.609C237.688 330.585 237.692 330.56 237.702 330.538C237.711 330.515 237.725 330.494 237.743 330.477C237.76 330.459 237.781 330.445 237.804 330.436C237.827 330.427 237.851 330.422 237.876 330.422H303.416C303.466 330.423 303.513 330.442 303.548 330.478C303.583 330.513 303.602 330.56 303.602 330.609C303.602 330.659 303.583 330.706 303.548 330.741C303.513 330.776 303.466 330.796 303.416 330.797Z" fill="#CCCCCC"/>
<path d="M303.416 335.29H237.876C237.851 335.29 237.827 335.285 237.804 335.276C237.781 335.267 237.76 335.253 237.743 335.236C237.725 335.218 237.711 335.197 237.702 335.175C237.692 335.152 237.688 335.127 237.688 335.103C237.688 335.078 237.692 335.054 237.702 335.031C237.711 335.008 237.725 334.987 237.743 334.97C237.76 334.952 237.781 334.939 237.804 334.929C237.827 334.92 237.851 334.915 237.876 334.916H303.416C303.466 334.916 303.513 334.936 303.548 334.971C303.583 335.006 303.602 335.053 303.602 335.103C303.602 335.152 303.583 335.2 303.548 335.235C303.513 335.27 303.466 335.29 303.416 335.29Z" fill="#CCCCCC"/>
<path d="M303.416 339.783H237.876C237.851 339.783 237.827 339.779 237.804 339.769C237.781 339.76 237.76 339.746 237.743 339.729C237.725 339.711 237.711 339.691 237.702 339.668C237.692 339.645 237.688 339.621 237.688 339.596C237.688 339.571 237.692 339.547 237.702 339.524C237.711 339.501 237.725 339.48 237.743 339.463C237.76 339.446 237.781 339.432 237.804 339.423C237.827 339.413 237.851 339.409 237.876 339.409H303.416C303.466 339.409 303.513 339.429 303.548 339.464C303.583 339.499 303.602 339.546 303.602 339.596C303.602 339.645 303.583 339.693 303.548 339.728C303.513 339.763 303.466 339.783 303.416 339.783Z" fill="#CCCCCC"/>
<path d="M221.195 161.831V6.65059C221.197 4.88736 221.899 3.19693 223.146 1.95013C224.393 0.703342 226.084 0.00200562 227.847 0H350.538C352.301 0.00201729 353.992 0.703358 355.239 1.95015C356.486 3.19694 357.188 4.88737 357.19 6.65059V161.831C357.188 163.594 356.486 165.285 355.239 166.531C353.992 167.778 352.301 168.479 350.538 168.481H227.847C226.084 168.479 224.393 167.778 223.146 166.531C221.899 165.285 221.197 163.594 221.195 161.831ZM227.847 1.47791C226.476 1.47945 225.16 2.02492 224.191 2.99465C223.221 3.96438 222.675 5.27918 222.674 6.65059V161.831C222.675 163.202 223.221 164.517 224.191 165.487C225.16 166.457 226.476 167.002 227.847 167.004H350.538C351.909 167.002 353.225 166.457 354.194 165.487C355.164 164.517 355.71 163.202 355.711 161.831V6.65059C355.71 5.27918 355.164 3.96438 354.194 2.99465C353.225 2.02492 351.909 1.47945 350.538 1.47791H227.847Z" fill="#E6E6E6"/>
<path d="M296.074 71.266V39.4026C296.075 38.5209 296.426 37.6757 297.049 37.0523C297.673 36.4289 298.518 36.0782 299.4 36.0773H326.407C327.289 36.0782 328.134 36.4289 328.758 37.0523C329.381 37.6757 329.732 38.5209 329.733 39.4026V71.266C329.732 72.1476 329.381 72.9928 328.758 73.6162C328.134 74.2396 327.289 74.5903 326.407 74.5913H299.4C298.518 74.5903 297.673 74.2396 297.049 73.6162C296.426 72.9928 296.075 72.1476 296.074 71.266Z" fill="#001975"/>
<path d="M243.598 86.045V54.1817C243.599 53.3001 243.949 52.4548 244.573 51.8314C245.196 51.208 246.042 50.8574 246.924 50.8564H273.93C274.812 50.8574 275.658 51.208 276.281 51.8314C276.905 52.4548 277.255 53.3001 277.256 54.1817V86.0451C277.255 86.9267 276.905 87.7719 276.281 88.3953C275.658 89.0187 274.812 89.3694 273.93 89.3704H246.924C246.042 89.3694 245.196 89.0187 244.573 88.3953C243.949 87.7719 243.599 86.9266 243.598 86.045Z" fill="#CCCCCC"/>
<path d="M285.727 131.121V99.2578C285.728 98.3762 286.078 97.5309 286.702 96.9075C287.325 96.2841 288.171 95.9335 289.052 95.9325H316.059C316.941 95.9335 317.786 96.2841 318.41 96.9075C319.033 97.5309 319.384 98.3762 319.385 99.2578V131.121C319.384 132.003 319.033 132.848 318.41 133.471C317.786 134.095 316.941 134.445 316.059 134.446H289.052C288.171 134.445 287.325 134.095 286.702 133.471C286.078 132.848 285.728 132.003 285.727 131.121Z" fill="#FF8080"/>
<path d="M447.117 276.798H419.329C419.066 276.798 418.805 276.859 418.569 276.975L411.555 280.486C411.325 280.584 411.128 280.747 410.989 280.956C410.851 281.166 410.777 281.411 410.777 281.662C410.777 281.912 410.851 282.157 410.989 282.367C411.128 282.576 411.325 282.739 411.555 282.838L418.569 286.348C418.805 286.464 419.066 286.525 419.329 286.525H447.117C447.5 286.547 447.876 286.417 448.164 286.164C448.452 285.911 448.629 285.554 448.656 285.172V278.151C448.629 277.769 448.452 277.412 448.164 277.159C447.876 276.906 447.5 276.776 447.117 276.798Z" fill="#3F3D56"/>
<path d="M448.657 278.151V285.172C448.63 285.554 448.453 285.911 448.165 286.164C447.877 286.417 447.501 286.547 447.118 286.525H441.582V276.798H447.118C447.501 276.776 447.877 276.906 448.165 277.159C448.453 277.412 448.63 277.769 448.657 278.151Z" fill="#001975"/>
<path d="M446.905 224.276C448.164 223.733 449.523 223.462 450.894 223.48C452.265 223.499 453.616 223.807 454.859 224.384C456.103 224.962 457.21 225.795 458.109 226.83C459.008 227.865 459.677 229.078 460.075 230.39C460.198 230.806 460.293 231.23 460.358 231.659L499.216 250.924L508.209 244.966L519.398 257.845L505.667 268.994C504.016 270.325 501.98 271.087 499.86 271.169C497.741 271.251 495.652 270.647 493.904 269.448L454.478 242.189C454.185 242.314 453.885 242.423 453.58 242.516C452.268 242.913 450.887 243.028 449.527 242.854C448.167 242.68 446.859 242.221 445.69 241.506C444.52 240.791 443.514 239.837 442.739 238.707C441.963 237.577 441.435 236.295 441.19 234.947C441.117 234.555 441.069 234.16 441.046 233.762C440.937 231.772 441.44 229.796 442.487 228.1C443.535 226.404 445.077 225.069 446.905 224.276Z" fill="#FFB8B8"/>
<path d="M527.842 342.892H485.382C485.382 344.113 441.622 345.103 441.622 345.103C440.936 345.62 440.31 346.213 439.757 346.871C438.094 348.853 437.186 351.359 437.191 353.945V355.713C437.193 358.645 438.358 361.455 440.43 363.528C442.503 365.6 445.315 366.765 448.246 366.766H527.842C530.773 366.764 533.583 365.598 535.656 363.526C537.729 361.454 538.894 358.644 538.897 355.713V353.945C538.893 351.015 537.727 348.206 535.654 346.134C533.582 344.062 530.772 342.896 527.842 342.892Z" fill="#3F3D56"/>
<path d="M481.655 440.602H493.152V366.327H481.655V440.602Z" fill="#3F3D56"/>
<path d="M448.934 440.198C448.934 441.44 466.356 440.678 487.847 440.678C509.338 440.678 526.76 441.44 526.76 440.198C526.76 438.956 509.338 429.107 487.847 429.107C466.356 429.107 448.934 438.956 448.934 440.198Z" fill="#3F3D56"/>
<path d="M459.313 431.492L448.471 431.491L443.312 403.376L459.315 403.377L459.313 431.492Z" fill="#FFB8B8"/>
<path d="M462.078 442L427.117 441.999V441.557C427.117 439.77 427.469 438.001 428.153 436.35C428.837 434.7 429.839 433.2 431.103 431.936C432.366 430.673 433.866 429.671 435.517 428.987C437.168 428.304 438.938 427.952 440.725 427.952H440.726L462.078 427.953L462.078 442Z" fill="#2F2E41"/>
<path d="M443.095 414.057L421.48 365.595C419.675 361.511 419.475 356.896 420.921 352.671C422.366 348.446 425.35 344.921 429.279 342.796L476.163 317.66L497.558 315.841L517.293 314.047L517.435 314.288C517.617 314.596 521.86 321.923 518.992 329.958C516.817 336.053 511.157 340.813 502.172 344.107C481.199 351.796 456.972 358.367 447.529 360.835C447.111 360.942 446.721 361.135 446.384 361.404C446.047 361.672 445.771 362.008 445.573 362.391C445.375 362.769 445.257 363.184 445.227 363.61C445.197 364.036 445.256 364.464 445.399 364.866L465.481 409.974C465.691 410.546 465.766 411.158 465.702 411.764C465.637 412.37 465.434 412.953 465.109 413.468C464.783 413.983 464.344 414.417 463.824 414.735C463.305 415.054 462.719 415.249 462.112 415.305L447.107 416.397C446.98 416.409 446.853 416.415 446.727 416.415C445.958 416.415 445.206 416.192 444.562 415.774C443.917 415.355 443.408 414.759 443.095 414.057Z" fill="#2F2E41"/>
<path d="M464.618 431.492L453.776 431.491L448.617 403.376L464.619 403.377L464.618 431.492Z" fill="#FFB8B8"/>
<path d="M467.382 442L432.422 441.999V441.557C432.422 439.77 432.774 438.001 433.458 436.35C434.142 434.7 435.144 433.2 436.407 431.936C437.671 430.673 439.171 429.671 440.822 428.987C442.473 428.304 444.243 427.952 446.03 427.952H446.03L467.383 427.953L467.382 442Z" fill="#2F2E41"/>
<path d="M449.286 416.71L427.671 368.248C425.866 364.163 425.667 359.549 427.112 355.324C428.557 351.099 431.542 347.573 435.47 345.449L482.355 320.313L503.749 318.493L523.484 316.7L523.627 316.941C523.809 317.248 528.052 324.576 525.184 332.611C523.008 338.705 517.349 343.466 508.363 346.76C487.391 354.448 463.163 361.02 453.72 363.488C453.303 363.594 452.913 363.788 452.576 364.056C452.239 364.324 451.962 364.661 451.764 365.044C451.566 365.422 451.449 365.837 451.419 366.263C451.389 366.689 451.447 367.116 451.591 367.518L471.672 412.626C471.882 413.199 471.958 413.811 471.893 414.417C471.829 415.023 471.626 415.606 471.3 416.121C470.975 416.636 470.535 417.07 470.016 417.388C469.496 417.706 468.91 417.901 468.303 417.958L453.298 419.05C453.171 419.062 453.044 419.068 452.918 419.068C452.149 419.068 451.398 418.845 450.753 418.426C450.109 418.008 449.599 417.412 449.286 416.71Z" fill="#2F2E41"/>
<path d="M438.512 268.665C429.429 256.585 422.248 243.187 417.22 228.935C416.929 228.083 416.949 227.154 417.278 226.316C417.608 225.477 418.224 224.782 419.017 224.355L450.099 207.704C450.602 207.433 451.16 207.28 451.731 207.256C452.302 207.233 452.871 207.341 453.394 207.57C453.927 207.802 454.4 208.152 454.777 208.594C455.154 209.036 455.426 209.558 455.571 210.121C459.188 223.854 465.989 236.543 475.421 247.161C475.81 247.593 476.094 248.108 476.253 248.667C476.413 249.226 476.442 249.814 476.34 250.385C476.241 250.948 476.016 251.481 475.68 251.944C475.345 252.406 474.908 252.786 474.403 253.054L443.321 269.705C442.526 270.129 441.606 270.257 440.726 270.067C439.845 269.876 439.061 269.379 438.512 268.665Z" fill="#CCCCCC"/>
<path d="M440.633 267.071C440.801 267.28 441.035 267.423 441.297 267.478C441.559 267.532 441.832 267.493 442.068 267.367L473.15 250.716C473.301 250.637 473.432 250.525 473.532 250.387C473.632 250.249 473.699 250.09 473.728 249.923C473.76 249.745 473.751 249.563 473.701 249.39C473.651 249.217 473.562 249.058 473.44 248.925C463.729 237.994 456.729 224.931 453.005 210.793C452.961 210.619 452.878 210.456 452.762 210.319C452.646 210.182 452.499 210.073 452.334 210.002C452.178 209.932 452.009 209.9 451.838 209.907C451.668 209.914 451.501 209.96 451.352 210.043L420.27 226.694C420.035 226.821 419.851 227.026 419.751 227.274C419.651 227.523 419.641 227.798 419.722 228.053C424.661 242.049 431.713 255.208 440.633 267.071Z" fill="white"/>
<path d="M541.772 264.223L517.429 273.471L511.486 256.966C510.697 254.774 510.708 252.374 511.518 250.19C512.327 248.006 513.883 246.178 515.91 245.029C517.96 243.868 520.359 243.477 522.672 243.929C524.985 244.38 527.061 245.644 528.524 247.491L541.772 264.223Z" fill="#001975"/>
<path d="M479.855 329.62C479.342 329.257 478.913 328.79 478.595 328.249C478.278 327.708 478.079 327.105 478.012 326.482C474.894 297.382 477.066 274.61 484.65 256.863C485.986 253.802 487.998 251.084 490.536 248.912C493.074 246.74 496.071 245.172 499.302 244.325L518.979 243.332L519.081 243.381C523.521 245.556 527.142 249.103 529.408 253.497C531.673 257.891 532.461 262.898 531.656 267.775C525.327 284.455 520.028 301.82 524.069 315.829C524.239 316.415 524.288 317.029 524.215 317.634C524.141 318.239 523.946 318.823 523.642 319.351C523.346 319.862 522.949 320.306 522.475 320.657C522.001 321.008 521.46 321.259 520.886 321.393L483.407 330.307C482.8 330.451 482.169 330.465 481.557 330.346C480.944 330.228 480.364 329.98 479.855 329.62Z" fill="#001975"/>
<path d="M512.413 235.984C524.41 235.984 534.135 226.261 534.135 214.267C534.135 202.272 524.41 192.549 512.413 192.549C500.417 192.549 490.691 202.272 490.691 214.267C490.691 226.261 500.417 235.984 512.413 235.984Z" fill="#FFB8B8"/>
<path d="M452.141 231.467L435.213 238.938C434.569 239.222 433.839 239.238 433.183 238.984C432.527 238.73 431.999 238.226 431.714 237.583L431.295 236.635C431.012 235.991 430.996 235.261 431.25 234.605C431.504 233.95 432.008 233.421 432.651 233.137L449.58 225.665C450.224 225.382 450.954 225.366 451.609 225.62C452.265 225.874 452.794 226.378 453.078 227.021L453.497 227.969C453.781 228.613 453.797 229.343 453.543 229.999C453.289 230.654 452.785 231.183 452.141 231.467Z" fill="#CCCCCC"/>
<path d="M458.329 242.962L441.4 250.433C440.756 250.717 440.026 250.733 439.371 250.479C438.715 250.225 438.186 249.721 437.902 249.078L437.483 248.13C437.199 247.486 437.183 246.756 437.437 246.1C437.691 245.444 438.195 244.916 438.839 244.632L455.767 237.16C456.411 236.877 457.141 236.861 457.797 237.115C458.453 237.369 458.981 237.873 459.266 238.516L459.685 239.464C459.968 240.108 459.984 240.838 459.73 241.493C459.476 242.149 458.972 242.677 458.329 242.962Z" fill="#CCCCCC"/>
<path d="M471.386 287.86L433.645 258.092C433.344 258.198 433.038 258.288 432.728 258.362C431.396 258.674 430.014 258.702 428.67 258.444C427.326 258.186 426.052 257.649 424.93 256.867C423.8 256.084 422.851 255.069 422.145 253.89C421.44 252.71 420.994 251.394 420.838 250.029C420.585 247.846 421.077 245.642 422.235 243.774C423.392 241.906 425.147 240.484 427.214 239.738C428.504 239.275 429.878 239.09 431.245 239.195C432.611 239.3 433.941 239.693 435.145 240.347C436.35 241.001 437.402 241.903 438.234 242.992C439.066 244.081 439.658 245.334 439.972 246.668C440.07 247.091 440.137 247.52 440.175 247.952L477.745 269.622L487.095 264.24L497.452 277.797L482.935 288.142C481.236 289.343 479.194 289.964 477.114 289.913C475.033 289.863 473.025 289.143 471.386 287.86Z" fill="#FFB8B8"/>
<path d="M502.057 282.019L480.523 267.379L490.643 253.048C491.987 251.145 493.961 249.779 496.215 249.19C498.469 248.601 500.859 248.827 502.962 249.83C505.089 250.843 506.784 252.585 507.74 254.738C508.696 256.892 508.85 259.317 508.175 261.574L502.057 282.019Z" fill="#001975"/>
<path d="M504.45 211.032C498.867 214.852 491.537 218.779 485.834 214.711C482.09 212.04 480.911 207.093 482.429 202.752C485.159 194.946 492.661 191.509 499.834 188.875C509.16 185.45 519.314 182.726 528.941 185.178C538.568 187.631 547.076 196.95 545.338 206.729C543.94 214.593 536.52 221.137 537.574 229.055C538.634 237.024 547.597 241.218 555.511 242.643C563.424 244.067 572.279 244.524 577.966 250.207C585.221 257.457 583.409 270.414 576.583 278.069C569.756 285.723 559.455 289.192 549.473 291.551C536.247 294.676 521.942 296.318 509.381 291.132C496.82 285.946 487.045 271.985 490.684 258.893C492.221 253.364 495.842 248.69 499.341 244.141C502.84 239.591 506.384 234.833 507.718 229.251C508.831 224.6 508.007 219.199 504.922 215.71C504.361 215.099 504.008 214.326 503.913 213.502C503.819 212.678 503.988 211.846 504.396 211.124L504.45 211.032Z" fill="#2F2E41"/>
<path d="M96.463 316.549C90.8657 318.516 84.8561 319.008 79.0131 317.979C73.1701 316.95 67.6907 314.434 63.1027 310.673C51.4181 300.868 47.7546 284.714 44.7738 269.756C41.8348 255.009 38.8959 240.261 35.957 225.514L54.4158 238.221C67.6902 247.36 81.2637 256.791 90.4548 270.027C99.646 283.264 103.658 301.333 96.2731 315.656" fill="#E6E6E6"/>
<path d="M94.8846 370.113C96.7529 356.507 98.674 342.727 97.3635 328.975C96.1996 316.762 92.4729 304.833 84.8857 295.053C80.8584 289.871 75.958 285.431 70.4048 281.933C68.9567 281.019 67.6239 283.314 69.0657 284.224C78.6744 290.295 86.1064 299.261 90.2901 309.827C94.9109 321.578 95.653 334.388 94.8567 346.87C94.3752 354.419 93.3546 361.918 92.3262 369.408C92.2451 369.747 92.2957 370.104 92.4677 370.407C92.6397 370.709 92.9202 370.936 93.2527 371.04C93.5919 371.131 93.9535 371.085 94.259 370.912C94.5645 370.738 94.7893 370.451 94.8846 370.113Z" fill="#F2F2F2"/>
<path d="M76.8906 346.037C74.49 349.685 71.1903 352.653 67.3093 354.656C63.4284 356.659 59.0969 357.628 54.7323 357.472C43.5155 356.939 34.1642 349.112 25.7462 341.681L0.847656 319.702L17.3264 318.913C29.1769 318.346 41.3332 317.817 52.6204 321.471C63.9076 325.125 74.3173 333.918 76.3812 345.599" fill="#E6E6E6"/>
<path d="M100.166 377.935C91.1739 362.027 80.7436 344.346 62.1065 338.696C56.9245 337.13 51.4908 336.569 46.0981 337.043C44.3984 337.19 44.8229 339.809 46.5194 339.663C55.5588 338.912 64.5808 341.299 72.0664 346.42C79.2697 351.322 84.8782 358.138 89.6252 365.365C92.5329 369.792 95.1375 374.406 97.7425 379.015C98.575 380.488 101.008 379.425 100.166 377.935Z" fill="#F2F2F2"/>
<path d="M114.572 394.679C114.269 391.169 113.009 387.81 110.928 384.966C108.848 382.123 106.027 379.905 102.772 378.554V369.357H87.3441V378.844C84.2499 380.261 81.5871 382.474 79.627 385.255C77.6669 388.037 76.4797 391.289 76.1864 394.679L72.5586 436.842H118.2L114.572 394.679Z" fill="#F2F2F2"/>
</g>
<defs>
<clipPath id="clip0_2014_27997">
<rect width="612" height="442" fill="white"/>
</clipPath>
</defs>
</svg>
