<svg width="21" height="20" viewBox="0 0 21 20" fill="none" xmlns="http://www.w3.org/2000/svg">
<path d="M9.38333 7.40817L10.1667 9.99984H12.5167L10.625 11.3498L11.4 13.8582L9.38333 12.3248L7.36667 13.8582L8.14167 11.3498L6.25 9.99984H8.6L9.38333 7.40817ZM7.36667 8.33317H1.05L6.19167 12.0082L4.24167 18.3332L9.38333 14.4248L14.5333 18.3332L12.575 12.0082L17.7167 8.33317H11.4L9.38333 1.6665L7.36667 8.33317ZM18.0167 18.3332L16.4667 13.3248L19.95 10.8332H17.0833L14.5167 12.6665L15.7333 16.5998L18.0167 18.3332ZM14.3833 6.6665L12.8667 1.6665L12 4.5415L12.6417 6.6665H14.3833Z" fill="#2B3F8C"/>
</svg>
