<svg width="176" height="48" viewBox="0 0 176 48" fill="none" xmlns="http://www.w3.org/2000/svg">
<g clip-path="url(#clip0_5532_35674)">
<path fill-rule="evenodd" clip-rule="evenodd" d="M57.8458 25.0746L58.4393 21.6952C58.4393 21.6952 53.8685 20.2107 50.1484 22.9638V36.4824H54.0989V25.4991C55.6731 24.2306 57.8458 25.0746 57.8458 25.0746Z" fill="#03435F"/>
<mask id="mask0_5532_35674" style="mask-type:luminance" maskUnits="userSpaceOnUse" x="50" y="21" width="9" height="16">
<path d="M50.1484 22.9633C51.9383 21.639 53.9253 21.2952 55.5052 21.2954C57.2089 21.2954 58.4396 21.695 58.4396 21.695L57.8458 25.0743C57.8458 25.0743 55.6731 24.2303 54.0989 25.4986V36.4819H50.1484V22.9633Z" fill="white"/>
</mask>
<g mask="url(#mask0_5532_35674)">
<path fill-rule="evenodd" clip-rule="evenodd" d="M-190.328 78.3813L365.994 78.3813V-709.741H-190.328L-190.328 78.3813Z" fill="#03435F"/>
</g>
<mask id="mask1_5532_35674" style="mask-type:luminance" maskUnits="userSpaceOnUse" x="50" y="21" width="9" height="16">
<path d="M50.1484 22.9633C51.9383 21.639 53.925 21.2954 55.5052 21.2954C57.2089 21.2954 58.4396 21.695 58.4396 21.695L57.8458 25.0743C57.8458 25.0743 55.6731 24.2303 54.0989 25.4986V36.4819H50.1484V22.9633Z" fill="white"/>
</mask>
<g mask="url(#mask1_5532_35674)">
<path fill-rule="evenodd" clip-rule="evenodd" d="M43.5273 43.105H65.0641V14.6725H43.5273V43.105Z" fill="#03435F"/>
</g>
<path fill-rule="evenodd" clip-rule="evenodd" d="M23.7891 17.8411L27.7377 17.0972V21.4939H31.645V25.0099H27.7377V30.2534C27.7377 31.1467 27.8821 31.8558 28.1775 32.3802C28.4694 32.9126 29.055 33.1765 29.9343 33.1765C30.3643 33.1765 30.7961 33.1352 31.2516 33.0477C31.6943 32.9588 32.107 32.8445 32.4784 32.6949L33.0371 35.9883C32.5592 36.1934 32.0309 36.3714 31.4485 36.5223C30.8642 36.6716 30.1469 36.7495 29.2993 36.7495C28.2218 36.7495 27.3314 36.5924 26.6234 36.2808C25.9189 35.9692 25.3525 35.532 24.9302 34.9741C24.508 34.421 24.211 33.7424 24.0444 32.9477C23.8747 32.1545 23.7891 31.2785 23.7891 30.3122V17.8411Z" fill="#03435F"/>
<mask id="mask2_5532_35674" style="mask-type:luminance" maskUnits="userSpaceOnUse" x="23" y="17" width="11" height="20">
<path d="M23.7891 17.8411L27.7377 17.0972V21.4939H31.645V25.0099H27.7377V30.2534C27.7377 31.147 27.8821 31.8558 28.1772 32.3802C28.4692 32.9128 29.0547 33.1765 29.9341 33.1765C30.3641 33.1765 30.7956 33.1352 31.2514 33.0477C31.694 32.9588 32.107 32.8445 32.4784 32.6951L33.0369 35.9883C32.5592 36.1936 32.0306 36.3716 31.4482 36.5225C30.864 36.6719 30.1466 36.7495 29.299 36.7495C28.2213 36.7495 27.3312 36.5924 26.6234 36.2808C25.9186 35.9692 25.352 35.532 24.9299 34.9743C24.5077 34.421 24.211 33.7424 24.0444 32.9477C23.8744 32.1545 23.7891 31.2788 23.7891 30.3122V17.8411Z" fill="white"/>
</mask>
<g mask="url(#mask2_5532_35674)">
<path fill-rule="evenodd" clip-rule="evenodd" d="M-190.328 78.3813L365.994 78.3813V-709.741H-190.328L-190.328 78.3813Z" fill="#03435F"/>
</g>
<mask id="mask3_5532_35674" style="mask-type:luminance" maskUnits="userSpaceOnUse" x="23" y="17" width="11" height="20">
<path d="M23.7891 17.8411L27.7377 17.0972V21.4939H31.645V25.0099H27.7377V30.2534C27.7377 31.147 27.8821 31.8558 28.1772 32.3802C28.4692 32.9128 29.0547 33.1765 29.9341 33.1765C30.3641 33.1765 30.7956 33.1352 31.2514 33.0477C31.694 32.9588 32.107 32.8445 32.4784 32.6951L33.0369 35.9883C32.5592 36.1936 32.0306 36.3716 31.4482 36.5225C30.864 36.6719 30.1466 36.7495 29.299 36.7495C28.2213 36.7495 27.3312 36.5924 26.6234 36.2808C25.9186 35.9692 25.352 35.532 24.9299 34.9743C24.5077 34.421 24.211 33.7424 24.0444 32.9477C23.8744 32.1545 23.7891 31.2788 23.7891 30.3122V17.8411Z" fill="white"/>
</mask>
<g mask="url(#mask3_5532_35674)">
<path fill-rule="evenodd" clip-rule="evenodd" d="M17.1641 43.3726H39.6577V10.4742H17.1641L17.1641 43.3726Z" fill="#03435F"/>
</g>
<path fill-rule="evenodd" clip-rule="evenodd" d="M64.2879 33.455C65.0102 33.455 65.5211 33.3753 65.8245 33.226C66.1258 33.0751 66.2718 32.7795 66.2718 32.3472C66.2718 32.0054 66.0814 31.7082 65.6909 31.4555C65.3006 31.198 64.7133 30.912 63.9167 30.5859C63.2992 30.3396 62.7374 30.0855 62.2311 29.8232C61.7312 29.5562 61.3027 29.2446 60.9488 28.8742C60.5962 28.5056 60.3233 28.0635 60.1265 27.5486C59.9297 27.0431 59.8363 26.4312 59.8363 25.7095C59.8363 24.3122 60.3233 23.2043 61.2932 22.3921C62.2643 21.5831 63.5945 21.1699 65.2926 21.1699C66.1417 21.1699 66.9543 21.2509 67.732 21.4147C68.5082 21.5736 69.1288 21.7549 69.584 21.9376L68.8969 25.2276C68.4367 25.0577 67.9368 24.9083 67.3987 24.778C66.8606 24.6447 66.2545 24.5745 65.5846 24.5745C64.3483 24.5745 63.7292 24.9465 63.7292 25.6824C63.7292 25.8524 63.7563 26.0035 63.8102 26.1354C63.8641 26.269 63.9691 26.3961 64.1246 26.5184C64.2879 26.6394 64.5007 26.7758 64.7767 26.9159C65.0512 27.0637 65.4004 27.2161 65.8245 27.3895C66.686 27.7328 67.4018 28.0666 67.967 28.4037C68.5334 28.7406 68.9778 29.0953 69.3065 29.4891C69.6333 29.874 69.8652 30.3001 69.9952 30.7734C70.1255 31.2458 70.1935 31.7908 70.1935 32.4124C70.1935 33.8858 69.6761 34.9999 68.6461 35.7533C67.6113 36.5037 66.1479 36.8818 64.2577 36.8818C63.0229 36.8818 61.9945 36.7722 61.174 36.5419C60.3504 36.3177 59.7821 36.124 59.4648 35.9744L60.1265 32.5442C60.7948 32.8272 61.49 33.0465 62.1916 33.2121C62.9025 33.3741 63.5945 33.455 64.2879 33.455Z" fill="#03435F"/>
<mask id="mask4_5532_35674" style="mask-type:luminance" maskUnits="userSpaceOnUse" x="59" y="21" width="12" height="16">
<path d="M61.2932 22.3923C62.2646 21.5831 63.5945 21.1699 65.2926 21.1699C66.142 21.1699 66.9545 21.2509 67.7323 21.4147C68.5081 21.5736 69.1288 21.7547 69.5843 21.9376L68.8971 25.2276C68.4367 25.0577 67.937 24.9083 67.3987 24.778C66.8609 24.6444 66.2545 24.5748 65.5848 24.5748C64.3483 24.5748 63.7295 24.9462 63.7295 25.6824C63.7295 25.8524 63.7563 26.0035 63.8102 26.1354C63.8644 26.269 63.9693 26.3961 64.1249 26.5184C64.2879 26.6394 64.501 26.7758 64.777 26.9159C65.0514 27.0634 65.4004 27.2164 65.8245 27.3895C66.6863 27.7328 67.4021 28.0666 67.967 28.4037C68.5337 28.7406 68.9781 29.095 69.3067 29.4891C69.6336 29.874 69.8652 30.2999 69.9955 30.7734C70.1257 31.2458 70.1935 31.7908 70.1935 32.4124C70.1935 33.8858 69.6761 35.0001 68.6464 35.7533C67.6115 36.5037 66.1482 36.8818 64.258 36.8818C63.0232 36.8818 61.9948 36.7722 61.1743 36.5419C60.3504 36.3177 59.7824 36.124 59.4648 35.9744L60.1267 32.5442C60.7951 32.8275 61.49 33.0465 62.1916 33.2121C62.9025 33.3738 63.5945 33.455 64.2879 33.455C65.0102 33.455 65.5214 33.3756 65.8245 33.226C66.126 33.0751 66.272 32.7795 66.272 32.3472C66.272 32.0054 66.0816 31.7082 65.6911 31.4555C65.3006 31.198 64.7133 30.912 63.9167 30.5859C63.2992 30.3396 62.7377 30.0855 62.2311 29.8232C61.7314 29.5562 61.3027 29.2446 60.9491 28.8742C60.5965 28.5053 60.3236 28.0635 60.1267 27.5486C59.9299 27.0428 59.8363 26.4312 59.8363 25.7095C59.8363 24.3124 60.3236 23.2046 61.2932 22.3923Z" fill="white"/>
</mask>
<g mask="url(#mask4_5532_35674)">
<path fill-rule="evenodd" clip-rule="evenodd" d="M-190.328 78.3813L365.994 78.3813V-709.741H-190.328L-190.328 78.3813Z" fill="#03435F"/>
</g>
<mask id="mask5_5532_35674" style="mask-type:luminance" maskUnits="userSpaceOnUse" x="59" y="21" width="12" height="16">
<path d="M61.2932 22.3923C62.2646 21.5831 63.5945 21.1699 65.2926 21.1699C66.142 21.1699 66.9545 21.2509 67.7323 21.4147C68.5081 21.5736 69.1288 21.7547 69.5843 21.9376L68.8971 25.2276C68.4367 25.0577 67.937 24.9083 67.3987 24.778C66.8609 24.6444 66.2545 24.5748 65.5848 24.5748C64.3483 24.5748 63.7295 24.9462 63.7295 25.6824C63.7295 25.8524 63.7563 26.0035 63.8102 26.1354C63.8644 26.269 63.9693 26.3961 64.1249 26.5184C64.2879 26.6394 64.501 26.7758 64.777 26.9159C65.0514 27.0634 65.4004 27.2164 65.8245 27.3895C66.6863 27.7328 67.4021 28.0666 67.967 28.4037C68.5337 28.7406 68.9781 29.095 69.3067 29.4891C69.6336 29.874 69.8652 30.2999 69.9955 30.7734C70.1257 31.2458 70.1935 31.7908 70.1935 32.4124C70.1935 33.8858 69.6761 35.0001 68.6464 35.7533C67.6115 36.5037 66.1482 36.8818 64.258 36.8818C63.0232 36.8818 61.9948 36.7722 61.1743 36.5419C60.3504 36.3177 59.7824 36.124 59.4648 35.9744L60.1267 32.5442C60.7951 32.8275 61.49 33.0465 62.1916 33.2121C62.9025 33.3738 63.5945 33.455 64.2879 33.455C65.0102 33.455 65.5214 33.3756 65.8245 33.226C66.126 33.0751 66.272 32.7795 66.272 32.3472C66.272 32.0054 66.0816 31.7082 65.6911 31.4555C65.3006 31.198 64.7133 30.912 63.9167 30.5859C63.2992 30.3396 62.7377 30.0855 62.2311 29.8232C61.7314 29.5562 61.3027 29.2446 60.9491 28.8742C60.5965 28.5053 60.3236 28.0635 60.1267 27.5486C59.9299 27.0428 59.8363 26.4312 59.8363 25.7095C59.8363 24.3124 60.3236 23.2046 61.2932 22.3923Z" fill="white"/>
</mask>
<g mask="url(#mask5_5532_35674)">
<path fill-rule="evenodd" clip-rule="evenodd" d="M52.8438 43.5049H76.8185V14.5469H52.8438V43.5049Z" fill="#03435F"/>
</g>
<path fill-rule="evenodd" clip-rule="evenodd" d="M82.3649 27.921C82.011 29.358 81.638 30.7885 81.2397 32.2031C80.8427 33.6226 80.4205 35.05 79.9843 36.4868H76.9101C76.591 35.6921 76.2436 34.748 75.8721 33.6528C75.4973 32.5529 75.1151 31.3591 74.7134 30.0606C74.3165 28.7665 73.9105 27.3966 73.4944 25.9469C73.0771 24.5037 72.6723 23.0445 72.2852 21.5678H76.4466C76.5846 22.2465 76.7417 22.9922 76.9114 23.7946C77.0798 24.5989 77.2576 25.4272 77.4433 26.2792C77.629 27.1281 77.8273 27.9813 78.0304 28.8429C78.2352 29.7044 78.4449 30.5293 78.6572 31.3227C78.8875 30.4914 79.113 29.6425 79.3335 28.773C79.5509 27.9021 79.7653 27.0468 79.9699 26.2061C80.1716 25.3668 80.3699 24.5514 80.5507 23.7662C80.7349 22.9824 80.8985 22.2465 81.0429 21.5678H83.9012C84.0472 22.2465 84.2009 22.9824 84.3802 23.7662C84.5548 24.5514 84.7408 25.3668 84.9376 26.2061C85.128 27.0468 85.3359 27.9021 85.5438 28.773C85.7579 29.6425 85.9771 30.4914 86.2041 31.3227C86.4182 30.5293 86.631 29.7044 86.8451 28.8429C87.0595 27.9813 87.2609 27.1281 87.4451 26.2792C87.6293 25.4272 87.807 24.5989 87.9785 23.7946C88.1483 22.9922 88.3022 22.2465 88.4433 21.5678H92.5509C92.1606 23.0445 91.759 24.5037 91.3416 25.9469C90.9209 27.3966 90.5193 28.7665 90.1179 30.0606C89.7225 31.3591 89.3322 32.5529 88.9528 33.6528C88.5705 34.748 88.2179 35.6921 87.904 36.4868H84.8298C84.3851 35.05 83.9535 33.6226 83.5282 32.2031C83.1044 30.7885 82.7203 29.358 82.3649 27.921Z" fill="#03435F"/>
<mask id="mask6_5532_35674" style="mask-type:luminance" maskUnits="userSpaceOnUse" x="72" y="21" width="21" height="16">
<path d="M88.4433 21.5678H92.5509C92.1606 23.0445 91.759 24.5037 91.3413 25.9467C90.9209 27.3966 90.5193 28.7668 90.1176 30.0606C89.7225 31.3591 89.3322 32.5529 88.9525 33.6528C88.5702 34.748 88.2179 35.6918 87.9037 36.4868H84.8295C84.3851 35.05 83.9535 33.6223 83.5282 32.2029C83.1044 30.7885 82.7203 29.358 82.3649 27.921C82.0107 29.358 81.6377 30.7885 81.2397 32.2029C80.8427 33.6223 80.4205 35.05 79.984 36.4868H76.9099C76.5908 35.6918 76.2433 34.748 75.8719 33.6528C75.4973 32.5529 75.1148 31.3591 74.7134 30.0606C74.3165 28.7668 73.9102 27.3966 73.4944 25.9467C73.0771 24.5037 72.6723 23.0445 72.2852 21.5678H76.4463C76.5846 22.2465 76.7417 22.9919 76.9114 23.7946C77.0798 24.5989 77.2573 25.4272 77.4433 26.2789C77.6287 27.1278 77.8273 27.9813 78.0304 28.8429C78.2352 29.7044 78.4449 30.5293 78.6572 31.3227C78.8872 30.4914 79.1127 29.6422 79.3332 28.773C79.5507 27.9021 79.7653 27.0468 79.9699 26.2061C80.1713 25.3665 80.3697 24.5512 80.5507 23.7662C80.7349 22.9824 80.8984 22.2465 81.0427 21.5678H83.9012C84.0469 22.2465 84.2009 22.9824 84.3802 23.7662C84.5548 24.5512 84.7408 25.3665 84.9373 26.2061C85.128 27.0468 85.3356 27.9021 85.5438 28.773C85.7579 29.6422 85.9771 30.4914 86.2039 31.3227C86.4182 30.5293 86.6308 29.7044 86.8451 28.8429C87.0595 27.9813 87.2609 27.1278 87.4451 26.2789C87.6293 25.4272 87.807 24.5989 87.9783 23.7946C88.1483 22.9919 88.3022 22.2465 88.4433 21.5678Z" fill="white"/>
</mask>
<g mask="url(#mask6_5532_35674)">
<path fill-rule="evenodd" clip-rule="evenodd" d="M-190.324 78.3813L365.998 78.3813V-709.741H-190.324L-190.324 78.3813Z" fill="#03435F"/>
</g>
<mask id="mask7_5532_35674" style="mask-type:luminance" maskUnits="userSpaceOnUse" x="72" y="21" width="21" height="16">
<path d="M88.4433 21.5678H92.5509C92.1606 23.0445 91.759 24.5037 91.3413 25.9467C90.9209 27.3966 90.5193 28.7668 90.1176 30.0606C89.7225 31.3591 89.3322 32.5529 88.9525 33.6528C88.5702 34.748 88.2179 35.6918 87.9037 36.4868H84.8295C84.3851 35.05 83.9535 33.6223 83.5282 32.2029C83.1044 30.7885 82.7203 29.358 82.3649 27.921C82.0107 29.358 81.6377 30.7885 81.2397 32.2029C80.8427 33.6223 80.4205 35.05 79.984 36.4868H76.9099C76.5908 35.6918 76.2433 34.748 75.8719 33.6528C75.4973 32.5529 75.1148 31.3591 74.7134 30.0606C74.3165 28.7668 73.9102 27.3966 73.4944 25.9467C73.0771 24.5037 72.6723 23.0445 72.2852 21.5678H76.4463C76.5846 22.2465 76.7417 22.9919 76.9114 23.7946C77.0798 24.5989 77.2573 25.4272 77.4433 26.2789C77.6287 27.1278 77.8273 27.9813 78.0304 28.8429C78.2352 29.7044 78.4449 30.5293 78.6572 31.3227C78.8872 30.4914 79.1127 29.6422 79.3332 28.773C79.5507 27.9021 79.7653 27.0468 79.9699 26.2061C80.1713 25.3665 80.3697 24.5512 80.5507 23.7662C80.7349 22.9824 80.8984 22.2465 81.0427 21.5678H83.9012C84.0469 22.2465 84.2009 22.9824 84.3802 23.7662C84.5548 24.5512 84.7408 25.3665 84.9373 26.2061C85.128 27.0468 85.3356 27.9021 85.5438 28.773C85.7579 29.6422 85.9771 30.4914 86.2039 31.3227C86.4182 30.5293 86.6308 29.7044 86.8451 28.8429C87.0595 27.9813 87.2609 27.1278 87.4451 26.2789C87.6293 25.4272 87.807 24.5989 87.9783 23.7946C88.1483 22.9919 88.3022 22.2465 88.4433 21.5678Z" fill="white"/>
</mask>
<g mask="url(#mask7_5532_35674)">
<path fill-rule="evenodd" clip-rule="evenodd" d="M65.6641 43.1099H99.1755V14.945L65.6641 14.945V43.1099Z" fill="#03435F"/>
</g>
<path fill-rule="evenodd" clip-rule="evenodd" d="M95.3398 36.481H99.2823V21.5651H95.3398V36.481Z" fill="#03435F"/>
<mask id="mask8_5532_35674" style="mask-type:luminance" maskUnits="userSpaceOnUse" x="95" y="21" width="5" height="16">
<path d="M95.3398 36.4814V21.5656H99.2826V36.4814H95.3398Z" fill="white"/>
</mask>
<g mask="url(#mask8_5532_35674)">
<path fill-rule="evenodd" clip-rule="evenodd" d="M-190.328 78.3813L365.994 78.3813V-709.741H-190.328L-190.328 78.3813Z" fill="#03435F"/>
</g>
<mask id="mask9_5532_35674" style="mask-type:luminance" maskUnits="userSpaceOnUse" x="95" y="21" width="5" height="16">
<path d="M95.3398 36.4814V21.5656H99.2826V36.4814H95.3398Z" fill="white"/>
</mask>
<g mask="url(#mask9_5532_35674)">
<path fill-rule="evenodd" clip-rule="evenodd" d="M88.7188 43.104H105.907V14.9422H88.7188V43.104Z" fill="#03435F"/>
</g>
<path fill-rule="evenodd" clip-rule="evenodd" d="M102.418 17.8455L106.363 17.097V21.5728H110.268V25.0824H106.363V30.3311C106.363 31.2194 106.51 31.935 106.8 32.4578C107.09 32.9871 107.679 33.2526 108.56 33.2526C108.987 33.2526 109.425 33.2144 109.873 33.1269C110.325 33.041 110.734 32.9188 111.107 32.771L111.661 36.0613C111.183 36.2708 110.652 36.449 110.073 36.6014C109.487 36.7508 108.778 36.8271 107.927 36.8271C106.848 36.8271 105.957 36.6716 105.251 36.3567C104.543 36.05 103.978 35.6161 103.556 35.0533C103.134 34.5002 102.839 33.8182 102.669 33.0284C102.497 32.2321 102.418 31.3515 102.418 30.3896V17.8455Z" fill="#03435F"/>
<mask id="mask10_5532_35674" style="mask-type:luminance" maskUnits="userSpaceOnUse" x="102" y="17" width="10" height="20">
<path d="M102.418 17.8455L106.363 17.097V21.5728H110.268V25.0824H106.363V30.3311C106.363 31.2194 106.51 31.9347 106.8 32.4578C107.09 32.9871 107.679 33.2523 108.56 33.2523C108.987 33.2523 109.425 33.2144 109.873 33.1269C110.325 33.0408 110.734 32.9188 111.107 32.771L111.661 36.0611C111.183 36.2708 110.652 36.449 110.073 36.6014C109.487 36.7508 108.778 36.8271 107.927 36.8271C106.848 36.8271 105.957 36.6716 105.251 36.3567C104.543 36.0497 103.978 35.6161 103.556 35.0535C103.134 34.5002 102.839 33.8185 102.669 33.0284C102.497 32.2321 102.418 31.3513 102.418 30.3899V17.8455Z" fill="white"/>
</mask>
<g mask="url(#mask10_5532_35674)">
<path fill-rule="evenodd" clip-rule="evenodd" d="M-190.328 78.3813L365.994 78.3813V-709.741H-190.328L-190.328 78.3813Z" fill="#03435F"/>
</g>
<mask id="mask11_5532_35674" style="mask-type:luminance" maskUnits="userSpaceOnUse" x="102" y="17" width="10" height="20">
<path d="M102.418 17.8455L106.363 17.097V21.5728H110.268V25.0824H106.363V30.3311C106.363 31.2194 106.51 31.9347 106.8 32.4578C107.09 32.9871 107.679 33.2523 108.56 33.2523C108.987 33.2523 109.425 33.2144 109.873 33.1269C110.325 33.0408 110.734 32.9188 111.107 32.771L111.661 36.0611C111.183 36.2708 110.652 36.449 110.073 36.6014C109.487 36.7508 108.778 36.8271 107.927 36.8271C106.848 36.8271 105.957 36.6716 105.251 36.3567C104.543 36.0497 103.978 35.6161 103.556 35.0535C103.134 34.5002 102.839 33.8185 102.669 33.0284C102.497 32.2321 102.418 31.3513 102.418 30.3899V17.8455Z" fill="white"/>
</mask>
<g mask="url(#mask11_5532_35674)">
<path fill-rule="evenodd" clip-rule="evenodd" d="M95.793 43.4502H118.282V10.4739H95.793V43.4502Z" fill="#03435F"/>
</g>
<path fill-rule="evenodd" clip-rule="evenodd" d="M113.055 29.0311C113.055 27.9516 113.218 26.9345 113.545 25.9809C113.872 25.024 114.344 24.1944 114.961 23.4838C115.58 22.7734 116.329 22.2136 117.215 21.7958C118.095 21.3841 119.102 21.171 120.232 21.171C120.973 21.171 121.654 21.2459 122.273 21.3856C122.892 21.5303 123.495 21.7323 124.074 21.9944L123.255 25.3691C122.882 25.2195 122.477 25.0892 122.033 24.9716C121.592 24.8602 121.095 24.8016 120.549 24.8016C119.384 24.8016 118.513 25.1909 117.943 25.9665C117.364 26.7439 117.081 27.7628 117.081 29.0311C117.081 30.3709 117.349 31.412 117.892 32.1497C118.426 32.8856 119.368 33.256 120.709 33.256C121.187 33.256 121.697 33.2065 122.247 33.1128C122.793 33.0174 123.296 32.8681 123.76 32.6583L124.312 36.1202C123.852 36.3284 123.281 36.5033 122.592 36.6573C121.9 36.8071 121.143 36.8848 120.314 36.8848C119.043 36.8848 117.945 36.6782 117.029 36.2727C116.112 35.8674 115.355 35.3142 114.764 34.6149C114.169 33.914 113.741 33.0876 113.466 32.1337C113.191 31.1785 113.055 30.1424 113.055 29.0311Z" fill="#03435F"/>
<mask id="mask12_5532_35674" style="mask-type:luminance" maskUnits="userSpaceOnUse" x="113" y="21" width="12" height="16">
<path d="M117.215 21.7958C118.095 21.3841 119.102 21.171 120.232 21.171C120.973 21.171 121.654 21.2456 122.273 21.3854C122.892 21.5303 123.495 21.7321 124.074 21.9944L123.255 25.3688C122.882 25.2195 122.477 25.0892 122.033 24.9716C121.592 24.8599 121.095 24.8014 120.549 24.8014C119.384 24.8014 118.513 25.1909 117.943 25.9665C117.364 26.7437 117.081 27.7625 117.081 29.0311C117.081 30.3709 117.35 31.412 117.892 32.1497C118.426 32.8856 119.368 33.256 120.709 33.256C121.187 33.256 121.697 33.2065 122.247 33.1128C122.793 33.0174 123.296 32.8681 123.76 32.6581L124.312 36.1202C123.852 36.3284 123.281 36.503 122.592 36.6573C121.9 36.8069 121.143 36.8848 120.314 36.8848C119.043 36.8848 117.945 36.6779 117.029 36.2724C116.112 35.8672 115.355 35.3142 114.764 34.6151C114.169 33.914 113.741 33.0876 113.466 32.1337C113.191 31.1785 113.055 30.1421 113.055 29.0311C113.055 27.9516 113.218 26.9345 113.545 25.9809C113.872 25.024 114.344 24.1942 114.961 23.4835C115.58 22.7731 116.329 22.2136 117.215 21.7958Z" fill="white"/>
</mask>
<g mask="url(#mask12_5532_35674)">
<path fill-rule="evenodd" clip-rule="evenodd" d="M-190.328 78.3813L365.994 78.3813V-709.741H-190.328L-190.328 78.3813Z" fill="#03435F"/>
</g>
<mask id="mask13_5532_35674" style="mask-type:luminance" maskUnits="userSpaceOnUse" x="113" y="21" width="12" height="16">
<path d="M117.215 21.7958C118.095 21.3841 119.102 21.171 120.232 21.171C120.973 21.171 121.654 21.2456 122.273 21.3854C122.892 21.5303 123.495 21.7321 124.074 21.9944L123.255 25.3688C122.882 25.2195 122.477 25.0892 122.033 24.9716C121.592 24.8599 121.095 24.8014 120.549 24.8014C119.384 24.8014 118.513 25.1909 117.943 25.9665C117.364 26.7437 117.081 27.7625 117.081 29.0311C117.081 30.3709 117.35 31.412 117.892 32.1497C118.426 32.8856 119.368 33.256 120.709 33.256C121.187 33.256 121.697 33.2065 122.247 33.1128C122.793 33.0174 123.296 32.8681 123.76 32.6581L124.312 36.1202C123.852 36.3284 123.281 36.503 122.592 36.6573C121.9 36.8069 121.143 36.8848 120.314 36.8848C119.043 36.8848 117.945 36.6779 117.029 36.2724C116.112 35.8672 115.355 35.3142 114.764 34.6151C114.169 33.914 113.741 33.0876 113.466 32.1337C113.191 31.1785 113.055 30.1421 113.055 29.0311C113.055 27.9516 113.218 26.9345 113.545 25.9809C113.872 25.024 114.344 24.1942 114.961 23.4835C115.58 22.7731 116.329 22.2136 117.215 21.7958Z" fill="white"/>
</mask>
<g mask="url(#mask13_5532_35674)">
<path fill-rule="evenodd" clip-rule="evenodd" d="M106.434 43.5078H130.937V14.5481H106.434V43.5078Z" fill="#03435F"/>
</g>
<path fill-rule="evenodd" clip-rule="evenodd" d="M126.863 36.4814V17.8398L130.81 17.0977V21.6277C131.074 21.5338 131.412 21.4433 131.831 21.3576C132.243 21.2733 132.648 21.2286 133.036 21.2286C134.164 21.2286 135.102 21.3955 135.854 21.7247C136.603 22.0554 137.208 22.5243 137.655 23.1297C138.109 23.7323 138.424 24.4537 138.613 25.282C138.795 26.1162 138.887 27.0448 138.887 28.0652V36.4814H134.941V28.5721C134.941 27.2114 134.778 26.2483 134.453 25.6777C134.126 25.1164 133.52 24.8321 132.639 24.8321C132.28 24.8321 131.953 24.8657 131.642 24.9291C131.334 24.9959 131.056 25.0689 130.81 25.1437V36.4814H126.863Z" fill="#03435F"/>
<mask id="mask14_5532_35674" style="mask-type:luminance" maskUnits="userSpaceOnUse" x="126" y="17" width="13" height="20">
<path d="M126.863 17.8398L130.81 17.0977V21.6279C131.074 21.5338 131.412 21.4433 131.831 21.3576C132.243 21.2733 132.648 21.2289 133.036 21.2289C134.164 21.2289 135.102 21.3958 135.854 21.7247C136.603 22.0556 137.208 22.5243 137.655 23.13C138.109 23.7323 138.424 24.4537 138.613 25.2822C138.795 26.1164 138.887 27.0448 138.887 28.0655V36.4814H134.942V28.5721C134.942 27.2117 134.778 26.2483 134.453 25.6777C134.126 25.1166 133.52 24.8321 132.639 24.8321C132.28 24.8321 131.953 24.8657 131.642 24.9294C131.334 24.9959 131.056 25.0689 130.81 25.1437V36.4814H126.863V17.8398Z" fill="white"/>
</mask>
<g mask="url(#mask14_5532_35674)">
<path fill-rule="evenodd" clip-rule="evenodd" d="M-190.328 78.3813L365.994 78.3813V-709.741H-190.328L-190.328 78.3813Z" fill="#03435F"/>
</g>
<mask id="mask15_5532_35674" style="mask-type:luminance" maskUnits="userSpaceOnUse" x="126" y="17" width="13" height="20">
<path d="M126.863 17.8398L130.81 17.0977V21.6279C131.074 21.5338 131.412 21.4433 131.831 21.3576C132.243 21.2733 132.648 21.2289 133.036 21.2289C134.164 21.2289 135.102 21.3958 135.854 21.7247C136.603 22.0556 137.208 22.5243 137.655 23.13C138.109 23.7323 138.424 24.4537 138.613 25.2822C138.795 26.1164 138.887 27.0448 138.887 28.0655V36.4814H134.942V28.5721C134.942 27.2117 134.778 26.2483 134.453 25.6777C134.126 25.1166 133.52 24.8321 132.639 24.8321C132.28 24.8321 131.953 24.8657 131.642 24.9294C131.334 24.9959 131.056 25.0689 130.81 25.1437V36.4814H126.863V17.8398Z" fill="white"/>
</mask>
<g mask="url(#mask15_5532_35674)">
<path fill-rule="evenodd" clip-rule="evenodd" d="M120.242 43.1045H145.512V10.4746H120.242V43.1045Z" fill="#03435F"/>
</g>
<path fill-rule="evenodd" clip-rule="evenodd" d="M7.86328 36.4863L7.86328 22.9692C7.86328 22.9692 9.84713 21.2732 14.1863 21.2732C18.1349 21.2732 20.3032 23.3858 20.3032 28.035V36.4863H16.3592V28.035C16.3592 25.0738 14.9751 24.8687 13.7926 24.8687C12.6102 24.8687 11.8184 25.4981 11.8184 25.4981V36.4863H7.86328Z" fill="#03435F"/>
<mask id="mask16_5532_35674" style="mask-type:luminance" maskUnits="userSpaceOnUse" x="7" y="21" width="14" height="16">
<path d="M7.86328 22.9692C7.86328 22.9692 9.84713 21.2732 14.1863 21.2732C18.1349 21.2732 20.3029 23.3856 20.3029 28.0353V36.4863H16.3592V28.0353C16.3592 25.0736 14.9751 24.8687 13.7926 24.8687C12.6102 24.8687 11.8184 25.4984 11.8184 25.4984V36.4863H7.86328L7.86328 22.9692Z" fill="white"/>
</mask>
<g mask="url(#mask16_5532_35674)">
<path fill-rule="evenodd" clip-rule="evenodd" d="M-190.328 78.3813L365.994 78.3813V-709.741H-190.328L-190.328 78.3813Z" fill="#03435F"/>
</g>
<mask id="mask17_5532_35674" style="mask-type:luminance" maskUnits="userSpaceOnUse" x="7" y="21" width="14" height="16">
<path d="M7.86328 22.9692C7.86328 22.9692 9.84713 21.2732 14.1863 21.2732C18.1349 21.2732 20.3029 23.3856 20.3029 28.0353V36.4863H16.3592V28.0353C16.3592 25.0736 14.9751 24.8687 13.7926 24.8687C12.6102 24.8687 11.8184 25.4984 11.8184 25.4984V36.4863H7.86328L7.86328 22.9692Z" fill="white"/>
</mask>
<g mask="url(#mask17_5532_35674)">
<path fill-rule="evenodd" clip-rule="evenodd" d="M1.24219 43.1094H26.9273V14.6505H1.24219L1.24219 43.1094Z" fill="#03435F"/>
</g>
<path fill-rule="evenodd" clip-rule="evenodd" d="M0.433594 36.4868L0.433594 17.8419L4.38224 17.0979L4.38224 36.4868H0.433594Z" fill="#03435F"/>
<mask id="mask18_5532_35674" style="mask-type:luminance" maskUnits="userSpaceOnUse" x="0" y="17" width="5" height="20">
<path d="M0.433594 17.8422L4.38224 17.0979L4.38224 36.4868H0.433594L0.433594 17.8422Z" fill="white"/>
</mask>
<g mask="url(#mask18_5532_35674)">
<path fill-rule="evenodd" clip-rule="evenodd" d="M-190.328 78.3813L365.994 78.3813V-709.741H-190.328L-190.328 78.3813Z" fill="#03435F"/>
</g>
<mask id="mask19_5532_35674" style="mask-type:luminance" maskUnits="userSpaceOnUse" x="0" y="17" width="5" height="20">
<path d="M0.433594 17.8422L4.38224 17.0979L4.38224 36.4868H0.433594L0.433594 17.8422Z" fill="white"/>
</mask>
<g mask="url(#mask19_5532_35674)">
<path fill-rule="evenodd" clip-rule="evenodd" d="M-6.1875 43.1099H11.0071L11.0071 10.4753H-6.1875L-6.1875 43.1099Z" fill="#03435F"/>
</g>
<path fill-rule="evenodd" clip-rule="evenodd" d="M47.0615 30.099H38.18C38.18 30.099 38.3783 33.2668 42.3223 33.2668C44.2969 33.2668 46.2712 32.6356 46.2712 32.6356L46.6663 36.0196C46.6663 36.0196 44.6936 36.8574 41.932 36.8574C37.9816 36.8574 34.4297 34.748 34.4297 28.8338C34.4297 24.1828 37.1913 21.2296 41.1386 21.2296C47.0615 21.2296 47.4582 27.5588 47.0615 30.099ZM40.9449 24.1828C38.3783 24.1828 38.18 27.1391 38.18 27.1391H43.7031C43.7031 27.1391 43.5096 24.1828 40.9449 24.1828Z" fill="#03435F"/>
<mask id="mask20_5532_35674" style="mask-type:luminance" maskUnits="userSpaceOnUse" x="34" y="21" width="14" height="16">
<path d="M34.4297 28.8335C34.4297 24.1825 37.1913 21.2293 41.1383 21.2293C47.0612 21.2293 47.458 27.5588 47.0612 30.0987H38.18C38.18 30.0987 38.3783 33.2666 42.322 33.2666C44.2966 33.2666 46.2709 32.6354 46.2709 32.6354L46.6661 36.0194C46.6661 36.0194 44.6933 36.8574 41.9318 36.8574C37.9816 36.8574 34.4297 34.748 34.4297 28.8335ZM40.9446 24.1825C38.3783 24.1825 38.18 27.1391 38.18 27.1391H43.7031C43.7031 27.1391 43.5094 24.1825 40.9446 24.1825Z" fill="white"/>
</mask>
<g mask="url(#mask20_5532_35674)">
<path fill-rule="evenodd" clip-rule="evenodd" d="M-190.328 78.3809L365.994 78.3809V-709.741H-190.328L-190.328 78.3809Z" fill="#03435F"/>
</g>
<mask id="mask21_5532_35674" style="mask-type:luminance" maskUnits="userSpaceOnUse" x="34" y="21" width="14" height="16">
<path d="M34.4297 28.8335C34.4297 24.1825 37.1913 21.2293 41.1383 21.2293C47.0612 21.2293 47.458 27.5588 47.0612 30.0987H38.18C38.18 30.0987 38.3783 33.2666 42.322 33.2666C44.2966 33.2666 46.2709 32.6354 46.2709 32.6354L46.6661 36.0194C46.6661 36.0194 44.6933 36.8574 41.9318 36.8574C37.9816 36.8574 34.4297 34.748 34.4297 28.8335ZM40.9446 24.1825C38.3783 24.1825 38.18 27.1391 38.18 27.1391H43.7031C43.7031 27.1391 43.5094 24.1825 40.9446 24.1825Z" fill="white"/>
</mask>
<g mask="url(#mask21_5532_35674)">
<path fill-rule="evenodd" clip-rule="evenodd" d="M27.8086 43.48H53.7965V14.6062H27.8086V43.48Z" fill="#03435F"/>
</g>
<mask id="mask22_5532_35674" style="mask-type:luminance" maskUnits="userSpaceOnUse" x="144" y="14" width="26" height="34">
<path d="M144.117 17.1014C144.117 16.2001 155.469 14.2552 163.083 14.2552C166.385 14.2552 168.983 14.621 169.648 15.596C173.076 20.123 148.942 48.524 146.931 47.6624C145.319 47.2317 159.798 29.1544 157.384 21.8349C156.179 17.9645 144.117 18.395 144.117 17.1014Z" fill="white"/>
</mask>
<g mask="url(#mask22_5532_35674)">
<path fill-rule="evenodd" clip-rule="evenodd" d="M137.496 54.3047H176.605V7.63243H137.496V54.3047Z" fill="#ED342B"/>
</g>
<mask id="mask23_5532_35674" style="mask-type:luminance" maskUnits="userSpaceOnUse" x="164" y="0" width="12" height="12">
<path d="M164.625 5.912C164.625 2.82054 166.966 0.318733 169.851 0.318733C172.74 0.318733 175.078 2.82054 175.078 5.912C175.078 9.00503 172.74 11.5068 169.851 11.5068C166.966 11.5068 164.625 9.00503 164.625 5.912Z" fill="white"/>
</mask>
<g mask="url(#mask23_5532_35674)">
<path fill-rule="evenodd" clip-rule="evenodd" d="M158.004 18.1299H181.702V-6.30444H158.004V18.1299Z" fill="#ED342B"/>
</g>
</g>
<defs>
<clipPath id="clip0_5532_35674">
<rect width="175.226" height="48" fill="white" transform="translate(0.109375)"/>
</clipPath>
</defs>
</svg>
