<svg width="117" height="48" viewBox="0 0 117 48" fill="none" xmlns="http://www.w3.org/2000/svg">
<path d="M35.1867 20.6688H24.4677L33.7504 15.3372L31.9096 12.1638L22.6257 17.4955L27.9841 8.26132L24.7949 6.42965L19.4354 15.6615V5.00049H15.7514V15.6627L10.3919 6.42965L7.20149 8.26132L12.5598 17.4932L3.27831 12.1638L1.43631 15.3372L10.719 20.6688H0V24.3333H10.7178L1.43631 29.665L3.27714 32.8383L12.561 27.5067L7.20149 36.7408L10.3907 38.5725L15.7514 29.3395V40.0005H19.4354V29.1108L24.8933 38.5142L27.8844 36.7968L22.4252 27.3912L31.9072 32.8372L33.7492 29.6638L24.4677 24.3322H35.1855V20.6688H35.1867ZM17.5934 27.4822C16.9357 27.4822 16.2845 27.3534 15.6769 27.1031C15.0693 26.8527 14.5172 26.4858 14.0522 26.0231C13.5871 25.5605 13.2182 25.0112 12.9664 24.4067C12.7147 23.8022 12.5851 23.1543 12.585 22.4999C12.5849 21.8456 12.7144 21.1976 12.966 20.593C13.2176 19.9884 13.5864 19.4391 14.0513 18.9763C14.5163 18.5136 15.0683 18.1465 15.6758 17.896C16.2834 17.6455 16.9346 17.5166 17.5922 17.5165C18.9203 17.5163 20.1941 18.0412 21.1334 18.9755C22.0726 19.9099 22.6004 21.1772 22.6005 22.4987C22.6007 23.8203 22.0732 25.0877 21.1342 26.0223C20.1952 26.9569 18.9215 27.482 17.5934 27.4822Z" fill="#625DF5"/>
<path d="M44.6836 35.3021V9.69849H49.4064V35.3021H44.6836ZM89.9808 17.9025H94.4902V20.0258C95.4493 18.3283 97.6876 17.4078 99.6047 17.4078C101.985 17.4078 103.902 18.4345 104.789 20.307C106.173 18.1837 108.021 17.4078 110.33 17.4078C113.561 17.4078 116.649 19.3527 116.649 24.0205V35.3021H112.07V24.976C112.07 23.1012 111.146 21.686 108.979 21.686C106.954 21.686 105.746 23.2435 105.746 25.1183V35.3033H101.061V24.976C101.061 23.1012 100.102 21.686 97.9702 21.686C95.9101 21.686 94.7024 23.2085 94.7024 25.1183V35.3033H89.9808V17.9025ZM60.0797 35.8062C54.7589 35.8062 50.9061 31.878 50.9061 26.6023C50.9061 21.4107 54.7472 17.3903 60.0797 17.3903C65.438 17.3903 69.2533 21.448 69.2533 26.6023C69.2533 31.8407 65.3982 35.8062 60.0797 35.8062ZM60.0797 21.6487C58.7599 21.6505 57.4948 22.1732 56.5619 23.1021C55.629 24.0311 55.1045 25.2903 55.1036 26.6035C55.1045 27.9167 55.629 29.1759 56.5619 30.1048C57.4948 31.0337 58.7599 31.5565 60.0797 31.5583C61.3993 31.5562 62.6641 31.0333 63.5967 30.1044C64.5294 29.1755 65.0537 27.9165 65.0546 26.6035C65.0537 25.2905 64.5294 24.0314 63.5967 23.1026C62.6641 22.1737 61.3993 21.6508 60.0797 21.6487ZM79.3404 35.8062C74.0195 35.8062 70.1667 31.878 70.1667 26.6023C70.1667 21.4107 74.0078 17.3903 79.3404 17.3903C84.6987 17.3903 88.514 21.448 88.514 26.6023C88.514 31.8407 84.6565 35.8062 79.3404 35.8062ZM79.3404 21.5892C78.0054 21.5913 76.7259 22.1202 75.7823 23.0597C74.8387 23.9993 74.308 25.2729 74.3068 26.6011C74.308 27.9294 74.8387 29.203 75.7823 30.1426C76.7259 31.0821 78.0054 31.611 79.3404 31.6131C80.6753 31.611 81.9548 31.0821 82.8984 30.1426C83.842 29.203 84.3727 27.9294 84.3739 26.6011C84.3727 25.2729 83.842 23.9993 82.8984 23.0597C81.9548 22.1202 80.6753 21.5913 79.3404 21.5892Z" fill="#212121"/>
</svg>
