<svg width="1280" height="191" viewBox="0 0 1280 191" fill="none" xmlns="http://www.w3.org/2000/svg">
<g opacity="0.2">
<path d="M-9.40907 -8.6875L-3.55852 9.31862H15.3742L0.0573158 20.447L5.90786 38.4531L-9.40907 27.3247L-24.726 38.4531L-18.8754 20.447L-34.1924 9.31862H-15.2596L-9.40907 -8.6875Z" fill="white" fill-opacity="0.2"/>
<path d="M42.7086 -8.6875L48.5592 9.31862H67.4919L52.175 20.447L58.0255 38.4531L42.7086 27.3247L27.3917 38.4531L33.2422 20.447L17.9253 9.31862H36.8581L42.7086 -8.6875Z" fill="white" fill-opacity="0.2"/>
<path d="M94.8263 -8.6875L100.677 9.31862H119.61L104.293 20.447L110.143 38.4531L94.8263 27.3247L79.5094 38.4531L85.3599 20.447L70.043 9.31862H88.9757L94.8263 -8.6875Z" fill="white" fill-opacity="0.2"/>
<path d="M146.943 -8.6875L152.794 9.31862H171.727L156.41 20.447L162.26 38.4531L146.943 27.3247L131.627 38.4531L137.477 20.447L122.16 9.31862H141.093L146.943 -8.6875Z" fill="white" fill-opacity="0.2"/>
<path d="M199.061 -8.6875L204.911 9.31862H223.844L208.527 20.447L214.378 38.4531L199.061 27.3247L183.744 38.4531L189.594 20.447L174.277 9.31862H193.21L199.061 -8.6875Z" fill="white" fill-opacity="0.2"/>
<path d="M251.178 -8.6875L257.028 9.31862H275.961L260.644 20.447L266.495 38.4531L251.178 27.3247L235.861 38.4531L241.711 20.447L226.395 9.31862H245.327L251.178 -8.6875Z" fill="white" fill-opacity="0.2"/>
<path d="M303.296 -8.6875L309.147 9.31862H328.079L312.762 20.447L318.613 38.4531L303.296 27.3247L287.979 38.4531L293.83 20.447L278.513 9.31862H297.445L303.296 -8.6875Z" fill="white" fill-opacity="0.2"/>
<path d="M355.413 -8.6875L361.264 9.31862H380.197L364.88 20.447L370.73 38.4531L355.413 27.3247L340.096 38.4531L345.947 20.447L330.63 9.31862H349.563L355.413 -8.6875Z" fill="white" fill-opacity="0.2"/>
<path d="M407.53 -8.6875L413.381 9.31862H432.314L416.997 20.447L422.847 38.4531L407.53 27.3247L392.213 38.4531L398.064 20.447L382.747 9.31862H401.68L407.53 -8.6875Z" fill="white" fill-opacity="0.2"/>
<path d="M459.648 -8.6875L465.498 9.31862H484.431L469.114 20.447L474.965 38.4531L459.648 27.3247L444.331 38.4531L450.181 20.447L434.864 9.31862H453.797L459.648 -8.6875Z" fill="white" fill-opacity="0.2"/>
<path d="M511.766 -8.6875L517.616 9.31862H536.549L521.232 20.447L527.083 38.4531L511.766 27.3247L496.449 38.4531L502.299 20.447L486.982 9.31862H505.915L511.766 -8.6875Z" fill="white" fill-opacity="0.2"/>
<path d="M563.883 -8.6875L569.733 9.31862H588.666L573.349 20.447L579.2 38.4531L563.883 27.3247L548.566 38.4531L554.417 20.447L539.1 9.31862H558.032L563.883 -8.6875Z" fill="white" fill-opacity="0.2"/>
<path d="M616 -8.6875L621.851 9.31862H640.783L625.466 20.447L631.317 38.4531L616 27.3247L600.683 38.4531L606.534 20.447L591.217 9.31862H610.15L616 -8.6875Z" fill="white" fill-opacity="0.2"/>
<path d="M668.117 -8.6875L673.968 9.31862H692.901L677.584 20.447L683.434 38.4531L668.117 27.3247L652.8 38.4531L658.651 20.447L643.334 9.31862H662.267L668.117 -8.6875Z" fill="white" fill-opacity="0.2"/>
<path d="M720.235 -8.6875L726.086 9.31862H745.019L729.702 20.447L735.552 38.4531L720.235 27.3247L704.919 38.4531L710.769 20.447L695.452 9.31862H714.385L720.235 -8.6875Z" fill="white" fill-opacity="0.2"/>
<path d="M772.353 -8.6875L778.203 9.31862H797.136L781.819 20.447L787.67 38.4531L772.353 27.3247L757.036 38.4531L762.886 20.447L747.569 9.31862H766.502L772.353 -8.6875Z" fill="white" fill-opacity="0.2"/>
<path d="M824.47 -8.6875L830.32 9.31862H849.253L833.936 20.447L839.787 38.4531L824.47 27.3247L809.153 38.4531L815.003 20.447L799.687 9.31862H818.619L824.47 -8.6875Z" fill="white" fill-opacity="0.2"/>
<path d="M876.587 -8.6875L882.438 9.31862H901.37L886.053 20.447L891.904 38.4531L876.587 27.3247L861.27 38.4531L867.121 20.447L851.804 9.31862H870.736L876.587 -8.6875Z" fill="white" fill-opacity="0.2"/>
<path d="M928.705 -8.6875L934.556 9.31862H953.488L938.172 20.447L944.022 38.4531L928.705 27.3247L913.388 38.4531L919.239 20.447L903.922 9.31862H922.855L928.705 -8.6875Z" fill="white" fill-opacity="0.2"/>
<path d="M980.822 -8.6875L986.673 9.31862H1005.61L990.289 20.447L996.139 38.4531L980.822 27.3247L965.505 38.4531L971.356 20.447L956.039 9.31862H974.972L980.822 -8.6875Z" fill="white" fill-opacity="0.2"/>
<path d="M1032.94 -8.6875L1038.79 9.31862H1057.72L1042.41 20.447L1048.26 38.4531L1032.94 27.3247L1017.62 38.4531L1023.47 20.447L1008.16 9.31862H1027.09L1032.94 -8.6875Z" fill="white" fill-opacity="0.2"/>
<path d="M1085.06 -8.6875L1090.91 9.31862H1109.84L1094.52 20.447L1100.37 38.4531L1085.06 27.3247L1069.74 38.4531L1075.59 20.447L1060.27 9.31862H1079.21L1085.06 -8.6875Z" fill="white" fill-opacity="0.2"/>
<path d="M1137.17 -8.6875L1143.03 9.31862H1161.96L1146.64 20.447L1152.49 38.4531L1137.17 27.3247L1121.86 38.4531L1127.71 20.447L1112.39 9.31862H1131.32L1137.17 -8.6875Z" fill="white" fill-opacity="0.2"/>
<path d="M1189.29 -8.6875L1195.14 9.31862H1214.08L1198.76 20.447L1204.61 38.4531L1189.29 27.3247L1173.98 38.4531L1179.83 20.447L1164.51 9.31862H1183.44L1189.29 -8.6875Z" fill="white" fill-opacity="0.2"/>
<path d="M1241.41 -8.6875L1247.26 9.31862H1266.19L1250.88 20.447L1256.73 38.4531L1241.41 27.3247L1226.09 38.4531L1231.94 20.447L1216.63 9.31862H1235.56L1241.41 -8.6875Z" fill="white" fill-opacity="0.2"/>
<path d="M1293.53 -8.6875L1299.38 9.31862H1318.31L1302.99 20.447L1308.84 38.4531L1293.53 27.3247L1278.21 38.4531L1284.06 20.447L1268.74 9.31862H1287.68L1293.53 -8.6875Z" fill="white" fill-opacity="0.2"/>
<path d="M-9.40907 48.8447L-3.55852 66.8509H15.3742L0.0573158 77.9792L5.90786 95.9854L-9.40907 84.857L-24.726 95.9854L-18.8754 77.9792L-34.1924 66.8509H-15.2596L-9.40907 48.8447Z" fill="white" fill-opacity="0.2"/>
<path d="M42.7086 48.8447L48.5592 66.8509H67.4919L52.175 77.9792L58.0255 95.9854L42.7086 84.857L27.3917 95.9854L33.2422 77.9792L17.9253 66.8509H36.8581L42.7086 48.8447Z" fill="white" fill-opacity="0.2"/>
<path d="M94.8263 48.8447L100.677 66.8509H119.61L104.293 77.9792L110.143 95.9854L94.8263 84.857L79.5094 95.9854L85.3599 77.9792L70.043 66.8509H88.9757L94.8263 48.8447Z" fill="white" fill-opacity="0.2"/>
<path d="M146.943 48.8447L152.794 66.8509H171.727L156.41 77.9792L162.26 95.9854L146.943 84.857L131.627 95.9854L137.477 77.9792L122.16 66.8509H141.093L146.943 48.8447Z" fill="white" fill-opacity="0.2"/>
<path d="M199.061 48.8447L204.911 66.8509H223.844L208.527 77.9792L214.378 95.9854L199.061 84.857L183.744 95.9854L189.594 77.9792L174.277 66.8509H193.21L199.061 48.8447Z" fill="white" fill-opacity="0.2"/>
<path d="M251.178 48.8447L257.028 66.8509H275.961L260.644 77.9792L266.495 95.9854L251.178 84.857L235.861 95.9854L241.711 77.9792L226.395 66.8509H245.327L251.178 48.8447Z" fill="white" fill-opacity="0.2"/>
<path d="M303.296 48.8447L309.147 66.8509H328.079L312.762 77.9792L318.613 95.9854L303.296 84.857L287.979 95.9854L293.83 77.9792L278.513 66.8509H297.445L303.296 48.8447Z" fill="white" fill-opacity="0.2"/>
<path d="M355.413 48.8447L361.264 66.8509H380.197L364.88 77.9792L370.73 95.9854L355.413 84.857L340.096 95.9854L345.947 77.9792L330.63 66.8509H349.563L355.413 48.8447Z" fill="white" fill-opacity="0.2"/>
<path d="M407.53 48.8447L413.381 66.8509H432.314L416.997 77.9792L422.847 95.9854L407.53 84.857L392.213 95.9854L398.064 77.9792L382.747 66.8509H401.68L407.53 48.8447Z" fill="white" fill-opacity="0.2"/>
<path d="M459.648 48.8447L465.498 66.8509H484.431L469.114 77.9792L474.965 95.9854L459.648 84.857L444.331 95.9854L450.181 77.9792L434.864 66.8509H453.797L459.648 48.8447Z" fill="white" fill-opacity="0.2"/>
<path d="M511.766 48.8447L517.616 66.8509H536.549L521.232 77.9792L527.083 95.9854L511.766 84.857L496.449 95.9854L502.299 77.9792L486.982 66.8509H505.915L511.766 48.8447Z" fill="white" fill-opacity="0.2"/>
<path d="M563.883 48.8447L569.733 66.8509H588.666L573.349 77.9792L579.2 95.9854L563.883 84.857L548.566 95.9854L554.417 77.9792L539.1 66.8509H558.032L563.883 48.8447Z" fill="white" fill-opacity="0.2"/>
<path d="M616 48.8447L621.851 66.8509H640.783L625.466 77.9792L631.317 95.9854L616 84.857L600.683 95.9854L606.534 77.9792L591.217 66.8509H610.15L616 48.8447Z" fill="white" fill-opacity="0.2"/>
<path d="M668.117 48.8447L673.968 66.8509H692.901L677.584 77.9792L683.434 95.9854L668.117 84.857L652.8 95.9854L658.651 77.9792L643.334 66.8509H662.267L668.117 48.8447Z" fill="white" fill-opacity="0.2"/>
<path d="M720.235 48.8447L726.086 66.8509H745.019L729.702 77.9792L735.552 95.9854L720.235 84.857L704.919 95.9854L710.769 77.9792L695.452 66.8509H714.385L720.235 48.8447Z" fill="white" fill-opacity="0.2"/>
<path d="M772.353 48.8447L778.203 66.8509H797.136L781.819 77.9792L787.67 95.9854L772.353 84.857L757.036 95.9854L762.886 77.9792L747.569 66.8509H766.502L772.353 48.8447Z" fill="white" fill-opacity="0.2"/>
<path d="M824.47 48.8447L830.32 66.8509H849.253L833.936 77.9792L839.787 95.9854L824.47 84.857L809.153 95.9854L815.003 77.9792L799.687 66.8509H818.619L824.47 48.8447Z" fill="white" fill-opacity="0.2"/>
<path d="M876.587 48.8447L882.438 66.8509H901.37L886.053 77.9792L891.904 95.9854L876.587 84.857L861.27 95.9854L867.121 77.9792L851.804 66.8509H870.736L876.587 48.8447Z" fill="white" fill-opacity="0.2"/>
<path d="M928.705 48.8447L934.556 66.8509H953.488L938.172 77.9792L944.022 95.9854L928.705 84.857L913.388 95.9854L919.239 77.9792L903.922 66.8509H922.855L928.705 48.8447Z" fill="white" fill-opacity="0.2"/>
<path d="M980.822 48.8447L986.673 66.8509H1005.61L990.289 77.9792L996.139 95.9854L980.822 84.857L965.505 95.9854L971.356 77.9792L956.039 66.8509H974.972L980.822 48.8447Z" fill="white" fill-opacity="0.2"/>
<path d="M1032.94 48.8447L1038.79 66.8509H1057.72L1042.41 77.9792L1048.26 95.9854L1032.94 84.857L1017.62 95.9854L1023.47 77.9792L1008.16 66.8509H1027.09L1032.94 48.8447Z" fill="white" fill-opacity="0.2"/>
<path d="M1085.06 48.8447L1090.91 66.8509H1109.84L1094.52 77.9792L1100.37 95.9854L1085.06 84.857L1069.74 95.9854L1075.59 77.9792L1060.27 66.8509H1079.21L1085.06 48.8447Z" fill="white" fill-opacity="0.2"/>
<path d="M1137.17 48.8447L1143.03 66.8509H1161.96L1146.64 77.9792L1152.49 95.9854L1137.17 84.857L1121.86 95.9854L1127.71 77.9792L1112.39 66.8509H1131.32L1137.17 48.8447Z" fill="white" fill-opacity="0.2"/>
<path d="M1189.29 48.8447L1195.14 66.8509H1214.08L1198.76 77.9792L1204.61 95.9854L1189.29 84.857L1173.98 95.9854L1179.83 77.9792L1164.51 66.8509H1183.44L1189.29 48.8447Z" fill="white" fill-opacity="0.2"/>
<path d="M1241.41 48.8447L1247.26 66.8509H1266.19L1250.88 77.9792L1256.73 95.9854L1241.41 84.857L1226.09 95.9854L1231.94 77.9792L1216.63 66.8509H1235.56L1241.41 48.8447Z" fill="white" fill-opacity="0.2"/>
<path d="M1293.53 48.8447L1299.38 66.8509H1318.31L1302.99 77.9792L1308.84 95.9854L1293.53 84.857L1278.21 95.9854L1284.06 77.9792L1268.74 66.8509H1287.68L1293.53 48.8447Z" fill="white" fill-opacity="0.2"/>
<path d="M-9.40907 106.377L-3.55852 124.383H15.3742L0.0573158 135.511L5.90786 153.518L-9.40907 142.389L-24.726 153.518L-18.8754 135.511L-34.1924 124.383H-15.2596L-9.40907 106.377Z" fill="white" fill-opacity="0.2"/>
<path d="M42.7086 106.377L48.5592 124.383H67.4919L52.175 135.511L58.0255 153.518L42.7086 142.389L27.3917 153.518L33.2422 135.511L17.9253 124.383H36.8581L42.7086 106.377Z" fill="white" fill-opacity="0.2"/>
<path d="M94.8263 106.377L100.677 124.383H119.61L104.293 135.511L110.143 153.518L94.8263 142.389L79.5094 153.518L85.3599 135.511L70.043 124.383H88.9757L94.8263 106.377Z" fill="white" fill-opacity="0.2"/>
<path d="M146.943 106.377L152.794 124.383H171.727L156.41 135.511L162.26 153.518L146.943 142.389L131.627 153.518L137.477 135.511L122.16 124.383H141.093L146.943 106.377Z" fill="white" fill-opacity="0.2"/>
<path d="M199.061 106.377L204.911 124.383H223.844L208.527 135.511L214.378 153.518L199.061 142.389L183.744 153.518L189.594 135.511L174.277 124.383H193.21L199.061 106.377Z" fill="white" fill-opacity="0.2"/>
<path d="M251.178 106.377L257.028 124.383H275.961L260.644 135.511L266.495 153.518L251.178 142.389L235.861 153.518L241.711 135.511L226.395 124.383H245.327L251.178 106.377Z" fill="white" fill-opacity="0.2"/>
<path d="M303.296 106.377L309.147 124.383H328.079L312.762 135.511L318.613 153.518L303.296 142.389L287.979 153.518L293.83 135.511L278.513 124.383H297.445L303.296 106.377Z" fill="white" fill-opacity="0.2"/>
<path d="M355.413 106.377L361.264 124.383H380.197L364.88 135.511L370.73 153.518L355.413 142.389L340.096 153.518L345.947 135.511L330.63 124.383H349.563L355.413 106.377Z" fill="white" fill-opacity="0.2"/>
<path d="M407.53 106.377L413.381 124.383H432.314L416.997 135.511L422.847 153.518L407.53 142.389L392.213 153.518L398.064 135.511L382.747 124.383H401.68L407.53 106.377Z" fill="white" fill-opacity="0.2"/>
<path d="M459.648 106.377L465.498 124.383H484.431L469.114 135.511L474.965 153.518L459.648 142.389L444.331 153.518L450.181 135.511L434.864 124.383H453.797L459.648 106.377Z" fill="white" fill-opacity="0.2"/>
<path d="M511.766 106.377L517.616 124.383H536.549L521.232 135.511L527.083 153.518L511.766 142.389L496.449 153.518L502.299 135.511L486.982 124.383H505.915L511.766 106.377Z" fill="white" fill-opacity="0.2"/>
<path d="M563.883 106.377L569.733 124.383H588.666L573.349 135.511L579.2 153.518L563.883 142.389L548.566 153.518L554.417 135.511L539.1 124.383H558.032L563.883 106.377Z" fill="white" fill-opacity="0.2"/>
<path d="M616 106.377L621.851 124.383H640.783L625.466 135.511L631.317 153.518L616 142.389L600.683 153.518L606.534 135.511L591.217 124.383H610.15L616 106.377Z" fill="white" fill-opacity="0.2"/>
<path d="M668.117 106.377L673.968 124.383H692.901L677.584 135.511L683.434 153.518L668.117 142.389L652.8 153.518L658.651 135.511L643.334 124.383H662.267L668.117 106.377Z" fill="white" fill-opacity="0.2"/>
<path d="M720.235 106.377L726.086 124.383H745.019L729.702 135.511L735.552 153.518L720.235 142.389L704.919 153.518L710.769 135.511L695.452 124.383H714.385L720.235 106.377Z" fill="white" fill-opacity="0.2"/>
<path d="M772.353 106.377L778.203 124.383H797.136L781.819 135.511L787.67 153.518L772.353 142.389L757.036 153.518L762.886 135.511L747.569 124.383H766.502L772.353 106.377Z" fill="white" fill-opacity="0.2"/>
<path d="M824.47 106.377L830.32 124.383H849.253L833.936 135.511L839.787 153.518L824.47 142.389L809.153 153.518L815.003 135.511L799.687 124.383H818.619L824.47 106.377Z" fill="white" fill-opacity="0.2"/>
<path d="M876.587 106.377L882.438 124.383H901.37L886.053 135.511L891.904 153.518L876.587 142.389L861.27 153.518L867.121 135.511L851.804 124.383H870.736L876.587 106.377Z" fill="white" fill-opacity="0.2"/>
<path d="M928.705 106.377L934.556 124.383H953.488L938.172 135.511L944.022 153.518L928.705 142.389L913.388 153.518L919.239 135.511L903.922 124.383H922.855L928.705 106.377Z" fill="white" fill-opacity="0.2"/>
<path d="M980.822 106.377L986.673 124.383H1005.61L990.289 135.511L996.139 153.518L980.822 142.389L965.505 153.518L971.356 135.511L956.039 124.383H974.972L980.822 106.377Z" fill="white" fill-opacity="0.2"/>
<path d="M1032.94 106.377L1038.79 124.383H1057.72L1042.41 135.511L1048.26 153.518L1032.94 142.389L1017.62 153.518L1023.47 135.511L1008.16 124.383H1027.09L1032.94 106.377Z" fill="white" fill-opacity="0.2"/>
<path d="M1085.06 106.377L1090.91 124.383H1109.84L1094.52 135.511L1100.37 153.518L1085.06 142.389L1069.74 153.518L1075.59 135.511L1060.27 124.383H1079.21L1085.06 106.377Z" fill="white" fill-opacity="0.2"/>
<path d="M1137.17 106.377L1143.03 124.383H1161.96L1146.64 135.511L1152.49 153.518L1137.17 142.389L1121.86 153.518L1127.71 135.511L1112.39 124.383H1131.32L1137.17 106.377Z" fill="white" fill-opacity="0.2"/>
<path d="M1189.29 106.377L1195.14 124.383H1214.08L1198.76 135.511L1204.61 153.518L1189.29 142.389L1173.98 153.518L1179.83 135.511L1164.51 124.383H1183.44L1189.29 106.377Z" fill="white" fill-opacity="0.2"/>
<path d="M1241.41 106.377L1247.26 124.383H1266.19L1250.88 135.511L1256.73 153.518L1241.41 142.389L1226.09 153.518L1231.94 135.511L1216.63 124.383H1235.56L1241.41 106.377Z" fill="white" fill-opacity="0.2"/>
<path d="M1293.53 106.377L1299.38 124.383H1318.31L1302.99 135.511L1308.84 153.518L1293.53 142.389L1278.21 153.518L1284.06 135.511L1268.74 124.383H1287.68L1293.53 106.377Z" fill="white" fill-opacity="0.2"/>
<path d="M-9.40907 163.909L-3.55852 181.915H15.3742L0.0573158 193.044L5.90786 211.05L-9.40907 199.921L-24.726 211.05L-18.8754 193.044L-34.1924 181.915H-15.2596L-9.40907 163.909Z" fill="white" fill-opacity="0.2"/>
<path d="M42.7086 163.909L48.5592 181.915H67.4919L52.175 193.044L58.0255 211.05L42.7086 199.921L27.3917 211.05L33.2422 193.044L17.9253 181.915H36.8581L42.7086 163.909Z" fill="white" fill-opacity="0.2"/>
<path d="M94.8263 163.909L100.677 181.915H119.61L104.293 193.044L110.143 211.05L94.8263 199.921L79.5094 211.05L85.3599 193.044L70.043 181.915H88.9757L94.8263 163.909Z" fill="white" fill-opacity="0.2"/>
<path d="M146.943 163.909L152.794 181.915H171.727L156.41 193.044L162.26 211.05L146.943 199.921L131.627 211.05L137.477 193.044L122.16 181.915H141.093L146.943 163.909Z" fill="white" fill-opacity="0.2"/>
<path d="M199.061 163.909L204.911 181.915H223.844L208.527 193.044L214.378 211.05L199.061 199.921L183.744 211.05L189.594 193.044L174.277 181.915H193.21L199.061 163.909Z" fill="white" fill-opacity="0.2"/>
<path d="M251.178 163.909L257.028 181.915H275.961L260.644 193.044L266.495 211.05L251.178 199.921L235.861 211.05L241.711 193.044L226.395 181.915H245.327L251.178 163.909Z" fill="white" fill-opacity="0.2"/>
<path d="M303.296 163.909L309.147 181.915H328.079L312.762 193.044L318.613 211.05L303.296 199.921L287.979 211.05L293.83 193.044L278.513 181.915H297.445L303.296 163.909Z" fill="white" fill-opacity="0.2"/>
<path d="M355.413 163.909L361.264 181.915H380.197L364.88 193.044L370.73 211.05L355.413 199.921L340.096 211.05L345.947 193.044L330.63 181.915H349.563L355.413 163.909Z" fill="white" fill-opacity="0.2"/>
<path d="M407.53 163.909L413.381 181.915H432.314L416.997 193.044L422.847 211.05L407.53 199.921L392.213 211.05L398.064 193.044L382.747 181.915H401.68L407.53 163.909Z" fill="white" fill-opacity="0.2"/>
<path d="M459.648 163.909L465.498 181.915H484.431L469.114 193.044L474.965 211.05L459.648 199.921L444.331 211.05L450.181 193.044L434.864 181.915H453.797L459.648 163.909Z" fill="white" fill-opacity="0.2"/>
<path d="M511.766 163.909L517.616 181.915H536.549L521.232 193.044L527.083 211.05L511.766 199.921L496.449 211.05L502.299 193.044L486.982 181.915H505.915L511.766 163.909Z" fill="white" fill-opacity="0.2"/>
<path d="M563.883 163.909L569.733 181.915H588.666L573.349 193.044L579.2 211.05L563.883 199.921L548.566 211.05L554.417 193.044L539.1 181.915H558.032L563.883 163.909Z" fill="white" fill-opacity="0.2"/>
<path d="M616 163.909L621.851 181.915H640.783L625.466 193.044L631.317 211.05L616 199.921L600.683 211.05L606.534 193.044L591.217 181.915H610.15L616 163.909Z" fill="white" fill-opacity="0.2"/>
<path d="M668.117 163.909L673.968 181.915H692.901L677.584 193.044L683.434 211.05L668.117 199.921L652.8 211.05L658.651 193.044L643.334 181.915H662.267L668.117 163.909Z" fill="white" fill-opacity="0.2"/>
<path d="M720.235 163.909L726.086 181.915H745.019L729.702 193.044L735.552 211.05L720.235 199.921L704.919 211.05L710.769 193.044L695.452 181.915H714.385L720.235 163.909Z" fill="white" fill-opacity="0.2"/>
<path d="M772.353 163.909L778.203 181.915H797.136L781.819 193.044L787.67 211.05L772.353 199.921L757.036 211.05L762.886 193.044L747.569 181.915H766.502L772.353 163.909Z" fill="white" fill-opacity="0.2"/>
<path d="M824.47 163.909L830.32 181.915H849.253L833.936 193.044L839.787 211.05L824.47 199.921L809.153 211.05L815.003 193.044L799.687 181.915H818.619L824.47 163.909Z" fill="white" fill-opacity="0.2"/>
<path d="M876.587 163.909L882.438 181.915H901.37L886.053 193.044L891.904 211.05L876.587 199.921L861.27 211.05L867.121 193.044L851.804 181.915H870.736L876.587 163.909Z" fill="white" fill-opacity="0.2"/>
<path d="M928.705 163.909L934.556 181.915H953.488L938.172 193.044L944.022 211.05L928.705 199.921L913.388 211.05L919.239 193.044L903.922 181.915H922.855L928.705 163.909Z" fill="white" fill-opacity="0.2"/>
<path d="M980.822 163.909L986.673 181.915H1005.61L990.289 193.044L996.139 211.05L980.822 199.921L965.505 211.05L971.356 193.044L956.039 181.915H974.972L980.822 163.909Z" fill="white" fill-opacity="0.2"/>
<path d="M1032.94 163.909L1038.79 181.915H1057.72L1042.41 193.044L1048.26 211.05L1032.94 199.921L1017.62 211.05L1023.47 193.044L1008.16 181.915H1027.09L1032.94 163.909Z" fill="white" fill-opacity="0.2"/>
<path d="M1085.06 163.909L1090.91 181.915H1109.84L1094.52 193.044L1100.37 211.05L1085.06 199.921L1069.74 211.05L1075.59 193.044L1060.27 181.915H1079.21L1085.06 163.909Z" fill="white" fill-opacity="0.2"/>
<path d="M1137.17 163.909L1143.03 181.915H1161.96L1146.64 193.044L1152.49 211.05L1137.17 199.921L1121.86 211.05L1127.71 193.044L1112.39 181.915H1131.32L1137.17 163.909Z" fill="white" fill-opacity="0.2"/>
<path d="M1189.29 163.909L1195.14 181.915H1214.08L1198.76 193.044L1204.61 211.05L1189.29 199.921L1173.98 211.05L1179.83 193.044L1164.51 181.915H1183.44L1189.29 163.909Z" fill="white" fill-opacity="0.2"/>
<path d="M1241.41 163.909L1247.26 181.915H1266.19L1250.88 193.044L1256.73 211.05L1241.41 199.921L1226.09 211.05L1231.94 193.044L1216.63 181.915H1235.56L1241.41 163.909Z" fill="white" fill-opacity="0.2"/>
<path d="M1293.53 163.909L1299.38 181.915H1318.31L1302.99 193.044L1308.84 211.05L1293.53 199.921L1278.21 211.05L1284.06 193.044L1268.74 181.915H1287.68L1293.53 163.909Z" fill="white" fill-opacity="0.2"/>
</g>
</svg>
