<svg width="91" height="80" viewBox="0 0 91 80" fill="none" xmlns="http://www.w3.org/2000/svg">
<path d="M10.125 80C7.375 80 5.02083 79.0208 3.0625 77.0625C1.10417 75.1042 0.125 72.75 0.125 70C0.125 67.25 1.10417 64.8958 3.0625 62.9375C5.02083 60.9792 7.375 60 10.125 60C12.875 60 15.2292 60.9792 17.1875 62.9375C19.1458 64.8958 20.125 67.25 20.125 70C20.125 72.75 19.1458 75.1042 17.1875 77.0625C15.2292 79.0208 12.875 80 10.125 80ZM10.125 50C7.375 50 5.02083 49.0208 3.0625 47.0625C1.10417 45.1042 0.125 42.75 0.125 40C0.125 37.25 1.10417 34.8958 3.0625 32.9375C5.02083 30.9792 7.375 30 10.125 30C12.875 30 15.2292 30.9792 17.1875 32.9375C19.1458 34.8958 20.125 37.25 20.125 40C20.125 42.75 19.1458 45.1042 17.1875 47.0625C15.2292 49.0208 12.875 50 10.125 50ZM10.125 20C7.375 20 5.02083 19.0208 3.0625 17.0625C1.10417 15.1042 0.125 12.75 0.125 10C0.125 7.25 1.10417 4.89583 3.0625 2.9375C5.02083 0.979167 7.375 0 10.125 0C12.875 0 15.2292 0.979167 17.1875 2.9375C19.1458 4.89583 20.125 7.25 20.125 10C20.125 12.75 19.1458 15.1042 17.1875 17.0625C15.2292 19.0208 12.875 20 10.125 20ZM40.125 20C37.375 20 35.0208 19.0208 33.0625 17.0625C31.1042 15.1042 30.125 12.75 30.125 10C30.125 7.25 31.1042 4.89583 33.0625 2.9375C35.0208 0.979167 37.375 0 40.125 0C42.875 0 45.2292 0.979167 47.1875 2.9375C49.1458 4.89583 50.125 7.25 50.125 10C50.125 12.75 49.1458 15.1042 47.1875 17.0625C45.2292 19.0208 42.875 20 40.125 20ZM70.125 20C67.375 20 65.0208 19.0208 63.0625 17.0625C61.1042 15.1042 60.125 12.75 60.125 10C60.125 7.25 61.1042 4.89583 63.0625 2.9375C65.0208 0.979167 67.375 0 70.125 0C72.875 0 75.2292 0.979167 77.1875 2.9375C79.1458 4.89583 80.125 7.25 80.125 10C80.125 12.75 79.1458 15.1042 77.1875 17.0625C75.2292 19.0208 72.875 20 70.125 20ZM40.125 50C37.375 50 35.0208 49.0208 33.0625 47.0625C31.1042 45.1042 30.125 42.75 30.125 40C30.125 37.25 31.1042 34.8958 33.0625 32.9375C35.0208 30.9792 37.375 30 40.125 30C42.875 30 45.2292 30.9792 47.1875 32.9375C49.1458 34.8958 50.125 37.25 50.125 40C50.125 42.75 49.1458 45.1042 47.1875 47.0625C45.2292 49.0208 42.875 50 40.125 50ZM45.125 80V64.625L72.75 37.125C73.5 36.375 74.3333 35.8333 75.25 35.5C76.1667 35.1667 77.0833 35 78 35C79 35 79.9583 35.1875 80.875 35.5625C81.7917 35.9375 82.625 36.5 83.375 37.25L88 41.875C88.6667 42.625 89.1875 43.4583 89.5625 44.375C89.9375 45.2917 90.125 46.2083 90.125 47.125C90.125 48.0417 89.9583 48.9792 89.625 49.9375C89.2917 50.8958 88.75 51.75 88 52.5L60.5 80H45.125ZM52.625 72.5H57.375L72.5 57.25L70.25 54.875L67.875 52.625L52.625 67.75V72.5ZM70.25 54.875L67.875 52.625L72.5 57.25L70.25 54.875Z" fill="white"/>
</svg>
