<svg width="560" height="580" viewBox="0 0 560 580" fill="none" xmlns="http://www.w3.org/2000/svg">
<g clip-path="url(#clip0_5762_25450)">
<rect width="560" height="580" rx="12" fill="#FFCCCC"/>
<g opacity="0.6">
<path opacity="0.6" d="M-103 -10.9628C-45 -22.1295 113.6 -25.5628 284 50.0372C497 144.537 527 250.537 781.5 163.537" stroke="#FFAAAA" stroke-width="31"/>
<path opacity="0.6" d="M-103 -122.963C-45 -134.129 113.6 -137.563 284 -61.9628C497 32.5372 527 138.537 781.5 51.5371" stroke="#FFAAAA" stroke-width="31"/>
<path opacity="0.6" d="M-287 53.0372C-229 41.8705 -70.4 38.4372 100 114.037C313 208.537 343 314.537 597.5 227.537" stroke="#FFAAAA" stroke-width="31"/>
<path opacity="0.6" d="M-151 205.037C-93 193.871 65.6 190.437 236 266.037C449 360.537 479 466.537 733.5 379.537" stroke="#FFAAAA" stroke-width="31"/>
<path opacity="0.6" d="M-15 357.037C43 345.871 201.6 342.437 372 418.037C585 512.537 615 618.537 869.5 531.537" stroke="#FFAAAA" stroke-width="31"/>
<path opacity="0.6" d="M-162 381.037C-104 369.871 54.6 366.437 225 442.037C438 536.537 468 642.537 722.5 555.537" stroke="#FFAAAA" stroke-width="31"/>
<path opacity="0.6" d="M-301 440.037C-243 428.871 -84.4 425.437 86 501.037C299 595.537 329 701.537 583.5 614.537" stroke="#FFAAAA" stroke-width="31"/>
<path opacity="0.6" d="M-440 443.037C-382 431.871 -223.4 428.437 -53 504.037C160 598.537 190 704.537 444.5 617.537" stroke="#FFAAAA" stroke-width="31"/>
</g>
</g>
<defs>
<clipPath id="clip0_5762_25450">
<rect width="560" height="580" rx="12" fill="white"/>
</clipPath>
</defs>
</svg>
