<svg width="122" height="48" viewBox="0 0 122 48" fill="none" xmlns="http://www.w3.org/2000/svg">
<g clip-path="url(#clip0_1552_8894)">
<path d="M38.5239 32.4263L39.9921 28.9949C41.5995 30.1853 43.6962 30.8154 45.7933 30.8154C47.3311 30.8154 48.3095 30.2204 48.3095 29.3101C48.2745 26.7889 39.0482 28.7498 38.9781 22.4112C38.943 19.1897 41.809 16.7036 45.8635 16.7036C48.2745 16.7036 50.6864 17.2991 52.3986 18.6649L51.0267 22.1696C49.4514 21.1566 47.5056 20.4503 45.6535 20.4503C44.3954 20.4503 43.5563 21.0453 43.5563 21.8162C43.5914 24.3023 52.8883 22.9364 52.9931 28.9949C52.9931 32.2865 50.1967 34.5977 46.2124 34.5977C43.2771 34.5977 40.586 33.8975 38.5234 32.4263H38.5239ZM96.982 27.7523C96.6114 28.4108 96.0723 28.9588 95.4201 29.3402C94.7679 29.7216 94.0259 29.9226 93.2703 29.9227C90.9155 29.9227 89.0068 28.0099 89.0068 25.6506C89.0068 23.2913 90.9155 21.3786 93.2703 21.3786C94.0259 21.3787 94.7679 21.5797 95.4201 21.9611C96.0723 22.3425 96.6114 22.8905 96.982 23.549L101.064 21.2834C99.5348 18.5511 96.6186 16.7036 93.2703 16.7036C88.3387 16.7036 84.3408 20.709 84.3408 25.6506C84.3408 30.5918 88.3387 34.5977 93.2703 34.5977C96.6186 34.5977 99.5348 32.7501 101.064 30.0179L96.982 27.7523ZM55.6416 34.2473H60.7442V9.25574H55.6421L55.6416 34.2473ZM103.64 9.25574V34.2473H108.743V26.7599L114.789 34.2473H121.311L113.622 25.3524L120.752 17.0524H114.51L108.743 23.953V9.25574H103.64ZM76.4644 17.0535V19.085C75.6259 17.684 73.5638 16.7036 71.3969 16.7036C66.9234 16.7036 63.3937 20.6608 63.3937 25.6331C63.3937 30.6053 66.9234 34.5977 71.3969 34.5977C73.5638 34.5977 75.6259 33.6173 76.4644 32.2163V34.2473H81.567V17.0535H76.4644ZM76.4644 27.7869C75.7306 29.0124 74.1928 29.9222 72.4806 29.9222C70.1253 29.9222 68.2166 28.0099 68.2166 25.6506C68.2166 23.2913 70.1253 21.3786 72.4806 21.3786C74.1928 21.3786 75.7306 22.3239 76.4644 23.584V27.7869Z" fill="black"/>
<path d="M11.5777 8.70361C9.92408 8.70361 8.58378 10.0469 8.58378 11.7035C8.58339 12.0971 8.66051 12.4868 8.81075 12.8506C8.961 13.2143 9.18141 13.5449 9.45942 13.8235C9.73743 14.1021 10.0676 14.3231 10.431 14.4741C10.7945 14.6251 11.1841 14.703 11.5777 14.7034H14.572V11.7035C14.5727 10.9086 14.2576 10.1461 13.6961 9.58348C13.1345 9.0209 12.3725 8.70441 11.5777 8.70361ZM11.5777 16.7033H3.59349C1.93991 16.7033 0.599609 18.0466 0.599609 19.7037C0.599609 21.3603 1.93991 22.7036 3.59349 22.7036H11.5782C13.2312 22.7036 14.572 21.3603 14.572 19.7037C14.572 18.0466 13.2312 16.7033 11.5777 16.7033Z" fill="#36C5F0"/>
<path d="M30.5408 19.7037C30.5408 18.0466 29.2 16.7033 27.5464 16.7033C25.8928 16.7033 24.5525 18.0466 24.5525 19.7037V22.7036H27.5464C28.3413 22.7028 29.1033 22.3863 29.6648 21.8237C30.2264 21.2612 30.5415 20.4986 30.5408 19.7037ZM22.5566 19.7037V11.7035C22.5573 10.9086 22.2422 10.1461 21.6807 9.58348C21.1191 9.0209 20.3571 8.70441 19.5622 8.70361C17.9087 8.70361 16.5684 10.0469 16.5684 11.7035V19.7032C16.5684 21.3608 17.9087 22.7041 19.5622 22.7041C20.3571 22.7033 21.1191 22.3868 21.6807 21.8242C22.2422 21.2617 22.5573 20.4991 22.5566 19.7042" fill="#2EB67D"/>
<path d="M19.5622 38.7036C20.3571 38.7028 21.1191 38.3863 21.6807 37.8237C22.2422 37.2612 22.5573 36.4986 22.5566 35.7037C22.5573 34.9088 22.2422 34.1463 21.6807 33.5837C21.1191 33.0211 20.3571 32.7046 19.5622 32.7038H16.5684V35.7037C16.5684 37.3603 17.9087 38.7036 19.5622 38.7036ZM19.5622 30.7039H27.5469C29.2 30.7039 30.5408 29.3606 30.5408 27.7035C30.5415 26.9086 30.2264 26.1461 29.6648 25.5835C29.1033 25.0209 28.3413 24.7044 27.5464 24.7036H19.5622C17.9087 24.7036 16.5684 26.0469 16.5684 27.7035C16.568 28.0971 16.6451 28.4868 16.7953 28.8506C16.9456 29.2143 17.166 29.5449 17.444 29.8235C17.722 30.1021 18.0522 30.3231 18.4156 30.4741C18.7791 30.6251 19.1687 30.703 19.5622 30.7034" fill="#ECB22E"/>
<path d="M0.599611 27.7035C0.599216 28.0971 0.676341 28.4868 0.826584 28.8506C0.976826 29.2143 1.19724 29.5449 1.47525 29.8235C1.75326 30.1021 2.08341 30.3231 2.44686 30.4741C2.81031 30.6251 3.19993 30.703 3.59349 30.7034C4.38836 30.7026 5.15036 30.3861 5.7119 29.8235C6.27344 29.261 6.58853 28.4984 6.58787 27.7035V24.7036H3.59349C1.93991 24.7036 0.599611 26.0469 0.599611 27.7035ZM8.58378 27.7035V35.7032C8.58378 37.3603 9.92409 38.7036 11.5777 38.7036C12.3725 38.7028 13.1345 38.3863 13.6961 37.8237C14.2576 37.2612 14.5727 36.4986 14.572 35.7037V27.7035C14.5724 27.3099 14.4953 26.9201 14.345 26.5563C14.1947 26.1925 13.9743 25.8619 13.6962 25.5833C13.4182 25.3048 13.0879 25.0837 12.7244 24.9327C12.3609 24.7818 11.9713 24.7039 11.5777 24.7036C9.92409 24.7036 8.58378 26.0469 8.58378 27.7035Z" fill="#E01E5A"/>
</g>
<defs>
<clipPath id="clip0_1552_8894">
<rect width="121" height="48" fill="white" transform="translate(0.599609)"/>
</clipPath>
</defs>
</svg>
