<svg width="141" height="48" viewBox="0 0 141 48" fill="none" xmlns="http://www.w3.org/2000/svg">
<g clip-path="url(#clip0_1552_8892)">
<path d="M21.8734 3.0791C10.2755 3.0791 0.873047 12.4813 0.873047 24.0792C0.873047 35.6777 10.2755 45.0791 21.8734 45.0791C33.4726 45.0791 42.8741 35.6777 42.8741 24.0792C42.8741 12.482 33.4726 3.0801 21.8732 3.0801L21.8734 3.0791ZM31.5041 33.3673C31.1279 33.9842 30.3204 34.1798 29.7035 33.8011C24.7729 30.7894 18.5658 30.1073 11.2558 31.7774C10.5513 31.9379 9.84917 31.4966 9.68868 30.7919C9.52743 30.0872 9.96704 29.3851 10.6732 29.2246C18.6728 27.3969 25.5347 28.1839 31.0702 31.5668C31.6871 31.9454 31.8827 32.7504 31.5041 33.3673ZM34.0745 27.6492C33.6005 28.4196 32.5924 28.6628 31.8226 28.1889C26.1777 24.7192 17.5729 23.7144 10.8961 25.7411C10.0302 26.0026 9.11567 25.5146 8.85286 24.6502C8.59205 23.7843 9.08031 22.8715 9.94472 22.6082C17.5714 20.2941 27.0529 21.415 33.5353 25.3985C34.3052 25.8725 34.5484 26.8806 34.0745 27.6495V27.6492ZM34.2952 21.6949C27.5268 17.6748 16.36 17.3051 9.89782 19.2664C8.86013 19.5811 7.76275 18.9953 7.44828 17.9576C7.13382 16.9194 7.71912 15.8228 8.75756 15.5073C16.1756 13.2554 28.5073 13.6905 36.2998 18.3165C37.2352 18.8704 37.5412 20.0759 36.9869 21.008C36.4352 21.9414 35.2265 22.2491 34.2962 21.6949H34.2952ZM58.0081 22.4653C54.382 21.6006 53.7375 20.9937 53.7375 19.7186C53.7375 18.5139 54.871 17.7031 56.5587 17.7031C58.1937 17.7031 59.8137 18.3187 61.5139 19.5861C61.5641 19.6245 61.6293 19.6398 61.692 19.6298C61.7572 19.6203 61.8124 19.5854 61.85 19.533L63.6204 17.0373C63.6931 16.9345 63.6731 16.7928 63.5753 16.7143C61.5515 15.0911 59.2745 14.3019 56.6113 14.3019C52.6968 14.3019 49.9609 16.6514 49.9609 20.013C49.9609 23.6178 52.3206 24.8942 56.3982 25.8795C59.8664 26.6787 60.4532 27.3483 60.4532 28.545C60.4532 29.8716 59.2695 30.6966 57.3637 30.6966C55.2471 30.6966 53.5193 29.9819 51.5884 28.3118C51.5407 28.2691 51.4755 28.2516 51.4154 28.2541C51.3502 28.2591 51.2925 28.2892 51.2523 28.3368L49.2662 30.6991C49.1835 30.7994 49.1935 30.9449 49.2888 31.0301C51.5357 33.0363 54.2992 34.0945 57.2834 34.0945C61.5014 34.0945 64.2273 31.79 64.2273 28.2215C64.2348 25.2105 62.4318 23.5428 58.0157 22.4685L58.0081 22.4653ZM73.7717 18.8893C71.9435 18.8893 70.4439 19.6095 69.2051 21.0853V19.4242C69.2051 19.293 69.0998 19.1862 68.9694 19.1862H65.7219C65.5915 19.1862 65.4862 19.293 65.4862 19.4242V37.8812C65.4862 38.0116 65.5915 38.1194 65.7219 38.1194H68.9694C69.0998 38.1194 69.2051 38.0116 69.2051 37.8812V32.0558C70.4439 33.4425 71.9435 34.1221 73.7717 34.1221C77.1696 34.1221 80.6102 31.5066 80.6102 26.5064C80.6152 21.5053 77.1746 18.889 73.7742 18.889L73.7717 18.8893ZM76.8336 26.5064C76.8336 29.0515 75.2663 30.8295 73.0194 30.8295C70.8 30.8295 69.1249 28.9713 69.1249 26.5064C69.1249 24.0414 70.8 22.1836 73.0194 22.1836C75.2287 22.1834 76.8336 24.001 76.8336 26.5062V26.5064ZM89.4248 18.8893C85.0489 18.8893 81.6208 22.2586 81.6208 26.5609C81.6208 30.817 85.0263 34.1497 89.3722 34.1497C93.7632 34.1497 97.2013 30.7919 97.2013 26.5064C97.2013 22.2356 93.7858 18.8898 89.4248 18.8898V18.8893ZM89.4248 30.8546C87.0977 30.8546 85.3423 28.9838 85.3423 26.5052C85.3423 24.0153 87.0375 22.2085 89.3722 22.2085C91.7144 22.2085 93.4798 24.0785 93.4798 26.5596C93.4798 29.049 91.7746 30.8546 89.4248 30.8546ZM106.545 19.1862H102.972V15.5334C102.972 15.4025 102.866 15.2957 102.736 15.2957H99.4883C99.3579 15.2957 99.2501 15.4025 99.2501 15.5334V19.1862H97.6903C97.5599 19.1862 97.4546 19.293 97.4546 19.4242V22.2145C97.4546 22.3454 97.5599 22.4525 97.6903 22.4525H99.2501V29.6734C99.2501 32.5899 100.702 34.0695 103.568 34.0695C104.732 34.0695 105.697 33.8287 106.608 33.3121C106.683 33.272 106.728 33.1918 106.728 33.1065V30.4483C106.728 30.3681 106.685 30.2903 106.615 30.2477C106.545 30.2026 106.457 30.2001 106.385 30.2377C105.76 30.5511 105.156 30.6966 104.479 30.6966C103.438 30.6966 102.972 30.2226 102.972 29.1644V22.4537H106.545C106.675 22.4537 106.781 22.3469 106.781 22.2157V19.4257C106.786 19.2945 106.68 19.1877 106.548 19.1877L106.545 19.1862ZM118.993 19.2005V18.7518C118.993 17.432 119.5 16.8435 120.633 16.8435C121.31 16.8435 121.855 16.9779 122.464 17.181C122.539 17.2046 122.617 17.1928 122.677 17.1479C122.74 17.103 122.775 17.031 122.775 16.9548V14.2189C122.775 14.1143 122.71 14.0218 122.607 13.9909C121.965 13.7996 121.142 13.6032 119.909 13.6032C116.912 13.6032 115.325 15.2919 115.325 18.485V19.1721H113.765C113.634 19.1721 113.527 19.279 113.527 19.4099V22.2145C113.527 22.3454 113.634 22.4525 113.765 22.4525H115.325V33.588C115.325 33.7209 115.432 33.8262 115.563 33.8262H118.808C118.941 33.8262 119.046 33.7209 119.046 33.588V22.4532H122.078L126.722 33.588C126.196 34.7566 125.676 34.9898 124.969 34.9898C124.397 34.9898 123.793 34.8193 123.179 34.4807C123.121 34.4506 123.051 34.4456 122.991 34.4632C122.928 34.4858 122.875 34.5309 122.85 34.5911L121.749 37.006C121.697 37.1214 121.742 37.2543 121.852 37.3145C123.001 37.9364 124.036 38.2022 125.318 38.2022C127.715 38.2022 129.042 37.0837 130.208 34.0795L135.84 19.5255C135.87 19.4522 135.86 19.3695 135.815 19.3045C135.772 19.2401 135.7 19.2012 135.622 19.2012H132.242C132.139 19.2012 132.049 19.2657 132.016 19.3607L128.553 29.2496L124.761 19.3542C124.726 19.2622 124.638 19.2012 124.54 19.2012H118.993V19.2005ZM111.776 19.1862H108.529C108.398 19.1862 108.29 19.293 108.29 19.4242V33.588C108.29 33.7209 108.398 33.8262 108.529 33.8262H111.776C111.907 33.8262 112.014 33.7209 112.014 33.588V19.4252C112.014 19.294 111.909 19.1872 111.776 19.1872V19.1862ZM110.171 12.7366C108.885 12.7366 107.842 13.7778 107.842 15.064C107.842 16.3509 108.885 17.3934 110.171 17.3934C111.458 17.3934 112.498 16.3509 112.498 15.064C112.498 13.778 111.455 12.7366 110.171 12.7366ZM138.614 23.7404C137.33 23.7404 136.329 22.7085 136.329 21.4554C136.329 20.2023 137.342 19.1586 138.626 19.1586C139.91 19.1586 140.911 20.1903 140.911 21.4424C140.911 22.6955 139.898 23.7404 138.614 23.7404ZM138.626 19.3858C137.455 19.3858 136.57 20.3161 136.57 21.4554C136.57 22.5942 137.45 23.512 138.614 23.512C139.785 23.512 140.67 22.5824 140.67 21.4424C140.67 20.3036 139.79 19.3858 138.626 19.3858ZM139.133 21.6773L139.78 22.5821H139.233L138.651 21.7521H138.152V22.5821H137.696V20.1837H138.764C139.323 20.1837 139.69 20.4689 139.69 20.9488C139.692 21.3421 139.464 21.5823 139.135 21.6773H139.133ZM138.747 20.5953H138.152V21.3538H138.747C139.043 21.3538 139.221 21.2086 139.221 20.9742C139.221 20.7274 139.043 20.5953 138.747 20.5953Z" fill="#1ED760"/>
</g>
<defs>
<clipPath id="clip0_1552_8892">
<rect width="140" height="48" fill="white" transform="translate(0.800781)"/>
</clipPath>
</defs>
</svg>
