<svg width="1280" height="44" viewBox="0 0 1280 44" fill="none" xmlns="http://www.w3.org/2000/svg">
<path d="M-9.40907 -8.6875L-3.55852 9.31862H15.3742L0.0573158 20.447L5.90786 38.4531L-9.40907 27.3247L-24.726 38.4531L-18.8754 20.447L-34.1924 9.31862H-15.2596L-9.40907 -8.6875Z" fill="white" fill-opacity="0.2"/>
<path d="M42.7086 -8.6875L48.5592 9.31862H67.4919L52.175 20.447L58.0255 38.4531L42.7086 27.3247L27.3917 38.4531L33.2422 20.447L17.9253 9.31862H36.8581L42.7086 -8.6875Z" fill="white" fill-opacity="0.2"/>
<path d="M94.8263 -8.6875L100.677 9.31862H119.61L104.293 20.447L110.143 38.4531L94.8263 27.3247L79.5094 38.4531L85.3599 20.447L70.043 9.31862H88.9757L94.8263 -8.6875Z" fill="white" fill-opacity="0.2"/>
<path d="M146.943 -8.6875L152.794 9.31862H171.727L156.41 20.447L162.26 38.4531L146.943 27.3247L131.627 38.4531L137.477 20.447L122.16 9.31862H141.093L146.943 -8.6875Z" fill="white" fill-opacity="0.2"/>
<path d="M199.061 -8.6875L204.911 9.31862H223.844L208.527 20.447L214.378 38.4531L199.061 27.3247L183.744 38.4531L189.594 20.447L174.277 9.31862H193.21L199.061 -8.6875Z" fill="white" fill-opacity="0.2"/>
<path d="M251.178 -8.6875L257.028 9.31862H275.961L260.644 20.447L266.495 38.4531L251.178 27.3247L235.861 38.4531L241.711 20.447L226.395 9.31862H245.327L251.178 -8.6875Z" fill="white" fill-opacity="0.2"/>
<path d="M303.296 -8.6875L309.147 9.31862H328.079L312.762 20.447L318.613 38.4531L303.296 27.3247L287.979 38.4531L293.83 20.447L278.513 9.31862H297.445L303.296 -8.6875Z" fill="white" fill-opacity="0.2"/>
<path d="M355.413 -8.6875L361.264 9.31862H380.197L364.88 20.447L370.73 38.4531L355.413 27.3247L340.096 38.4531L345.947 20.447L330.63 9.31862H349.563L355.413 -8.6875Z" fill="white" fill-opacity="0.2"/>
<path d="M407.53 -8.6875L413.381 9.31862H432.314L416.997 20.447L422.847 38.4531L407.53 27.3247L392.213 38.4531L398.064 20.447L382.747 9.31862H401.68L407.53 -8.6875Z" fill="white" fill-opacity="0.2"/>
<path d="M459.648 -8.6875L465.498 9.31862H484.431L469.114 20.447L474.965 38.4531L459.648 27.3247L444.331 38.4531L450.181 20.447L434.864 9.31862H453.797L459.648 -8.6875Z" fill="white" fill-opacity="0.2"/>
<path d="M511.766 -8.6875L517.616 9.31862H536.549L521.232 20.447L527.083 38.4531L511.766 27.3247L496.449 38.4531L502.299 20.447L486.982 9.31862H505.915L511.766 -8.6875Z" fill="white" fill-opacity="0.2"/>
<path d="M563.883 -8.6875L569.733 9.31862H588.666L573.349 20.447L579.2 38.4531L563.883 27.3247L548.566 38.4531L554.417 20.447L539.1 9.31862H558.032L563.883 -8.6875Z" fill="white" fill-opacity="0.2"/>
<path d="M616 -8.6875L621.851 9.31862H640.783L625.466 20.447L631.317 38.4531L616 27.3247L600.683 38.4531L606.534 20.447L591.217 9.31862H610.15L616 -8.6875Z" fill="white" fill-opacity="0.2"/>
<path d="M668.117 -8.6875L673.968 9.31862H692.901L677.584 20.447L683.434 38.4531L668.117 27.3247L652.8 38.4531L658.651 20.447L643.334 9.31862H662.267L668.117 -8.6875Z" fill="white" fill-opacity="0.2"/>
<path d="M720.235 -8.6875L726.086 9.31862H745.019L729.702 20.447L735.552 38.4531L720.235 27.3247L704.919 38.4531L710.769 20.447L695.452 9.31862H714.385L720.235 -8.6875Z" fill="white" fill-opacity="0.2"/>
<path d="M772.353 -8.6875L778.203 9.31862H797.136L781.819 20.447L787.67 38.4531L772.353 27.3247L757.036 38.4531L762.886 20.447L747.569 9.31862H766.502L772.353 -8.6875Z" fill="white" fill-opacity="0.2"/>
<path d="M824.47 -8.6875L830.32 9.31862H849.253L833.936 20.447L839.787 38.4531L824.47 27.3247L809.153 38.4531L815.003 20.447L799.687 9.31862H818.619L824.47 -8.6875Z" fill="white" fill-opacity="0.2"/>
<path d="M876.587 -8.6875L882.438 9.31862H901.37L886.053 20.447L891.904 38.4531L876.587 27.3247L861.27 38.4531L867.121 20.447L851.804 9.31862H870.736L876.587 -8.6875Z" fill="white" fill-opacity="0.2"/>
<path d="M928.705 -8.6875L934.556 9.31862H953.488L938.172 20.447L944.022 38.4531L928.705 27.3247L913.388 38.4531L919.239 20.447L903.922 9.31862H922.855L928.705 -8.6875Z" fill="white" fill-opacity="0.2"/>
<path d="M980.822 -8.6875L986.673 9.31862H1005.61L990.289 20.447L996.139 38.4531L980.822 27.3247L965.505 38.4531L971.356 20.447L956.039 9.31862H974.972L980.822 -8.6875Z" fill="white" fill-opacity="0.2"/>
<path d="M1032.94 -8.6875L1038.79 9.31862H1057.72L1042.41 20.447L1048.26 38.4531L1032.94 27.3247L1017.62 38.4531L1023.47 20.447L1008.16 9.31862H1027.09L1032.94 -8.6875Z" fill="white" fill-opacity="0.2"/>
<path d="M1085.06 -8.6875L1090.91 9.31862H1109.84L1094.52 20.447L1100.37 38.4531L1085.06 27.3247L1069.74 38.4531L1075.59 20.447L1060.27 9.31862H1079.21L1085.06 -8.6875Z" fill="white" fill-opacity="0.2"/>
<path d="M1137.17 -8.6875L1143.03 9.31862H1161.96L1146.64 20.447L1152.49 38.4531L1137.17 27.3247L1121.86 38.4531L1127.71 20.447L1112.39 9.31862H1131.32L1137.17 -8.6875Z" fill="white" fill-opacity="0.2"/>
<path d="M1189.29 -8.6875L1195.14 9.31862H1214.08L1198.76 20.447L1204.61 38.4531L1189.29 27.3247L1173.98 38.4531L1179.83 20.447L1164.51 9.31862H1183.44L1189.29 -8.6875Z" fill="white" fill-opacity="0.2"/>
<path d="M1241.41 -8.6875L1247.26 9.31862H1266.19L1250.88 20.447L1256.73 38.4531L1241.41 27.3247L1226.09 38.4531L1231.94 20.447L1216.63 9.31862H1235.56L1241.41 -8.6875Z" fill="white" fill-opacity="0.2"/>
<path d="M1293.53 -8.6875L1299.38 9.31862H1318.31L1302.99 20.447L1308.84 38.4531L1293.53 27.3247L1278.21 38.4531L1284.06 20.447L1268.74 9.31862H1287.68L1293.53 -8.6875Z" fill="white" fill-opacity="0.2"/>
</svg>
