<svg width="1254" height="1077" viewBox="0 0 1254 1077" fill="none" xmlns="http://www.w3.org/2000/svg">
<path fill-rule="evenodd" clip-rule="evenodd" d="M929 462.5H812V-152H799V462.5H747V-152H734V462.5H682V-152H669V462.5H617V-152H604V462.5H-46V474.79H604V523.95H-46V536.24H604V585.4H-46V597.69H604V646.85H-46V659.14H604V769.75C604 939.439 749.507 1077 929 1077C1108.49 1077 1254 939.439 1254 769.75C1254 600.061 1108.49 462.5 929 462.5ZM669 523.95H617V474.79H669V523.95ZM682 523.95H734V474.79H682V523.95ZM747 523.95H799V474.79H747V523.95ZM812 523.95V474.79H929C1101.31 474.79 1241 606.848 1241 769.75C1241 932.652 1101.31 1064.71 929 1064.71C756.687 1064.71 617 932.652 617 769.75V659.14H669V769.75C669 905.502 785.406 1015.55 929 1015.55C1072.59 1015.55 1189 905.502 1189 769.75C1189 633.998 1072.59 523.95 929 523.95H812ZM669 646.85H617V597.69H669V646.85ZM682 659.14V769.75C682 898.714 792.586 1003.26 929 1003.26C1065.41 1003.26 1176 898.714 1176 769.75C1176 640.786 1065.41 536.24 929 536.24H812V585.4H929C1036.7 585.4 1124 667.936 1124 769.75C1124 871.564 1036.7 954.1 929 954.1C821.304 954.1 734 871.564 734 769.75V659.14H682ZM747 585.4H799V536.24H747V585.4ZM734 536.24V585.4H682V536.24H734ZM734 597.69V646.85H682V597.69H734ZM747 769.75V659.14H799V769.75C799 837.626 857.203 892.65 929 892.65C1000.8 892.65 1059 837.626 1059 769.75C1059 701.874 1000.8 646.85 929 646.85H812V597.69H929C1029.52 597.69 1111 674.724 1111 769.75C1111 864.776 1029.52 941.81 929 941.81C828.484 941.81 747 864.776 747 769.75ZM812 769.75C812 830.838 864.383 880.36 929 880.36C993.617 880.36 1046 830.838 1046 769.75C1046 708.662 993.617 659.14 929 659.14H812V769.75ZM799 646.85V597.69H747V646.85H799ZM669 585.4H617V536.24H669V585.4Z" fill="#F0F3FF"/>
</svg>
