<svg width="117" height="48" viewBox="0 0 117 48" fill="none" xmlns="http://www.w3.org/2000/svg">
<g clip-path="url(#clip0_1552_8903)">
<path d="M37.4457 21.4076C37.4457 19.346 35.3841 17.1469 31.948 17.1469C28.0997 17.1469 23.7016 20.0332 23.0144 25.8057C22.3272 31.5782 25.9006 34.1896 29.6115 34.1896C33.3224 34.1896 35.1092 32.8152 37.0333 30.891C35.3841 28.8294 33.185 29.7915 32.7727 29.9289C32.3604 30.2038 31.6732 30.4787 30.5736 30.4787C29.1992 30.4787 27.6874 29.7915 27.6874 27.1801C36.7585 26.218 37.4457 23.4692 37.4457 21.4076ZM33.0476 21.6825C33.0476 22.3697 32.7727 23.4692 28.2371 24.019C29.1992 20.5829 30.9859 20.3081 31.8106 20.3081C32.6352 20.4455 33.0476 20.9953 33.0476 21.6825ZM17.7916 22.2322C17.7916 22.2322 15.8675 28.2796 15.73 28.8294C15.73 28.2796 14.2182 17.4218 14.2182 17.4218C10.9196 17.4218 9.13287 19.7583 8.30822 22.2322C8.30822 22.2322 5.97173 28.2796 5.83429 28.8294C5.69685 28.4171 5.42197 22.3697 5.42197 22.3697C5.14709 19.346 2.39827 17.4218 0.199219 17.4218L2.94803 33.9147C6.38405 33.9147 8.30822 31.5782 9.27031 29.1043C9.27031 29.1043 11.3319 23.7441 11.4694 23.4692C11.4694 23.7441 12.9812 33.9147 12.9812 33.9147C16.4172 33.9147 18.3414 31.7156 19.3035 29.3791L24.1139 17.4218C20.5404 17.4218 18.7537 19.7583 17.7916 22.2322ZM50.2277 17.0095C48.166 17.0095 46.5168 18.109 45.1423 19.8957L46.2419 10C43.3556 10 41.1566 12.4739 40.6068 16.0474L38.4077 33.7772C40.057 33.7772 41.7063 33.3649 42.6684 32.128C43.4931 33.2275 44.73 34.0521 46.5168 34.0521C51.3272 34.0521 54.6258 28.5545 54.6258 23.3318C54.7632 18.5213 52.4267 17.0095 50.2277 17.0095ZM49.6779 25.5308C49.1281 28.4171 47.6163 30.3412 45.967 30.3412C44.4551 30.3412 43.7679 29.654 43.7679 29.654C44.0428 27.1801 44.3177 25.5308 44.8675 24.1564C45.4172 22.782 46.7916 20.7204 48.166 20.7204C49.5405 20.8578 50.2277 22.6446 49.6779 25.5308ZM66.7206 17.4218H63.422V17.2844C63.6968 15.0853 64.1092 13.9858 65.8959 13.8483C66.9954 13.7109 67.5452 13.1611 67.6826 12.4739C67.8201 11.9242 68.095 10.1374 68.095 10.1374C61.3604 10.1374 59.2987 13.0237 58.749 17.4218V17.5592H58.6115C57.512 17.5592 56.275 18.7962 56.1376 20.3081L56.0002 20.8578H58.1992L56.275 36.2512L55.7253 39C55.8627 39 55.8627 39 56.0002 39C59.1613 38.8626 61.0855 36.3886 61.6352 32.8152L63.1471 20.7204H64.2466C65.2087 20.7204 66.4457 19.7583 66.7206 17.9716V17.4218ZM84.0381 17.1469C80.1897 17.1469 76.6163 20.0332 75.5167 24.4313C74.4172 28.8294 76.0665 34.1896 81.7016 34.1896C87.3367 34.1896 90.6352 28.6919 90.6352 24.1564C90.4978 19.6209 87.4741 17.1469 84.0381 17.1469ZM85.5499 25.3934C85.4125 27.455 84.4504 30.4787 81.9765 30.4787C79.5025 30.4787 79.9149 26.9052 80.0523 25.2559C80.3272 23.4692 81.2893 20.8578 83.4883 20.8578C85.5499 20.8578 85.8248 23.1943 85.5499 25.3934ZM109.602 22.2322C109.602 22.2322 107.678 28.2796 107.54 28.8294C107.54 28.2796 106.029 17.4218 106.029 17.4218C102.73 17.4218 100.943 19.7583 100.119 22.2322C100.119 22.2322 97.7822 28.2796 97.6447 28.8294C97.6447 28.4171 97.2324 22.3697 97.2324 22.3697C97.0949 19.346 94.2087 17.5592 92.0097 17.5592L94.7585 34.0521C98.1945 34.0521 100.119 31.7156 101.081 29.2417C101.081 29.2417 103.142 23.8815 103.28 23.6066C103.28 23.8815 104.792 34.0521 104.792 34.0521C108.228 34.0521 110.152 31.8531 111.114 29.5166L115.649 17.4218C112.213 17.4218 110.427 19.7583 109.602 22.2322ZM69.8817 10.1374L67.1329 32.6777L66.5831 35.4265C66.7205 35.4265 66.7205 35.4265 66.858 35.4265C69.8817 35.4265 72.0807 32.6777 72.3556 29.3791L74.0049 16.4597C74.4172 12.6114 71.9433 10.1374 69.8817 10.1374Z" fill="#1B1B1B"/>
</g>
<defs>
<clipPath id="clip0_1552_8903">
<rect width="116" height="48" fill="white" transform="translate(0.199219)"/>
</clipPath>
</defs>
</svg>
