<svg width="64" height="64" viewBox="0 0 64 64" fill="none" xmlns="http://www.w3.org/2000/svg">
<rect x="0.5" y="0.5" width="63" height="63" rx="5.5" fill="#F7F9FF"/>
<path fill-rule="evenodd" clip-rule="evenodd" d="M42.3274 12.3137L20.6075 12.5604L10.2253 30.5429L20.1739 50.6635L42.4982 50.7629L53.5695 31.5869L42.3274 12.3137ZM47.2026 41.2554L52.5895 31.925L43.9792 31.8866L38.5256 41.3327L47.2026 41.2554ZM46.8082 41.9386L42.1069 50.0815L33.4966 50.0432L38.1311 42.0159L46.8082 41.9386ZM37.3423 42.0229L32.7138 50.0397L20.9725 49.9874L25.51 42.1283L37.3423 42.0229ZM24.9232 41.7853L20.4086 49.6048L15.1591 38.9879L19.4 31.6426L24.9232 41.7853ZM19.7982 30.9528L25.3214 41.0955L30.8684 31.488L25.2834 21.5557L25.2231 21.5567L19.7982 30.9528ZM19.0191 30.9431L14.7971 38.2558L10.9958 30.5677L15.0195 23.5984L19.0191 30.9431ZM15.4177 22.9086L19.4173 30.2533L24.8269 20.8837L24.9047 20.8823L20.8011 13.5844L15.4177 22.9086ZM25.9044 41.4451L37.7367 41.3397L43.1965 31.8832L31.4552 31.8309L25.9044 41.4451ZM43.0925 31.2031L31.4587 31.1513L26.0558 21.5427L37.3468 21.3528L43.0925 31.2031ZM36.9542 20.6796L25.6771 20.8693L21.3822 13.2313L32.5357 13.1046L36.9542 20.6796ZM33.3173 13.0957L37.7334 20.6665L46.3285 20.5219L41.9396 12.9978L33.3173 13.0957ZM46.7211 21.1951L38.126 21.3397L43.8814 31.2066L52.5834 31.2453L46.7211 21.1951Z" fill="#001975"/>
<rect x="0.5" y="0.5" width="63" height="63" rx="5.5" stroke="#CCCCCC"/>
</svg>
