<svg width="200" height="200" viewBox="0 0 200 200" fill="none" xmlns="http://www.w3.org/2000/svg">
<circle cx="10.4921" cy="11.8254" r="4.49206" fill="#EBEFFF"/>
<circle cx="28.4608" cy="11.8254" r="4.49206" fill="#EBEFFF"/>
<circle cx="46.4286" cy="11.8254" r="4.49206" fill="#EBEFFF"/>
<circle cx="64.3964" cy="11.8254" r="4.49206" fill="#EBEFFF"/>
<circle cx="82.3651" cy="11.8254" r="4.49206" fill="#EBEFFF"/>
<circle cx="100.333" cy="11.8254" r="4.49206" fill="#EBEFFF"/>
<circle cx="118.302" cy="11.8254" r="4.49206" fill="#EBEFFF"/>
<circle cx="136.269" cy="11.8254" r="4.49206" fill="#EBEFFF"/>
<circle cx="154.238" cy="11.8254" r="4.49206" fill="#EBEFFF"/>
<circle cx="172.207" cy="11.8254" r="4.49206" fill="#EBEFFF"/>
<circle cx="190.175" cy="11.8254" r="4.49206" fill="#EBEFFF"/>
<circle cx="10.4921" cy="29.4762" r="4.49206" fill="#EBEFFF"/>
<circle cx="28.4608" cy="29.4762" r="4.49206" fill="#EBEFFF"/>
<circle cx="46.4286" cy="29.4761" r="4.49206" fill="#EBEFFF"/>
<circle cx="64.3964" cy="29.4761" r="4.49206" fill="#EBEFFF"/>
<circle cx="82.3651" cy="29.4761" r="4.49206" fill="#EBEFFF"/>
<circle cx="100.333" cy="29.4761" r="4.49206" fill="#EBEFFF"/>
<circle cx="118.302" cy="29.4761" r="4.49206" fill="#EBEFFF"/>
<circle cx="136.269" cy="29.4761" r="4.49206" fill="#EBEFFF"/>
<circle cx="154.238" cy="29.4761" r="4.49206" fill="#EBEFFF"/>
<circle cx="172.207" cy="29.4761" r="4.49206" fill="#EBEFFF"/>
<circle cx="190.175" cy="29.4761" r="4.49206" fill="#EBEFFF"/>
<circle cx="10.4921" cy="47.127" r="4.49206" fill="#EBEFFF"/>
<circle cx="28.4608" cy="47.127" r="4.49206" fill="#EBEFFF"/>
<circle cx="46.4286" cy="47.1269" r="4.49206" fill="#EBEFFF"/>
<circle cx="64.3964" cy="47.1269" r="4.49206" fill="#EBEFFF"/>
<circle cx="82.3651" cy="47.1269" r="4.49206" fill="#EBEFFF"/>
<circle cx="100.333" cy="47.1269" r="4.49206" fill="#EBEFFF"/>
<circle cx="118.302" cy="47.1269" r="4.49206" fill="#EBEFFF"/>
<circle cx="136.269" cy="47.1269" r="4.49206" fill="#EBEFFF"/>
<circle cx="154.238" cy="47.1269" r="4.49206" fill="#EBEFFF"/>
<circle cx="172.207" cy="47.1269" r="4.49206" fill="#EBEFFF"/>
<circle cx="190.175" cy="47.1269" r="4.49206" fill="#EBEFFF"/>
<circle cx="10.4921" cy="64.7778" r="4.49206" fill="#EBEFFF"/>
<circle cx="28.4608" cy="64.7778" r="4.49206" fill="#EBEFFF"/>
<circle cx="46.4286" cy="64.7779" r="4.49206" fill="#EBEFFF"/>
<circle cx="64.3964" cy="64.7779" r="4.49206" fill="#EBEFFF"/>
<circle cx="82.3651" cy="64.7779" r="4.49206" fill="#EBEFFF"/>
<circle cx="100.333" cy="64.7779" r="4.49206" fill="#EBEFFF"/>
<circle cx="118.302" cy="64.7779" r="4.49206" fill="#EBEFFF"/>
<circle cx="136.269" cy="64.7779" r="4.49206" fill="#EBEFFF"/>
<circle cx="154.238" cy="64.7779" r="4.49206" fill="#EBEFFF"/>
<circle cx="172.207" cy="64.7779" r="4.49206" fill="#EBEFFF"/>
<circle cx="190.175" cy="64.7779" r="4.49206" fill="#EBEFFF"/>
<circle cx="10.4921" cy="82.4286" r="4.49206" fill="#EBEFFF"/>
<circle cx="28.4608" cy="82.4286" r="4.49206" fill="#EBEFFF"/>
<circle cx="46.4286" cy="82.4286" r="4.49206" fill="#EBEFFF"/>
<circle cx="64.3964" cy="82.4286" r="4.49206" fill="#EBEFFF"/>
<circle cx="82.3651" cy="82.4286" r="4.49206" fill="#EBEFFF"/>
<circle cx="100.333" cy="82.4286" r="4.49206" fill="#EBEFFF"/>
<circle cx="118.302" cy="82.4286" r="4.49206" fill="#EBEFFF"/>
<circle cx="136.269" cy="82.4286" r="4.49206" fill="#EBEFFF"/>
<circle cx="154.238" cy="82.4286" r="4.49206" fill="#EBEFFF"/>
<circle cx="172.207" cy="82.4286" r="4.49206" fill="#EBEFFF"/>
<circle cx="190.175" cy="82.4286" r="4.49206" fill="#EBEFFF"/>
<circle cx="10.4921" cy="100.079" r="4.49206" fill="#EBEFFF"/>
<circle cx="28.4608" cy="100.079" r="4.49206" fill="#EBEFFF"/>
<circle cx="46.4286" cy="100.079" r="4.49206" fill="#EBEFFF"/>
<circle cx="64.3964" cy="100.079" r="4.49206" fill="#EBEFFF"/>
<circle cx="82.3651" cy="100.079" r="4.49206" fill="#EBEFFF"/>
<circle cx="100.333" cy="100.079" r="4.49206" fill="#EBEFFF"/>
<circle cx="118.302" cy="100.079" r="4.49206" fill="#EBEFFF"/>
<circle cx="136.269" cy="100.079" r="4.49206" fill="#EBEFFF"/>
<circle cx="154.238" cy="100.079" r="4.49206" fill="#EBEFFF"/>
<circle cx="172.207" cy="100.079" r="4.49206" fill="#EBEFFF"/>
<circle cx="190.175" cy="100.079" r="4.49206" fill="#EBEFFF"/>
<circle cx="10.4921" cy="117.73" r="4.49206" fill="#EBEFFF"/>
<circle cx="28.4608" cy="117.73" r="4.49206" fill="#EBEFFF"/>
<circle cx="46.4286" cy="117.73" r="4.49206" fill="#EBEFFF"/>
<circle cx="64.3964" cy="117.73" r="4.49206" fill="#EBEFFF"/>
<circle cx="82.3651" cy="117.73" r="4.49206" fill="#EBEFFF"/>
<circle cx="100.333" cy="117.73" r="4.49206" fill="#EBEFFF"/>
<circle cx="118.302" cy="117.73" r="4.49206" fill="#EBEFFF"/>
<circle cx="136.269" cy="117.73" r="4.49206" fill="#EBEFFF"/>
<circle cx="154.238" cy="117.73" r="4.49206" fill="#EBEFFF"/>
<circle cx="172.207" cy="117.73" r="4.49206" fill="#EBEFFF"/>
<circle cx="190.175" cy="117.73" r="4.49206" fill="#EBEFFF"/>
<circle cx="10.4921" cy="135.381" r="4.49206" fill="#EBEFFF"/>
<circle cx="28.4608" cy="135.381" r="4.49206" fill="#EBEFFF"/>
<circle cx="46.4286" cy="135.381" r="4.49206" fill="#EBEFFF"/>
<circle cx="64.3964" cy="135.381" r="4.49206" fill="#EBEFFF"/>
<circle cx="82.3651" cy="135.381" r="4.49206" fill="#EBEFFF"/>
<circle cx="100.333" cy="135.381" r="4.49206" fill="#EBEFFF"/>
<circle cx="118.302" cy="135.381" r="4.49206" fill="#EBEFFF"/>
<circle cx="136.269" cy="135.381" r="4.49206" fill="#EBEFFF"/>
<circle cx="154.238" cy="135.381" r="4.49206" fill="#EBEFFF"/>
<circle cx="172.207" cy="135.381" r="4.49206" fill="#EBEFFF"/>
<circle cx="190.175" cy="135.381" r="4.49206" fill="#EBEFFF"/>
<circle cx="10.4921" cy="153.032" r="4.49206" fill="#EBEFFF"/>
<circle cx="28.4608" cy="153.032" r="4.49206" fill="#EBEFFF"/>
<circle cx="46.4286" cy="153.032" r="4.49206" fill="#EBEFFF"/>
<circle cx="64.3964" cy="153.032" r="4.49206" fill="#EBEFFF"/>
<circle cx="82.3651" cy="153.032" r="4.49206" fill="#EBEFFF"/>
<circle cx="100.333" cy="153.032" r="4.49206" fill="#EBEFFF"/>
<circle cx="118.302" cy="153.032" r="4.49206" fill="#EBEFFF"/>
<circle cx="136.269" cy="153.032" r="4.49206" fill="#EBEFFF"/>
<circle cx="154.238" cy="153.032" r="4.49206" fill="#EBEFFF"/>
<circle cx="172.207" cy="153.032" r="4.49206" fill="#EBEFFF"/>
<circle cx="190.175" cy="153.032" r="4.49206" fill="#EBEFFF"/>
<circle cx="10.4921" cy="170.683" r="4.49206" fill="#EBEFFF"/>
<circle cx="28.4608" cy="170.683" r="4.49206" fill="#EBEFFF"/>
<circle cx="46.4286" cy="170.683" r="4.49206" fill="#EBEFFF"/>
<circle cx="64.3964" cy="170.683" r="4.49206" fill="#EBEFFF"/>
<circle cx="82.3651" cy="170.683" r="4.49206" fill="#EBEFFF"/>
<circle cx="100.333" cy="170.683" r="4.49206" fill="#EBEFFF"/>
<circle cx="118.302" cy="170.683" r="4.49206" fill="#EBEFFF"/>
<circle cx="136.269" cy="170.683" r="4.49206" fill="#EBEFFF"/>
<circle cx="154.238" cy="170.683" r="4.49206" fill="#EBEFFF"/>
<circle cx="172.207" cy="170.683" r="4.49206" fill="#EBEFFF"/>
<circle cx="190.175" cy="170.683" r="4.49206" fill="#EBEFFF"/>
<circle cx="10.4921" cy="188.333" r="4.49206" fill="#EBEFFF"/>
<circle cx="28.4608" cy="188.333" r="4.49206" fill="#EBEFFF"/>
<circle cx="46.4286" cy="188.333" r="4.49206" fill="#EBEFFF"/>
<circle cx="64.3964" cy="188.333" r="4.49206" fill="#EBEFFF"/>
<circle cx="82.3651" cy="188.333" r="4.49206" fill="#EBEFFF"/>
<circle cx="100.333" cy="188.333" r="4.49206" fill="#EBEFFF"/>
<circle cx="118.302" cy="188.333" r="4.49206" fill="#EBEFFF"/>
<circle cx="136.269" cy="188.333" r="4.49206" fill="#EBEFFF"/>
<circle cx="154.238" cy="188.333" r="4.49206" fill="#EBEFFF"/>
<circle cx="172.207" cy="188.333" r="4.49206" fill="#EBEFFF"/>
<circle cx="190.175" cy="188.333" r="4.49206" fill="#EBEFFF"/>
</svg>
