<svg width="37" height="38" viewBox="0 0 37 38" fill="none" xmlns="http://www.w3.org/2000/svg">
<path d="M24.3643 23.4598L28.6473 27.7418L27.2323 29.1568L22.9503 24.8738C21.357 26.151 19.3753 26.8457 17.3333 26.8428C12.3653 26.8428 8.33325 22.8108 8.33325 17.8428C8.33325 12.8748 12.3653 8.84277 17.3333 8.84277C22.3013 8.84277 26.3333 12.8748 26.3333 17.8428C26.3362 19.8848 25.6415 21.8665 24.3643 23.4598ZM22.3583 22.7178C23.6274 21.4127 24.3361 19.6632 24.3333 17.8428C24.3333 13.9758 21.2003 10.8428 17.3333 10.8428C13.4663 10.8428 10.3333 13.9758 10.3333 17.8428C10.3333 21.7098 13.4663 24.8428 17.3333 24.8428C19.1537 24.8456 20.9031 24.1369 22.2083 22.8678L22.3583 22.7178Z" fill="#272727"/>
</svg>
