<svg width="24" height="25" viewBox="0 0 24 25" fill="none" xmlns="http://www.w3.org/2000/svg">
<path d="M18 16.62C17.24 16.62 16.56 16.92 16.04 17.39L8.91 13.24C8.96 13.01 9 12.78 9 12.54C9 12.3 8.96 12.07 8.91 11.84L15.96 7.72998C16.5 8.22998 17.21 8.53998 18 8.53998C19.66 8.53998 21 7.19998 21 5.53998C21 3.87998 19.66 2.53998 18 2.53998C16.34 2.53998 15 3.87998 15 5.53998C15 5.77998 15.04 6.00998 15.09 6.23998L8.04 10.35C7.5 9.84998 6.79 9.53998 6 9.53998C4.34 9.53998 3 10.88 3 12.54C3 14.2 4.34 15.54 6 15.54C6.79 15.54 7.5 15.23 8.04 14.73L15.16 18.89C15.11 19.1 15.08 19.32 15.08 19.54C15.08 21.15 16.39 22.46 18 22.46C19.61 22.46 20.92 21.15 20.92 19.54C20.92 17.93 19.61 16.62 18 16.62ZM18 4.53998C18.55 4.53998 19 4.98998 19 5.53998C19 6.08998 18.55 6.53998 18 6.53998C17.45 6.53998 17 6.08998 17 5.53998C17 4.98998 17.45 4.53998 18 4.53998ZM6 13.54C5.45 13.54 5 13.09 5 12.54C5 11.99 5.45 11.54 6 11.54C6.55 11.54 7 11.99 7 12.54C7 13.09 6.55 13.54 6 13.54ZM18 20.56C17.45 20.56 17 20.11 17 19.56C17 19.01 17.45 18.56 18 18.56C18.55 18.56 19 19.01 19 19.56C19 20.11 18.55 20.56 18 20.56Z" fill="#001975"/>
</svg>
