<svg width="16" height="16" viewBox="0 0 16 16" fill="none" xmlns="http://www.w3.org/2000/svg">
<path d="M8 1.33331C4.33333 1.33331 1.33333 4.33331 1.33333 7.99998C1.33333 11.6666 4.33333 14.6666 8 14.6666C11.6667 14.6666 14.6667 11.6666 14.6667 7.99998C14.6667 4.33331 11.6667 1.33331 8 1.33331ZM8 13.3333C5.06 13.3333 2.66666 10.94 2.66666 7.99998C2.66666 5.05998 5.06 2.66665 8 2.66665C10.94 2.66665 13.3333 5.05998 13.3333 7.99998C13.3333 10.94 10.94 13.3333 8 13.3333ZM8.33333 4.66665H7.33333V8.66665L10.8 10.8L11.3333 9.93331L8.33333 8.13331V4.66665Z" fill="#FE0000"/>
</svg>
