<svg width="232" height="48" viewBox="0 0 232 48" fill="none" xmlns="http://www.w3.org/2000/svg">
<g clip-path="url(#clip0_5532_35669)">
<path fill-rule="evenodd" clip-rule="evenodd" d="M133.068 0.177618C128.411 0.674877 124.002 2.52906 120.389 5.50998C116.776 8.4909 114.118 12.4673 112.745 16.9455C111.373 21.4236 111.345 26.2064 112.667 30.7C113.988 35.1935 116.6 39.2 120.179 42.2221C123.2 44.7736 126.808 46.5359 130.677 47.3512C134.547 48.1664 138.559 48.009 142.353 46.8933C146.147 45.7775 149.605 43.738 152.417 40.9577C155.23 38.1773 157.308 34.7428 158.467 30.9617C159.627 27.1807 159.83 23.1712 159.059 19.2924C158.288 15.4135 156.567 11.7865 154.05 8.73603C151.533 5.6856 148.299 3.30706 144.637 1.81344C140.975 0.319824 137 -0.242231 133.068 0.177618ZM133.157 0.710951C139.3 0.0922874 145.439 1.92927 150.233 5.82087C155.027 9.71248 158.087 15.3426 158.744 21.4822C159.401 27.6217 157.603 33.772 153.742 38.5903C149.881 43.4087 144.27 46.5037 138.135 47.1998C135.072 47.5473 131.971 47.2857 129.009 46.43C126.048 45.5743 123.285 44.1414 120.88 42.2138C118.475 40.2863 116.474 37.902 114.994 35.1983C113.513 32.4947 112.582 29.5249 112.254 26.46C111.926 23.3951 112.207 20.2956 113.082 17.3398C113.956 14.384 115.406 11.6303 117.349 9.23711C119.292 6.84396 121.688 4.85862 124.401 3.39536C127.114 1.9321 130.09 1.01979 133.157 0.710951Z" fill="#ACBB16"/>
<path fill-rule="evenodd" clip-rule="evenodd" d="M134.665 1.689C131.374 1.84166 128.158 2.72426 125.25 4.27291C122.342 5.82156 119.814 7.99749 117.851 10.6432C115.887 13.2889 114.536 16.3381 113.896 19.5701C113.256 22.8021 113.343 26.136 114.15 29.3304C114.957 32.5248 116.464 35.4998 118.562 38.04C120.66 40.5802 123.297 42.622 126.282 44.0176C129.267 45.4132 132.524 46.1276 135.819 46.1092C139.114 46.0908 142.363 45.34 145.332 43.9112C148.244 42.4659 150.805 40.4017 152.835 37.8631C154.866 35.3245 156.317 32.3729 157.087 29.2147C157.858 26.0566 157.929 22.7682 157.296 19.5797C156.662 16.3912 155.34 13.3796 153.421 10.7557C153.065 10.1334 152.621 9.86677 152.176 9.24455C150.031 6.72887 147.336 4.73941 144.3 3.42947C141.264 2.11953 137.968 1.52407 134.665 1.689ZM135.199 21.3334C135.287 21.5112 135.287 21.2446 135.287 21.6001L134.843 23.289L134.399 25.4223C133.687 24.3557 133.154 22.0446 132.887 20.6223C132.532 18.2223 132.887 16.9779 132.976 14.7557C132.621 15.6446 132.443 16.889 132.354 17.9557C131.465 17.1557 131.376 16.4446 130.132 16.0001C131.376 16.9779 131.91 18.1334 132.087 20.1779C132.176 22.6668 132.532 23.3779 132.976 25.5112C132.176 24.9779 131.732 24.4446 131.11 23.7334C127.999 20.1779 127.021 22.5779 125.776 17.8668C125.687 19.6446 126.043 19.8223 126.487 21.0668C125.51 21.0668 124.532 20.889 123.732 21.4223C125.776 21.6001 127.199 21.8668 128.532 22.8446C131.376 24.889 134.932 30.6668 135.11 34.6668C134.221 34.2223 133.332 32.2668 129.332 30.7557C127.999 30.3112 126.932 30.1334 125.776 29.5112C125.154 29.0668 123.821 27.8223 123.821 26.8446C123.821 28.0001 124.887 29.4223 125.332 29.7779L121.154 29.9557C123.999 30.2223 125.332 29.9557 127.821 30.9334C129.51 31.6446 131.465 32.889 132.443 33.8668C133.065 34.5779 135.021 36.1779 134.665 37.1557L132.976 41.3334C132.443 42.7557 132.532 42.8446 132.354 44.4446C127.209 43.6521 122.556 40.9347 119.338 36.8421C116.12 32.7495 114.577 27.5874 115.021 22.4001C115.363 18.5251 116.789 14.8246 119.136 11.7226C121.483 8.6205 124.657 6.24221 128.293 4.86006C131.929 3.47791 135.881 3.14779 139.697 3.9075C143.512 4.6672 147.036 6.48602 149.865 9.15566L150.399 9.77789C153.049 12.5333 154.882 15.9714 155.692 19.7081C156.501 23.4449 156.256 27.3331 154.984 30.9386C153.711 34.5441 151.461 37.7248 148.485 40.1255C145.51 42.5262 141.925 44.0523 138.132 44.5334C137.51 41.8668 137.776 40.8001 138.487 38.2223C139.287 35.4668 139.732 35.289 141.51 33.8668C145.687 30.6668 147.465 30.6668 151.465 29.2446C149.954 29.1557 148.799 29.4223 147.376 29.689C148.087 28.4446 148.443 28.2668 148.621 26.489C148.265 29.7779 144.443 30.3112 140.976 32.4446L138.399 34.2223C136.799 31.0223 139.11 29.9557 141.51 26.489C142.132 25.6001 143.021 23.8223 143.287 22.4001C143.643 20.1779 144.176 19.9112 145.51 18.6668C144.443 19.0223 144.087 19.6446 143.465 20.1779L143.199 18.5779C143.11 21.1557 143.021 23.5557 140.532 25.7779C141.065 22.489 140.887 22.2223 139.821 19.5557C140.887 22.8446 139.999 25.9557 137.865 28.4446L135.999 30.489C135.732 28.9779 135.554 27.2001 135.554 25.6001C135.554 24.8001 135.821 22.1334 136.354 21.3334C136.532 20.1779 137.776 18.1334 138.31 17.3334L140.354 14.8446L141.065 14.1334C140.621 14.4001 139.465 15.2001 139.199 15.5557V13.689L138.754 12.2668C138.932 13.2446 139.199 13.7779 138.843 15.0223C138.132 17.3334 135.376 19.6446 135.287 21.0668V18.7557C134.31 19.1112 133.332 20.1779 133.865 21.6001L134.399 20.3557L134.132 21.689C134.932 21.5112 134.843 21.6001 135.199 21.3334Z" fill="#293737"/>
<path fill-rule="evenodd" clip-rule="evenodd" d="M142.933 14.5778C143.911 14.1334 144.978 13.0667 146.933 12.9778C145.6 13.5112 144 14.0445 143.2 15.0223C145.333 17.2445 147.378 14.1334 148.178 13.5112C148.711 13.0667 149.244 12.9778 149.778 12.5334C148.444 12.0889 147.022 11.5556 145.422 11.9112C144 12.1778 142.756 12.9778 142.933 14.5778ZM144 32.9778C146.4 32.7112 146.667 33.0667 148.622 33.4223C146.667 33.3334 146.222 32.9778 144 33.5112C145.689 36.8 147.733 34.1334 150.844 34.2223C148.978 31.4667 144.444 30.5778 144 32.9778ZM122.044 14.4001L122.311 14.4889L122.4 14.5778L122.933 14.7556C123.289 14.7556 123.467 14.9334 123.733 15.0223C125.244 15.6445 126.756 17.3334 128.089 14.7556C127.289 14.2223 125.511 13.9556 124.444 13.9556C126.133 13.8667 126.667 13.9556 128.089 14.3112C127.733 13.1556 126.578 12.7112 125.067 12.9778C123.556 13.1556 123.022 13.9556 122.044 14.4001ZM149.333 27.8223C150.133 27.1112 150.222 26.4889 151.378 25.8667C150.933 26.5778 149.956 27.2001 149.689 28.2667C152.533 29.2445 151.911 27.4667 154.133 24.3556C151.733 24.0889 148.8 25.3334 149.333 27.8223ZM138.044 11.0223C138.133 10.3112 137.156 8.97783 136.889 8.53339C137.778 9.2445 137.867 9.77783 138.311 10.4001L138.578 10.7556C138.933 9.33339 138.4 8.62227 137.6 7.82227C136.889 7.20005 135.822 6.57783 134.578 6.66672C136.089 8.97783 135.022 11.6445 138.044 11.0223ZM144.267 23.5556C145.156 24.3556 144.8 23.6445 146.844 25.7778C146.667 25.2445 144.8 24.1778 143.911 23.8223C143.022 26.3112 145.689 26.4889 146.667 26.8445C147.289 27.0223 147.644 27.3778 148.089 27.5556C147.911 23.3778 144.356 22.8445 144.267 23.5556ZM134.933 17.8667C135.111 16.9778 134.933 16.1778 134.933 15.3778L135.022 15.5556C135.2 16.0001 135.289 16.4445 135.289 17.6889C136.889 16.7112 135.822 13.6001 133.689 12.4445C133.956 14.8445 132.178 17.3334 134.933 17.8667ZM119.644 18.4001C120.978 19.1112 121.067 19.2001 122.044 20.0001C123.022 20.8889 124.267 20.6223 124.8 19.4667L122.311 18.4001C123.378 18.4889 124 18.8445 124.889 19.1112C124.533 17.4223 122.489 17.2445 120.978 17.6889L119.644 18.4001ZM118.4 25.9556C119.378 26.7556 119.467 26.7556 120.356 28C120.889 28.8889 121.867 29.3334 123.022 28.3556C122.756 27.7334 121.511 26.8445 120.8 26.5778C121.956 26.8445 122.489 27.6445 123.289 28C123.111 25.7778 120.533 25.3334 118.4 25.9556ZM129.6 37.9556C130.489 35.3778 132.622 36.3556 132.356 33.9556C131.467 34.2223 130.489 35.1112 130.222 35.8223C130.667 34.5778 131.644 34.0445 132.089 33.6C129.689 31.4667 128.444 36.4445 129.6 37.9556ZM131.2 31.1112C131.467 30.1334 131.467 29.8667 131.467 28.7112C131.733 29.4223 131.644 30.4 131.467 31.2001C133.156 31.0223 133.333 29.8667 132.622 28.4445C132.178 27.3778 131.2 26.7556 130.4 26.2223C130.489 27.2889 130.756 27.5556 130.489 28.8001C130.222 30.0445 130.222 30.7556 131.2 31.1112ZM130.667 22.5778L130.489 19.4667L131.022 22.4889C132.444 21.6001 131.644 18.7556 129.511 17.6001C129.689 19.8223 128 22.3112 130.667 22.5778ZM146.844 19.1112L149.6 18.9334C148.622 19.1112 147.556 19.0223 146.844 19.5556C147.644 21.8667 149.6 19.6445 151.378 19.5556C151.2 19.1112 151.378 19.3778 150.933 19.1112L150.489 18.7556C149.244 17.9556 147.378 17.7778 146.844 19.1112ZM131.733 14.9334C131.733 14.3112 131.378 13.8667 131.2 13.2445L131.644 13.7778L132 14.5778C132 14.5778 132.267 14.4889 132.356 13.9556C132.444 12.8001 130.844 11.3778 129.156 11.2001L129.867 13.6889C130.044 14.7556 130.489 15.0223 131.733 14.9334ZM123.111 34.6667C123.733 33.9556 123.822 33.6 124.533 33.1556C125.244 32.6223 125.778 32.5334 125.689 31.3778C125.067 31.2889 124.889 31.6445 124.356 31.9112C124.711 31.3778 124.978 31.2889 125.333 30.9334C123.289 29.2445 122.489 32.7112 123.111 34.6667ZM123.556 25.4223C124.356 25.0667 124.533 24.7112 125.511 24.5334C126.489 24.2667 127.022 24.2667 127.022 23.1112C126.044 23.2001 125.956 23.3778 125.156 23.6445C125.956 23.1112 126.044 23.2001 126.933 22.8445C126.489 21.1556 124 21.9556 123.556 25.4223ZM140 31.7334L141.067 29.7778C140.8 30.4889 140.533 30.9334 140.356 31.9112C142.489 31.9112 141.778 30.7556 142.578 28.0889C141.156 28.4445 139.378 29.8667 140 31.7334ZM137.156 26.9334L137.867 24.8001L137.422 27.0223C139.556 27.2889 138.756 24.8889 139.111 23.1112C138.044 23.4667 135.733 25.7778 137.156 26.9334ZM141.067 35.0223L141.244 35.1112L141.511 35.2001L142.756 35.8223C142.044 35.6445 141.778 35.4667 140.8 35.3778C140.978 37.6 142.578 36.8 144.533 37.3334C144.356 36.4445 143.822 35.8223 143.378 35.3778C142.933 34.9334 141.778 34.2223 141.067 35.0223ZM119.022 22.5778C120 22.4889 120.356 22.4001 121.244 22.7556C122.133 23.0223 122.667 23.0223 122.933 22.3112C122.311 21.8667 121.867 22.0445 121.156 21.8667L123.022 22.0445C123.022 19.3778 119.733 21.1556 119.022 22.5778ZM134.933 12.1778C135.111 11.7334 134.667 11.2001 134.4 10.5778C134.667 10.9334 135.022 11.5556 135.378 11.8223C135.822 11.1112 135.111 10.2223 134.667 9.95561C134.133 9.51116 133.511 9.33339 132.711 9.2445C133.6 11.2889 133.511 12.4445 134.933 12.1778ZM146.489 16.4445C147.2 16.2667 147.467 16.0001 148.178 16.0001C147.644 16.1778 146.933 16.3556 146.578 16.7112C147.022 17.3334 147.644 17.6889 148.444 16.9778L150.222 15.9112C149.244 15.2889 146.933 14.7556 146.489 16.4445ZM128.178 34.9334C128.267 34.2223 128.267 33.8667 128.533 33.2445C129.422 31.6445 128.711 31.0223 128.178 32.1778L127.911 33.0667C127.911 32.2667 128.178 32.0889 128.356 31.4667C126.222 31.4667 126.844 33.8667 128.178 34.9334ZM136.622 21.1556H137.867L136.711 21.6889C137.333 23.1112 138.311 22.1334 139.733 21.4223L140.089 21.1556C139.556 20.8889 138.578 20.1778 137.333 20.6223L136.889 20.8889V20.9778L136.8 21.0667L136.622 21.1556ZM144.711 22.0445C145.244 21.8667 145.689 21.6889 146.311 21.6889C145.689 21.7778 145.156 21.8667 144.711 22.3112C145.511 23.6445 146.489 22.4001 147.022 22.0445L147.822 21.6889C146.933 21.1556 145.156 20.5334 144.711 22.0445ZM135.2 21.3334L135.556 20.9778V18.6667C134.578 19.0223 133.6 20.0889 134.133 21.4223L134.667 20.1778L134.4 21.6001C134.933 21.5112 134.844 21.6001 135.2 21.3334ZM142.756 17.3334L142.4 16.0001L142.578 16.2667L142.933 16.8889L143.2 17.1556C144.267 15.8223 142.578 14.9334 140.978 14.8445L141.156 15.2001C142.311 16.9778 141.6 17.3334 142.756 17.3334ZM141.689 12.5334L141.867 12.4445C142.756 12.1778 142.578 10.4889 141.511 9.60005C140.889 11.2001 140.533 12.1778 141.689 12.5334ZM128.267 27.0223C128.711 26.5778 128.533 26.4001 129.244 25.6C129.422 25.3334 129.689 25.2445 129.689 24.8001C129.511 24.1778 129.422 24.5334 128.978 24.8001C129.244 24.3556 129.511 24.1778 128.889 24.0889C128.533 24.0889 128.267 24.3556 128.089 24.6223C127.733 25.5112 128.089 26.3112 128.267 27.0223ZM136.622 16.2667L137.067 16.0001L137.333 15.5556L137.067 16.4445C138.756 16.8001 138.133 14.2223 137.422 13.7778C136.8 15.5556 136.356 15.2001 136.622 16.2667ZM141.689 22.4889L142.222 21.8667L141.956 22.5778C143.022 22.3112 143.289 20.8889 142.667 20.0001L142.578 20.0889C142.489 20.5334 142.578 20.0889 142.489 20.2667C141.778 21.0667 140.711 21.6889 141.689 22.4889ZM141.689 27.0223L142.756 26.7556C142.222 26.9334 142.222 26.8445 141.778 27.2889C142.133 27.7334 142.489 27.9112 143.2 27.4667L144.267 26.7556L144.178 26.4889L143.733 26.3112L142.933 26.2223C142.222 26.2223 141.956 26.4889 141.689 27.0223ZM149.333 30.6667L150.222 30.4889C149.867 30.6667 149.689 30.5778 149.422 31.0223C150.044 31.7334 150.311 31.4667 151.644 30.5778L151.911 30.3112C151.022 30.0445 149.867 29.4223 149.333 30.6667ZM128 30.0445L128.444 29.2445L128.267 30.2223C129.689 30.0445 129.156 29.1556 129.422 27.8223C128.622 28 127.289 29.0667 128 30.0445ZM126.489 29.1556C126.756 28.8001 126.667 28.8001 126.667 28.3556L126.756 28.6223L126.844 28.8001L127.022 29.0667C127.289 27.9112 126.933 27.0223 125.956 26.4889C126.044 27.8223 125.244 28.8889 126.489 29.1556ZM144.622 29.6889L144.8 29.4223L144.978 29.8667C146.667 29.7778 145.422 27.8223 144.889 27.4667C144.8 28.4445 144.178 29.1556 144.622 29.6889ZM126.489 18.5778L126.844 18.6667H127.2C126.578 18.7556 126.667 18.7556 126.489 19.1112C126.933 19.3778 127.2 19.5556 127.733 19.2001L128.889 18.5778C128.178 18.1334 127.022 17.6889 126.489 18.5778ZM142.133 19.2001C142.489 18.6667 142.044 19.1112 142.222 18.8445L142.489 18.6667C142.222 17.9556 141.689 17.7778 140.889 17.6889C141.511 19.1112 141.333 19.2001 142.133 19.2001ZM139.556 19.2001L139.289 18.3112L139.822 18.9334C139.911 18.0445 139.378 17.6889 138.489 17.6001C138.756 18.5778 138.578 19.1112 139.556 19.2001ZM0 22.1334V17.6889H3.46667V16.8889C3.46667 12.1778 5.68889 9.86672 10.2222 9.86672C11.9111 9.86672 13.1556 10.0445 13.9556 10.5778C14.8444 11.0223 15.2889 11.7334 15.2889 12.6223C15.2889 13.4223 15.0222 14.2223 14.4889 15.1112C13.6 14.6667 12.5333 14.4001 11.3778 14.4001C10.4 14.4001 9.68889 14.5778 9.24444 15.0223C8.8 15.4667 8.53333 16.1778 8.53333 17.0667V17.7778L13.9556 17.6889V22.1334L8.97778 22.0445V36.1778H3.46667V22.0445L0 22.1334ZM31.2 36.1778H27.9111C26.1333 36.1778 25.0667 35.2001 24.8889 33.2445C23.7333 35.4667 21.7778 36.5334 19.0222 36.5334C17.3333 36.5334 16 36.0889 14.8444 35.1112C14.2522 34.6331 13.7822 34.0211 13.4731 33.3256C13.1639 32.6301 13.0247 31.8711 13.0667 31.1112C13.0667 26.9334 16.0889 24.8001 22.2222 24.8001H24.8C24.8 23.6445 24.5333 22.8445 24 22.3112C23.4667 21.8667 22.4889 21.6001 21.3333 21.6001C19.0222 21.6001 17.0667 22.1334 15.3778 23.2001C14.8444 22.4001 14.4889 21.5112 14.4889 20.5334C14.4889 19.5556 14.8444 18.9334 15.4667 18.5778C16.9778 17.6889 19.1111 17.2445 21.7778 17.2445C24.4444 17.2445 26.4889 17.8667 28 19.1112C29.5111 20.4445 30.2222 22.2223 30.2222 24.6223V31.8223C30.3111 33.8667 30.5778 35.2001 31.2 36.1778ZM20.2667 32.3556C22.0444 32.3556 23.6444 31.6445 24.8889 29.9556V28H22.3111C19.5556 28 18.1333 28.8001 18.1333 30.4889C18.1333 31.0223 18.3111 31.4667 18.7556 31.8223C19.2 32.1778 19.6444 32.3556 20.2667 32.3556ZM38.6667 20.8001C39.1111 19.9112 39.9111 19.1112 40.8889 18.4001C41.8667 17.6889 43.0222 17.3334 44.1778 17.3334C45.1556 17.3334 45.9556 17.6001 46.6667 18.1334C47.3778 18.7556 47.6444 19.5556 47.6444 20.6223C47.6444 21.7778 47.3778 22.8445 46.9333 24C45.9113 23.0843 44.571 22.6056 43.2 22.6667C41.3333 22.6667 39.8222 23.3778 38.5778 24.8001V36.1778H33.0667V17.6889H35.2889C36.4444 17.6889 37.2444 17.9556 37.7778 18.4889C38.3111 18.9334 38.5778 19.8223 38.6667 20.8001ZM71.8222 32.9778V24.4445C71.8222 22.7556 71.0222 21.8667 69.6 21.8667C68.8 21.8667 68 22.1334 67.2 22.6667C66.4889 23.2001 65.9556 23.8223 65.6 24.5334V36.1778H60.1778V24.4445C60.1778 22.7556 59.3778 21.8667 57.9556 21.8667C57.0667 21.8667 56.3556 22.1334 55.5556 22.6667C54.8444 23.2001 54.3111 23.8223 53.8667 24.5334V36.1778H48.4444V17.6889H50.5778C51.7333 17.6889 52.5333 17.9556 53.0667 18.4001C53.5111 18.9334 53.7778 19.6445 53.8667 20.6223C55.3778 18.4889 57.4222 17.3334 60.1778 17.3334C62.7556 17.3334 64.3556 18.5778 65.1556 20.9778C65.824 19.856 66.775 18.929 67.9136 18.2895C69.0522 17.65 70.3386 17.3204 71.6444 17.3334C73.4222 17.3334 74.8444 17.8667 75.8222 19.0223C76.8 20.1778 77.2444 21.8667 77.2444 23.9112V36.1778H75.2C72.8889 36.1778 71.8222 35.1112 71.8222 32.9778Z" fill="#ACBB16"/>
<path fill-rule="evenodd" clip-rule="evenodd" d="M81.6012 33.9556C79.9123 32.2667 79.0234 29.9556 79.0234 26.8445C79.0234 23.9112 79.9123 21.5112 81.6012 19.8223C83.2901 18.0445 85.6901 17.1556 88.7123 17.1556C90.7568 17.1556 92.4457 17.4223 93.779 18.1334C94.4012 18.4001 94.7568 18.6667 94.9345 18.9334C95.1123 19.2889 95.2012 19.8223 95.2012 20.4445C95.2012 21.4223 94.9345 22.3112 94.4901 23.2889C92.8901 22.3112 91.2012 21.7778 89.2457 21.7778C86.1345 21.7778 84.6234 23.3778 84.6234 26.8445C84.6234 28.4445 84.979 29.6889 85.779 30.5778C86.579 31.4667 87.8234 31.9112 89.4234 31.9112C91.2012 31.9112 93.0679 31.3778 94.7568 30.2223C95.2901 31.2001 95.5568 32.1778 95.5568 33.1556C95.5568 33.7778 95.4679 34.2223 95.2012 34.5778C95.0234 34.8445 94.6679 35.2001 94.1345 35.4667C92.8012 36.1778 91.1123 36.5334 88.8901 36.5334C85.779 36.6223 83.2901 35.7334 81.6012 33.9556ZM102.579 20.8001C103.112 19.9112 103.823 19.1112 104.801 18.4001C105.779 17.6889 106.935 17.3334 108.09 17.3334C109.068 17.3334 109.957 17.6001 110.668 18.1334C111.29 18.7556 111.646 19.5556 111.646 20.6223C111.646 21.7778 111.29 22.8445 110.846 24.0001C109.824 23.0843 108.483 22.6056 107.112 22.6667C105.246 22.6667 103.735 23.3778 102.579 24.8001V36.1778H96.979V17.6889H99.2012C100.357 17.6889 101.157 17.9556 101.69 18.4889C102.223 18.9334 102.49 19.8223 102.579 20.8001ZM175.29 27.8223L172.979 35.6445H165.423L160.446 17.1556H166.579L168.357 24.5334C169.068 27.0223 169.335 29.4223 169.423 31.6445H169.601C169.779 29.4223 170.312 26.9334 171.112 24.2667L173.335 17.1556H179.29L181.512 24.2667C182.223 26.9334 182.668 29.5112 182.846 31.6445H182.935C182.935 29.4223 183.29 27.0223 183.823 24.4445L186.046 17.1556H192.179L186.668 35.6445H179.735L177.512 27.8223L176.446 21.6889H176.357C176.001 24.2667 175.735 26.3112 175.29 27.8223ZM204.801 28.2667V23.8223C203.735 22.1334 202.401 21.3334 201.068 21.3334C199.912 21.3334 199.112 21.7778 198.401 22.6667C197.69 23.5556 197.335 24.8001 197.335 26.4001C197.335 28.0001 197.69 29.2445 198.312 30.1334C198.935 31.0223 199.912 31.4667 201.068 31.4667C201.868 31.4667 202.579 31.2001 203.29 30.4889C203.912 29.8667 204.446 29.1556 204.801 28.2667ZM210.223 12.9778V31.3778C210.223 33.2445 210.49 34.7556 211.023 35.6445H207.646C205.868 35.6445 204.801 34.6667 204.623 32.7112C204.152 33.745 203.386 34.6168 202.422 35.2176C201.457 35.8184 200.337 36.1215 199.201 36.0889C196.979 36.0889 195.112 35.2001 193.779 33.5112C192.446 31.8223 191.735 29.4223 191.735 26.4001C191.735 23.3778 192.446 20.8889 193.779 19.2001C195.201 17.6001 197.068 16.7112 199.379 16.7112C200.425 16.6911 201.457 16.9427 202.377 17.4412C203.296 17.9398 204.07 18.6683 204.623 19.5556V9.77783H206.757C209.068 9.77783 210.223 10.8445 210.223 12.9778ZM231.023 17.1556V33.5112C231.023 36.6223 230.223 39.1112 228.535 40.8001C226.757 42.4889 224.446 43.2889 221.335 43.2889C218.579 43.2889 216.712 43.0223 215.646 42.3112C214.757 41.6001 214.223 40.8001 214.223 39.7334C214.223 38.4001 214.49 37.4223 215.112 36.7112C216.535 38.0445 218.401 38.5778 220.623 38.5778C222.312 38.5778 223.468 38.3112 224.357 37.6001C225.157 36.9778 225.512 35.8223 225.512 34.2223V32.4445C224.863 33.4302 223.979 34.2389 222.939 34.7975C221.899 35.3562 220.737 35.6473 219.557 35.6445C217.423 35.6445 215.823 35.0223 214.668 33.6889C213.512 32.3556 212.979 30.4001 212.979 27.8223V17.1556H215.201C217.423 17.1556 218.579 18.2223 218.579 20.3556V27.2889C218.579 29.6889 219.468 30.9334 221.335 30.9334C223.29 30.9334 224.623 30.1334 225.601 28.4445V17.1556H231.023Z" fill="#293737"/>
</g>
<defs>
<clipPath id="clip0_5532_35669">
<rect width="231.111" height="48" fill="white"/>
</clipPath>
</defs>
</svg>
