<svg width="225" height="48" viewBox="0 0 225 48" fill="none" xmlns="http://www.w3.org/2000/svg">
<mask id="mask0_5531_35390" style="mask-type:luminance" maskUnits="userSpaceOnUse" x="0" y="0" width="225" height="48">
<path d="M224.744 0H0V48H224.744V0Z" fill="white"/>
</mask>
<g mask="url(#mask0_5531_35390)">
<path d="M79.8661 28.1674L78.5264 31.9628H78.4148C78.1914 31.107 77.7824 29.8046 77.1124 28.2419L69.9311 10.1953H62.8984V38.9582H67.5498V21.2093C67.5498 20.093 67.5498 18.8279 67.5124 17.2651C67.4754 16.4837 67.4008 15.8884 67.3638 15.4419H67.4754C67.6984 16.5581 67.9591 17.3767 68.1451 17.8977L76.7778 38.8838H80.0521L88.6101 17.7116C88.7961 17.2279 88.9824 16.2605 89.1684 15.4419H89.2801C89.1684 17.5628 89.0938 19.4605 89.0568 20.614V38.8465H94.0054V10.1209H87.2334L79.8661 28.1674ZM98.6938 18.2326H103.531V38.8465H98.6938V18.2326ZM101.15 9.52557C100.331 9.52557 99.6614 9.82327 99.1031 10.3442C98.5451 10.8651 98.2474 11.5349 98.2474 12.3535C98.2474 13.1349 98.5451 13.8046 99.1031 14.3256C99.6614 14.8465 100.331 15.107 101.15 15.107C101.968 15.107 102.675 14.8093 103.196 14.3256C103.754 13.8046 104.052 13.1349 104.052 12.3535C104.052 11.5721 103.754 10.9023 103.196 10.3442C102.712 9.82327 102.005 9.52557 101.15 9.52557ZM120.685 18.0465C119.791 17.8605 118.861 17.7488 117.968 17.7488C115.773 17.7488 113.764 18.2326 112.089 19.2C110.415 20.1674 109.075 21.507 108.219 23.1814C107.326 24.893 106.88 26.8651 106.88 29.1349C106.88 31.107 107.326 32.8558 108.182 34.4558C109.038 36.0185 110.229 37.2838 111.829 38.1395C113.354 38.9955 115.14 39.4418 117.15 39.4418C119.457 39.4418 121.429 38.9582 122.991 38.0652L123.029 38.0278V33.5628L122.843 33.7116C122.136 34.2325 121.317 34.6792 120.498 34.9395C119.643 35.2372 118.861 35.3862 118.191 35.3862C116.257 35.3862 114.731 34.8278 113.652 33.6C112.536 32.4093 111.978 30.7721 111.978 28.7256C111.978 26.6047 112.536 24.9302 113.689 23.7023C114.843 22.4744 116.368 21.8419 118.229 21.8419C119.791 21.8419 121.391 22.3628 122.843 23.4047L123.029 23.5535V18.8279L122.991 18.7907C122.359 18.5302 121.652 18.2326 120.685 18.0465ZM136.647 17.8977C135.457 17.8977 134.34 18.2698 133.373 19.0512C132.554 19.7209 131.996 20.6884 131.512 21.8419H131.475V18.2326H126.638V38.8465H131.475V28.3163C131.475 26.5302 131.847 25.0419 132.666 23.9628C133.485 22.8465 134.526 22.2884 135.791 22.2884C136.238 22.2884 136.685 22.4 137.243 22.4744C137.764 22.6233 138.136 22.7721 138.396 22.9581L138.582 23.107V18.2698L138.471 18.2326C138.136 18.0093 137.466 17.8977 136.647 17.8977ZM149.819 17.786C146.433 17.786 143.717 18.7907 141.819 20.7628C139.885 22.7349 138.954 25.4512 138.954 28.8744C138.954 32.0744 139.922 34.6792 141.782 36.5768C143.643 38.4372 146.173 39.4045 149.336 39.4045C152.647 39.4045 155.289 38.3998 157.187 36.3908C159.122 34.3815 160.052 31.7023 160.052 28.3907C160.052 25.1163 159.159 22.5116 157.336 20.614C155.587 18.7163 153.019 17.786 149.819 17.786ZM153.689 33.6372C152.796 34.7908 151.382 35.3488 149.633 35.3488C147.885 35.3488 146.471 34.7908 145.466 33.5628C144.461 32.4093 143.978 30.7349 143.978 28.614C143.978 26.4186 144.498 24.7442 145.466 23.5535C146.471 22.3628 147.847 21.7674 149.596 21.7674C151.308 21.7674 152.647 22.3256 153.615 23.4791C154.582 24.6326 155.103 26.307 155.103 28.5023C155.029 30.7349 154.619 32.4837 153.689 33.6372ZM170.843 26.7907C169.317 26.1581 168.35 25.6744 167.903 25.2651C167.531 24.893 167.345 24.3721 167.345 23.7023C167.345 23.1442 167.568 22.586 168.126 22.214C168.685 21.8419 169.317 21.6558 170.247 21.6558C171.066 21.6558 171.922 21.8046 172.74 22.0279C173.559 22.2512 174.303 22.586 174.898 23.0326L175.085 23.1814V18.6419L174.973 18.6046C174.415 18.3814 173.671 18.1581 172.778 17.9721C171.885 17.8233 171.066 17.7488 170.396 17.7488C168.089 17.7488 166.191 18.307 164.703 19.5349C163.215 20.6884 162.508 22.2512 162.508 24.0744C162.508 25.0419 162.657 25.8977 162.991 26.6046C163.326 27.3116 163.81 27.9814 164.48 28.5395C165.15 29.0605 166.117 29.6558 167.457 30.214C168.573 30.6977 169.429 31.0698 169.95 31.3674C170.471 31.6651 170.805 32 171.066 32.2605C171.252 32.5581 171.364 32.9302 171.364 33.414C171.364 34.7908 170.322 35.4605 168.201 35.4605C167.382 35.4605 166.526 35.3115 165.522 34.9768C164.517 34.6418 163.587 34.1582 162.805 33.6L162.619 33.4512V38.1768L162.731 38.2138C163.438 38.5488 164.294 38.7722 165.336 39.0325C166.378 39.2185 167.308 39.3675 168.126 39.3675C170.619 39.3675 172.666 38.8092 174.117 37.5815C175.605 36.3908 176.387 34.8652 176.387 32.893C176.387 31.5163 176.015 30.2884 175.196 29.3581C174.117 28.4651 172.778 27.5349 170.843 26.7907ZM189.15 17.786C185.764 17.786 183.047 18.7907 181.15 20.7628C179.252 22.7349 178.285 25.4512 178.285 28.8744C178.285 32.0744 179.252 34.6792 181.112 36.5768C182.973 38.4372 185.503 39.4045 188.666 39.4045C191.978 39.4045 194.619 38.3998 196.517 36.3908C198.452 34.3815 199.382 31.7023 199.382 28.3907C199.382 25.1163 198.489 22.5116 196.666 20.614C194.917 18.7163 192.35 17.786 189.15 17.786ZM192.982 33.6372C192.089 34.7908 190.675 35.3488 188.926 35.3488C187.14 35.3488 185.764 34.7908 184.759 33.5628C183.754 32.4093 183.271 30.7349 183.271 28.614C183.271 26.4186 183.791 24.7442 184.759 23.5535C185.764 22.3628 187.14 21.7674 188.889 21.7674C190.564 21.7674 191.94 22.3256 192.908 23.4791C193.875 24.6326 194.396 26.307 194.396 28.5023C194.396 30.7349 193.912 32.4837 192.982 33.6372ZM225.243 22.214V18.2326H220.368V12.1302L220.219 12.1674L215.605 13.5442L215.494 13.5814V18.2326H208.201V15.6279C208.201 14.4372 208.498 13.507 209.019 12.9116C209.54 12.3163 210.322 12.0186 211.289 12.0186C211.959 12.0186 212.666 12.1674 213.447 12.5023L213.633 12.614V8.4093L213.522 8.3721C212.852 8.14883 211.959 8 210.805 8C209.354 8 208.089 8.3349 206.936 8.89303C205.782 9.52557 204.926 10.3814 204.294 11.5349C203.661 12.6512 203.326 13.9163 203.326 15.3674V18.2326H199.94V22.1767H203.326V38.8465H208.201V22.214H215.494V32.8186C215.494 37.1722 217.54 39.3675 221.633 39.3675C222.303 39.3675 223.01 39.2558 223.68 39.1442C224.387 38.9955 224.908 38.8092 225.205 38.6605L225.243 38.6232V34.6418L225.057 34.7908C224.759 34.9768 224.498 35.1255 224.052 35.2372C223.68 35.3488 223.345 35.3862 223.085 35.3862C222.117 35.3862 221.447 35.1628 220.964 34.6045C220.517 34.0838 220.294 33.2279 220.294 31.9628V22.214H225.243Z" fill="#737373"/>
<path d="M0 0H22.8093V22.8093H0V0Z" fill="#F25022"/>
<path d="M25.1914 0H48.0006V22.8093H25.1914V0Z" fill="#7FBA00"/>
<path d="M0 25.1909H22.8093V48.0002H0V25.1909Z" fill="#00A4EF"/>
<path d="M25.1914 25.1909H48.0006V48.0002H25.1914V25.1909Z" fill="#FFB900"/>
</g>
</svg>
