<svg width="242" height="48" viewBox="0 0 242 48" fill="none" xmlns="http://www.w3.org/2000/svg">
<path d="M1 12.8547C5.02078 22.8579 18.4825 27.5112 27.6374 30.765C36.3983 33.8787 45.2006 35.1203 54.4799 35.2797C64.6668 35.4547 75.0634 35.77 85.1612 34.2104C96.241 32.4991 106.773 29.4566 117.571 26.5473C125.745 24.345 134.787 20.6199 141.249 14.9635C143.672 12.8428 146.619 10.2755 145.996 6.64696C145.32 2.70765 139.561 1.45436 136.355 1.15209C126.004 0.176094 113.218 3.87435 106.963 12.9141C104.463 16.5277 104.149 23.6882 105.557 27.7651C107.797 34.2513 112.829 38.5218 118.978 41.0716C128.175 44.8852 138.987 47.3795 148.927 46.9526C163.41 46.3305 178.163 40.5636 191.418 35.0718C202.901 30.3139 214.232 24.5083 225.352 18.9139C230.537 16.305 235.489 13.1128 241 11.2508" stroke="#AAB2D1" stroke-width="2" stroke-linecap="round"/>
</svg>
