<svg width="496" height="124" viewBox="0 0 496 124" fill="none" xmlns="http://www.w3.org/2000/svg">
<path d="M501.881 -139C490.419 -135.099 467.811 -118.107 469.083 -81.3496C470.672 -35.4027 505.349 -6.64978 514.018 36.6964C520.417 68.6891 519.509 148.818 480.497 182.484" stroke="#CCD1E3" stroke-width="4"/>
<path d="M486.268 -129.518C474.805 -125.616 452.198 -108.625 453.469 -71.8672C455.059 -25.9203 489.736 2.83264 498.405 46.1788C504.803 78.1715 503.895 158.301 464.884 191.966" stroke="#CCD1E3" stroke-width="4"/>
<path d="M470.416 -120.435C458.954 -116.534 436.346 -99.5425 437.618 -62.7849C439.207 -16.838 473.884 11.9149 482.553 55.2611C488.952 87.2538 488.044 167.383 449.032 201.049" stroke="#CCD1E3" stroke-width="4"/>
<path d="M454.346 -111.75C442.883 -107.849 420.276 -90.8574 421.548 -54.0999C423.137 -8.15296 457.814 20.6 466.483 63.9461C472.882 95.9388 471.974 176.068 432.962 209.734" stroke="#CCD1E3" stroke-width="4"/>
<path d="M438.053 -103.48C426.591 -99.5791 403.983 -82.5874 405.255 -45.8299C406.844 0.117057 441.521 28.87 450.19 72.2161C456.589 104.209 455.681 184.338 416.669 218.004" stroke="#CCD1E3" stroke-width="4"/>
<path d="M421.545 -95.6553C410.083 -91.7541 387.475 -74.7624 388.747 -38.0049C390.336 7.94201 425.013 36.6949 433.682 80.0411C440.081 112.034 439.173 192.163 400.161 225.829" stroke="#CCD1E3" stroke-width="4"/>
<path d="M404.815 -88.3188C393.352 -84.4177 370.745 -67.426 372.016 -30.6685C373.606 15.2784 408.283 44.0314 416.952 87.3775C423.35 119.37 422.442 199.5 383.431 233.165" stroke="#CCD1E3" stroke-width="4"/>
<path d="M387.858 -81.5256C376.395 -77.6245 353.788 -60.6328 355.059 -23.8753C356.649 22.0716 391.326 50.8246 399.995 94.1707C406.393 126.163 405.485 206.293 366.474 239.958" stroke="#CCD1E3" stroke-width="4"/>
<path d="M370.663 -75.3467C359.2 -71.4455 336.592 -54.4538 337.864 -17.6963C339.453 28.2506 374.13 57.0035 382.799 100.35C389.198 132.342 388.29 212.472 349.278 246.137" stroke="#CCD1E3" stroke-width="4"/>
<path d="M353.237 -69.8718C341.774 -65.9707 319.167 -48.979 320.438 -12.2215C322.028 33.7255 356.704 62.4784 365.374 105.825C371.772 137.817 370.864 217.947 331.853 251.612" stroke="#CCD1E3" stroke-width="4"/>
<path d="M335.569 -65.2141C324.106 -61.313 301.499 -44.3213 302.77 -7.56374C304.36 38.3832 339.036 67.1361 347.706 110.482C354.104 142.475 353.196 222.604 314.185 256.27" stroke="#CCD1E3" stroke-width="4"/>
<path d="M317.678 -61.5183C306.216 -57.6172 283.608 -40.6255 284.88 -3.86794C286.469 42.079 321.146 70.8319 329.815 114.178C336.214 146.171 335.306 226.3 296.294 259.966" stroke="#CCD1E3" stroke-width="4"/>
<path d="M299.588 -58.9673C288.126 -55.0661 265.518 -38.0744 266.79 -1.31692C268.379 44.63 303.056 73.3829 311.725 116.729C318.124 148.722 317.216 228.851 278.204 262.517" stroke="#CCD1E3" stroke-width="4"/>
<path d="M281.358 -57.79C269.895 -53.8889 247.288 -36.8972 248.559 -0.139669C250.149 45.8072 284.826 74.5602 293.495 117.906C299.893 149.899 298.985 230.028 259.974 263.694" stroke="#CCD1E3" stroke-width="4"/>
<path d="M263.096 -58.2688C251.633 -54.3676 229.026 -37.376 230.298 -0.618429C231.887 45.3285 266.564 74.0814 275.233 117.428C281.632 149.42 280.724 229.55 241.712 263.215" stroke="#CCD1E3" stroke-width="4"/>
<path d="M244.995 -60.7295C233.532 -56.8283 210.925 -39.8367 212.196 -3.07912C213.785 42.8678 248.462 71.6207 257.131 114.967C263.53 146.96 262.622 227.089 223.61 260.754" stroke="#CCD1E3" stroke-width="4"/>
<path d="M227.358 -65.5029C215.895 -61.6018 193.288 -44.6101 194.559 -7.85256C196.149 38.0944 230.826 66.8473 239.495 110.193C245.893 142.186 244.985 222.315 205.974 255.981" stroke="#CCD1E3" stroke-width="4"/>
<path d="M207.596 -74.1289C196.133 -70.2278 173.526 -53.2361 174.798 -16.4785C176.387 29.4684 211.064 58.2213 219.733 101.567C226.132 133.56 225.224 213.689 186.212 247.355" stroke="#CCD1E3" stroke-width="4"/>
<path d="M190.663 -80.9863C179.2 -77.0852 156.592 -60.0935 157.864 -23.336C159.453 22.611 194.13 51.3639 202.799 94.71C209.198 126.703 208.29 206.832 169.278 240.498" stroke="#CCD1E3" stroke-width="4"/>
<path d="M173.217 -86.4211C161.755 -82.52 139.147 -65.5283 140.419 -28.7708C142.008 17.1761 176.685 45.9291 185.354 89.2752C191.753 121.268 190.845 201.397 151.833 235.063" stroke="#CCD1E3" stroke-width="4"/>
<path d="M155.389 -90.3997C143.926 -86.4985 121.319 -69.5068 122.591 -32.7493C124.18 13.1976 158.857 41.9506 167.526 85.2967C173.925 117.289 173.017 197.419 134.005 231.084" stroke="#CCD1E3" stroke-width="4"/>
<path d="M137.295 -92.9233C125.833 -89.0222 103.225 -72.0305 104.497 -35.273C106.086 10.6739 140.763 39.4269 149.432 82.773C155.831 114.766 154.923 194.895 115.911 228.561" stroke="#CCD1E3" stroke-width="4"/>
<path d="M119.057 -94.0229C107.594 -90.1218 84.987 -73.1301 86.2585 -36.3726C87.8478 9.57433 122.525 38.3273 131.194 81.6734C137.593 113.666 136.685 193.795 97.673 227.461" stroke="#CCD1E3" stroke-width="4"/>
<path d="M100.791 -93.7554C89.3288 -89.8542 66.7214 -72.8625 67.9929 -36.105C69.5822 9.84191 104.259 38.5949 112.928 81.941C119.327 113.934 118.419 194.063 79.4074 227.729" stroke="#CCD1E3" stroke-width="4"/>
<path d="M82.5922 -92.1921C71.1296 -88.291 48.5222 -71.2993 49.7936 -34.5418C51.383 11.4051 86.0599 40.1581 94.7292 83.5042C101.128 115.497 100.22 195.626 61.2081 229.292" stroke="#CCD1E3" stroke-width="4"/>
<path d="M64.5336 -89.4138C53.071 -85.5127 30.4636 -68.521 31.7351 -31.7634C33.3244 14.1835 68.0013 42.9364 76.6706 86.2825C83.0691 118.275 82.1611 198.405 43.1495 232.07" stroke="#CCD1E3" stroke-width="4"/>
<path d="M46.6899 -85.5007C35.2272 -81.5996 12.6198 -64.6079 13.8913 -27.8504C15.4807 18.0965 50.1576 46.8495 58.8268 90.1956C65.2253 122.188 64.3173 202.318 25.3058 235.983" stroke="#CCD1E3" stroke-width="4"/>
<path d="M29.1079 -80.5256C17.6452 -76.6245 -4.96222 -59.6328 -3.69073 -22.8753C-2.10137 23.0716 32.5756 51.8246 41.2448 95.1707C47.6433 127.163 46.7353 207.293 7.72376 240.958" stroke="#CCD1E3" stroke-width="4"/>
<path d="M11.85 -74.5515C0.387392 -70.6504 -22.22 -53.6587 -20.9485 -16.9011C-19.3592 29.0458 15.3177 57.7987 23.987 101.145C30.3855 133.138 29.4775 213.267 -9.53405 246.932" stroke="#CCD1E3" stroke-width="4"/>
</svg>
