<svg width="646" height="678" viewBox="0 0 646 678" fill="none" xmlns="http://www.w3.org/2000/svg">
<path fill-rule="evenodd" clip-rule="evenodd" d="M0 0H900V900H0V0ZM116.883 108.044L21.3388 12.5H212.427L116.883 108.044ZM125.722 116.883L221.266 21.3389V212.428L125.722 116.883ZM116.883 125.722L212.427 221.267H21.3388L116.883 125.722ZM108.044 116.883L12.5 212.428V21.3389L108.044 116.883ZM338.961 108.044L243.417 12.5H434.505L338.961 108.044ZM347.8 116.883L443.344 21.3389V212.428L347.8 116.883ZM338.961 125.722L434.505 221.267H243.417L338.961 125.722ZM330.122 116.883L234.578 212.428V21.3389L330.122 116.883ZM465.495 12.5L561.039 108.044L656.583 12.5H465.495ZM665.422 21.3389L569.878 116.883L665.422 212.428V21.3389ZM656.583 221.267L561.039 125.722L465.495 221.267H656.583ZM456.656 212.428L552.2 116.883L456.656 21.3389V212.428ZM783.117 108.044L687.573 12.5H878.661L783.117 108.044ZM791.956 116.883L887.5 21.3389V212.428L791.956 116.883ZM783.117 125.722L878.661 221.267H687.573L783.117 125.722ZM774.278 116.883L678.734 212.428V21.3389L774.278 116.883ZM21.3388 234.58L116.883 330.124L212.427 234.58H21.3388ZM221.266 243.419L125.722 338.963L221.266 434.508V243.419ZM212.427 443.346L116.883 347.802L21.3388 443.346H212.427ZM12.5 434.508L108.044 338.963L12.5 243.419V434.508ZM338.961 330.124L243.417 234.58H434.505L338.961 330.124ZM347.8 338.963L443.344 243.419V434.508L347.8 338.963ZM338.961 347.802L434.505 443.346H243.417L338.961 347.802ZM330.122 338.963L234.578 434.508V243.419L330.122 338.963ZM465.495 234.58L561.039 330.124L656.583 234.58H465.495ZM665.422 243.419L569.878 338.963L665.422 434.508V243.419ZM656.583 443.346L561.039 347.802L465.495 443.346H656.583ZM456.656 434.508L552.2 338.963L456.656 243.419V434.508ZM783.117 330.124L687.573 234.58H878.661L783.117 330.124ZM791.956 338.963L887.5 243.419V434.508L791.956 338.963ZM783.117 347.802L878.661 443.346H687.573L783.117 347.802ZM774.278 338.963L678.734 434.508V243.419L774.278 338.963ZM21.3388 456.66L116.883 552.204L212.427 456.66H21.3388ZM221.266 465.498L125.722 561.043L221.266 656.587V465.498ZM212.427 665.426L116.883 569.882L21.3388 665.426H212.427ZM12.5 656.587L108.044 561.043L12.5 465.498V656.587ZM338.961 552.204L243.417 456.66H434.505L338.961 552.204ZM347.8 561.043L443.344 465.498V656.587L347.8 561.043ZM338.961 569.882L434.505 665.426H243.417L338.961 569.882ZM330.122 561.043L234.578 656.587V465.498L330.122 561.043ZM465.495 456.66L561.039 552.204L656.583 456.66H465.495ZM665.422 465.498L569.878 561.043L665.422 656.587V465.498ZM656.583 665.426L561.039 569.882L465.495 665.426H656.583ZM456.656 656.587L552.2 561.043L456.656 465.498V656.587ZM783.117 552.204L687.573 456.66H878.661L783.117 552.204ZM791.956 561.043L887.5 465.498V656.587L791.956 561.043ZM783.117 569.882L878.661 665.426H687.573L783.117 569.882ZM774.278 561.043L678.734 656.587V465.498L774.278 561.043ZM21.3388 678.733L116.883 774.278L212.427 678.733H21.3388ZM221.266 687.572L125.722 783.117L221.266 878.661V687.572ZM212.427 887.5L116.883 791.955L21.3388 887.5H212.427ZM12.5 878.661L108.044 783.117L12.5 687.572V878.661ZM338.961 774.278L243.417 678.733H434.505L338.961 774.278ZM347.8 783.117L443.344 687.572V878.661L347.8 783.117ZM338.961 791.955L434.505 887.5H243.417L338.961 791.955ZM330.122 783.117L234.578 878.661V687.572L330.122 783.117ZM465.495 678.733L561.039 774.278L656.583 678.733H465.495ZM665.422 687.572L569.878 783.117L665.422 878.661V687.572ZM656.583 887.5L561.039 791.955L465.495 887.5H656.583ZM456.656 878.661L552.2 783.117L456.656 687.572V878.661ZM783.117 774.278L687.573 678.733H878.661L783.117 774.278ZM791.956 783.117L887.5 687.572V878.661L791.956 783.117ZM783.117 791.955L878.661 887.5H687.573L783.117 791.955ZM774.278 783.117L678.734 878.661V687.572L774.278 783.117Z" fill="#F0F3FF"/>
</svg>
